<svg viewBox="0 0 29 28" fill="none" xmlns="http://www.w3.org/2000/svg">
<path opacity="0.5" d="M22.2916 10.5V11.3213C22.2916 12.3072 22.5716 13.2708 23.0989 14.091L24.3916 16.1012C25.5711 17.9375 24.6704 20.433 22.6182 21.0128C17.2559 22.5314 11.5772 22.5314 6.21491 21.0128C4.16274 20.433 3.26208 17.9375 4.44158 16.1012L5.73424 14.091C6.26299 13.2641 6.54358 12.3029 6.54274 11.3213V10.5C6.54274 5.98968 10.0684 2.33334 14.4166 2.33334C18.7647 2.33334 22.2916 5.98968 22.2916 10.5Z" fill="#98A2B3"/>
<path d="M8.8667 21.6358C9.24791 22.8073 9.99006 23.8281 10.9869 24.552C11.9837 25.2759 13.184 25.6657 14.4159 25.6657C15.6479 25.6657 16.8482 25.2759 17.845 24.552C18.8418 23.8281 19.584 22.8073 19.9652 21.6358C16.296 22.3242 12.537 22.3242 8.8667 21.6358Z" fill="#98A2B3"/>
</svg>
