<svg width="28" height="28" viewBox="0 0 29 28" fill="none" xmlns="http://www.w3.org/2000/svg">
<path opacity="0.5" d="M9.75 6.41668H19.0833C20.0116 6.41668 20.9018 6.04793 21.5582 5.39155C22.2146 4.73517 22.5833 3.84493 22.5833 2.91668C22.5833 2.76197 22.5219 2.61359 22.4125 2.5042C22.3031 2.3948 22.1547 2.33334 22 2.33334H6.83333C6.67862 2.33334 6.53025 2.3948 6.42085 2.5042C6.31146 2.61359 6.25 2.76197 6.25 2.91668C6.25 3.84493 6.61875 4.73517 7.27513 5.39155C7.9315 6.04793 8.82174 6.41668 9.75 6.41668ZM19.0833 21.5833H9.75C8.82174 21.5833 7.9315 21.9521 7.27513 22.6085C6.61875 23.2648 6.25 24.1551 6.25 25.0833C6.25 25.2381 6.31146 25.3864 6.42085 25.4958C6.53025 25.6052 6.67862 25.6667 6.83333 25.6667H22C22.1547 25.6667 22.3031 25.6052 22.4125 25.4958C22.5219 25.3864 22.5833 25.2381 22.5833 25.0833C22.5833 24.1551 22.2146 23.2648 21.5582 22.6085C20.9018 21.9521 20.0116 21.5833 19.0833 21.5833Z" fill="#98A2B3"/>
<path d="M6.25 13.4167C6.25 11.2163 6.25 10.1173 6.93367 9.43367C7.61733 8.75 8.71633 8.75 10.9167 8.75H17.9167C20.117 8.75 21.216 8.75 21.8997 9.43367C22.5833 10.1173 22.5833 11.2163 22.5833 13.4167V14.5833C22.5833 16.7837 22.5833 17.8827 21.8997 18.5663C21.216 19.25 20.117 19.25 17.9167 19.25H10.9167C8.71633 19.25 7.61733 19.25 6.93367 18.5663C6.25 17.8827 6.25 16.7837 6.25 14.5833V13.4167Z" fill="#98A2B3"/>
</svg>
