<svg width="28" height="28" viewBox="0 0 29 28" fill="none" xmlns="http://www.w3.org/2000/svg">
<path opacity="0.5" d="M14.7502 25.6667C21.1937 25.6667 26.4168 20.4435 26.4168 14C26.4168 7.55651 21.1937 2.33334 14.7502 2.33334C8.30666 2.33334 3.0835 7.55651 3.0835 14C3.0835 15.8667 3.52216 17.6307 4.30033 19.1952C4.508 19.6105 4.57683 20.0853 4.45666 20.5345L3.7625 23.1315C3.69374 23.3885 3.69381 23.6591 3.76268 23.9161C3.83155 24.173 3.9668 24.4074 4.15486 24.5956C4.34293 24.7837 4.57718 24.9191 4.83411 24.9882C5.09104 25.0572 5.36161 25.0574 5.61866 24.9888L8.21566 24.2935C8.66644 24.1796 9.14332 24.2348 9.55616 24.4487C11.1696 25.252 12.9478 25.669 14.7502 25.6667Z" fill="#98A2B3"/>
<path d="M9.5 12.9617C9.5 14.5577 11.0388 16.233 12.4505 17.4335C13.4107 18.2502 13.8913 18.6585 14.75 18.6585C15.6087 18.6585 16.0893 18.2502 17.0495 17.4335C18.4612 16.2318 20 14.5577 20 12.9605C20 9.83732 17.1125 8.67182 14.75 11.0845C12.3875 8.67182 9.5 9.83849 9.5 12.9617Z" fill="#98A2B3"/>
</svg>
