<svg viewBox="0 0 28 28" fill="none" xmlns="http://www.w3.org/2000/svg">
<path opacity="0.5" d="M2.3335 18.6667C2.3335 15.3674 2.3335 13.7166 3.359 12.6922C4.38333 11.6667 6.03416 11.6667 9.3335 11.6667H18.6668C21.9662 11.6667 23.617 11.6667 24.6413 12.6922C25.6668 13.7166 25.6668 15.3674 25.6668 18.6667C25.6668 21.9661 25.6668 23.6169 24.6413 24.6412C23.617 25.6667 21.9662 25.6667 18.6668 25.6667H9.3335C6.03416 25.6667 4.38333 25.6667 3.359 24.6412C2.3335 23.6169 2.3335 21.9661 2.3335 18.6667Z" fill="#98A2B3"/>
<path d="M14 20.9999C14.6188 20.9999 15.2123 20.7541 15.6499 20.3165C16.0875 19.8789 16.3333 19.2855 16.3333 18.6666C16.3333 18.0478 16.0875 17.4543 15.6499 17.0167C15.2123 16.5791 14.6188 16.3333 14 16.3333C13.3812 16.3333 12.7877 16.5791 12.3501 17.0167C11.9125 17.4543 11.6667 18.0478 11.6667 18.6666C11.6667 19.2855 11.9125 19.8789 12.3501 20.3165C12.7877 20.7541 13.3812 20.9999 14 20.9999ZM7.875 9.33328C7.875 7.70883 8.52031 6.15091 9.66897 5.00225C10.8176 3.85359 12.3755 3.20828 14 3.20828C15.6245 3.20828 17.1824 3.85359 18.331 5.00225C19.4797 6.15091 20.125 7.70883 20.125 9.33328V11.6713C20.7865 11.6771 21.3663 11.6923 21.875 11.7296V9.33328C21.875 7.2447 21.0453 5.24167 19.5685 3.76482C18.0916 2.28797 16.0886 1.45828 14 1.45828C11.9114 1.45828 9.90838 2.28797 8.43153 3.76482C6.95469 5.24167 6.125 7.2447 6.125 9.33328V11.7308C6.70757 11.6927 7.29119 11.6729 7.875 11.6713V9.33328Z" fill="#98A2B3"/>
</svg>
