<svg viewBox="0 0 29 28" fill="none" xmlns="http://www.w3.org/2000/svg">
<path opacity="0.5" d="M16.4837 23.884L15.8513 24.9527C15.2878 25.9047 13.8797 25.9047 13.315 24.9527L12.6827 23.884C12.1927 23.0557 11.9477 22.6403 11.5533 22.4117C11.159 22.1818 10.6632 22.1737 9.6715 22.1562C8.20617 22.1317 7.288 22.0418 6.518 21.7222C5.81026 21.429 5.1672 20.9993 4.62552 20.4577C4.08384 19.916 3.65416 19.2729 3.361 18.5652C2.9165 17.4942 2.9165 16.135 2.9165 13.4167V12.25C2.9165 8.43151 2.9165 6.52168 3.77634 5.11934C4.25705 4.33441 4.91669 3.67437 5.70134 3.19318C7.10484 2.33334 9.01584 2.33334 12.8332 2.33334H16.3332C20.1517 2.33334 22.0615 2.33334 23.465 3.19318C24.2495 3.67404 24.9091 4.33367 25.39 5.11818C26.2498 6.52168 26.2498 8.43268 26.2498 12.25V13.4167C26.2498 16.135 26.2498 17.4942 25.8065 18.5652C25.5132 19.273 25.0834 19.9162 24.5415 20.4578C23.9996 20.9995 23.3563 21.4291 22.6483 21.7222C21.8783 22.0418 20.9602 22.1305 19.4948 22.1562C18.5032 22.1737 18.0073 22.1818 17.613 22.4117C17.2187 22.6403 16.9737 23.0545 16.4837 23.884Z" fill="#98A2B3"/>
<path d="M20.4162 12.8333C20.4162 13.1427 20.2933 13.4395 20.0745 13.6583C19.8557 13.8771 19.5589 14 19.2495 14C18.9401 14 18.6433 13.8771 18.4246 13.6583C18.2058 13.4395 18.0828 13.1427 18.0828 12.8333C18.0828 12.5239 18.2058 12.2272 18.4246 12.0084C18.6433 11.7896 18.9401 11.6667 19.2495 11.6667C19.5589 11.6667 19.8557 11.7896 20.0745 12.0084C20.2933 12.2272 20.4162 12.5239 20.4162 12.8333ZM15.7495 12.8333C15.7495 13.1427 15.6266 13.4395 15.4078 13.6583C15.189 13.8771 14.8923 14 14.5828 14C14.2734 14 13.9767 13.8771 13.7579 13.6583C13.5391 13.4395 13.4162 13.1427 13.4162 12.8333C13.4162 12.5239 13.5391 12.2272 13.7579 12.0084C13.9767 11.7896 14.2734 11.6667 14.5828 11.6667C14.8923 11.6667 15.189 11.7896 15.4078 12.0084C15.6266 12.2272 15.7495 12.5239 15.7495 12.8333ZM11.0828 12.8333C11.0828 13.1427 10.9599 13.4395 10.7411 13.6583C10.5223 13.8771 10.2256 14 9.91618 14C9.60676 14 9.31001 13.8771 9.09122 13.6583C8.87243 13.4395 8.74951 13.1427 8.74951 12.8333C8.74951 12.5239 8.87243 12.2272 9.09122 12.0084C9.31001 11.7896 9.60676 11.6667 9.91618 11.6667C10.2256 11.6667 10.5223 11.7896 10.7411 12.0084C10.9599 12.2272 11.0828 12.5239 11.0828 12.8333Z" fill="#98A2B3"/>
</svg>
