<svg viewBox="0 0 28 28" fill="none" xmlns="http://www.w3.org/2000/svg">
<path d="M19.8333 14C21.1019 13.9998 22.3358 13.586 23.3481 12.8215C24.3603 12.057 25.0958 10.9833 25.443 9.76315C25.7902 8.54304 25.7301 7.243 25.272 6.06006C24.8139 4.87712 23.9827 3.87575 22.9043 3.20772C21.8259 2.53968 20.5591 2.24138 19.2959 2.35804C18.0328 2.47469 16.8421 2.99993 15.9042 3.85416C14.9664 4.70839 14.3326 5.84505 14.0989 7.09188C13.8652 8.33872 14.0443 9.62775 14.609 10.7637C14.7155 10.97 14.7433 11.208 14.6872 11.4333L14.3395 12.7318C14.3051 12.8604 14.3051 12.9957 14.3396 13.1243C14.374 13.2528 14.4417 13.3701 14.5358 13.4642C14.6299 13.5583 14.7472 13.626 14.8757 13.6604C15.0043 13.6949 15.1396 13.6949 15.2682 13.6605L16.5667 13.3128C16.792 13.2567 17.03 13.2845 17.2363 13.391C18.0434 13.7918 18.9323 14.0003 19.8333 14Z" fill="#98A2B3"/>
<path opacity="0.5" d="M9.37743 8.53535L10.1346 9.89218C10.8171 11.1172 10.5429 12.7225 9.46727 13.7993C9.46727 13.7993 8.1606 15.1048 10.5289 17.472C12.8938 19.8368 14.2004 18.5337 14.2004 18.5337C15.2773 17.4568 16.8838 17.1827 18.1076 17.8652L19.4644 18.6235C21.3136 19.6548 21.5318 22.2472 19.9066 23.8735C18.9301 24.8488 17.7331 25.6095 16.4113 25.6585C14.1853 25.7437 10.4041 25.1802 6.61127 21.3885C2.8196 17.5957 2.2561 13.8145 2.34127 11.5885C2.39143 10.2667 3.15093 9.06968 4.12627 8.09318C5.7526 6.46802 8.34493 6.68618 9.37627 8.53652" fill="#98A2B3"/>
</svg>
