<svg viewBox="0 0 28 28" fill="none" xmlns="http://www.w3.org/2000/svg">
<path d="M19.2825 2.33325H8.71716C7.31366 2.33325 6.6125 2.33325 6.04783 2.68209C5.48433 3.02975 5.1705 3.65742 4.54283 4.91275L2.906 9.05325C2.52683 10.0099 2.19666 11.1369 2.83366 11.9454C3.13388 12.3265 3.5454 12.6045 4.01098 12.7408C4.47655 12.8771 4.97303 12.8648 5.43134 12.7058C5.88965 12.5468 6.28701 12.2489 6.56812 11.8535C6.84924 11.4582 7.00014 10.985 6.99983 10.4999C6.99983 11.1188 7.24566 11.7122 7.68325 12.1498C8.12083 12.5874 8.71432 12.8333 9.33316 12.8333C9.952 12.8333 10.5455 12.5874 10.9831 12.1498C11.4207 11.7122 11.6665 11.1188 11.6665 10.4999C11.6665 11.1188 11.9123 11.7122 12.3499 12.1498C12.7875 12.5874 13.381 12.8333 13.9998 12.8333C14.6187 12.8333 15.2122 12.5874 15.6497 12.1498C16.0873 11.7122 16.3332 11.1188 16.3332 10.4999C16.3332 11.1188 16.579 11.7122 17.0166 12.1498C17.4542 12.5874 18.0477 12.8333 18.6665 12.8333C19.2853 12.8333 19.8788 12.5874 20.3164 12.1498C20.754 11.7122 20.9998 11.1188 20.9998 10.4999C20.9998 10.9849 21.1508 11.4579 21.432 11.8531C21.7132 12.2483 22.1106 12.546 22.5689 12.7048C23.0271 12.8637 23.5235 12.8758 23.989 12.7395C24.4544 12.6032 24.8658 12.3252 25.166 11.9443C25.803 11.1358 25.4717 10.0088 25.0937 9.05208L23.4557 4.91275C22.828 3.65742 22.5153 3.02975 21.9507 2.68209C21.3872 2.33325 20.6848 2.33325 19.2825 2.33325ZM11.0832 24.7916V21.5833C11.0832 20.4924 11.0832 19.9476 11.3177 19.5416C11.4713 19.2756 11.6922 19.0547 11.9582 18.9011C12.3642 18.6666 12.909 18.6666 13.9998 18.6666C15.0907 18.6666 15.6355 18.6666 16.0415 18.9011C16.3075 19.0547 16.5284 19.2756 16.682 19.5416C16.9165 19.9476 16.9165 20.4924 16.9165 21.5833V24.7916H11.0832Z" fill="#98A2B3"/>
<path opacity="0.5" fill-rule="evenodd" clip-rule="evenodd" d="M4.6665 12.8333C5.28534 12.8333 5.87884 12.5875 6.31642 12.1499C6.754 11.7123 6.99984 11.1188 6.99984 10.5C6.99984 11.1188 7.24567 11.7123 7.68325 12.1499C8.12084 12.5875 8.71433 12.8333 9.33317 12.8333C9.95201 12.8333 10.5455 12.5875 10.9831 12.1499C11.4207 11.7123 11.6665 11.1188 11.6665 10.5C11.6665 11.1188 11.9123 11.7123 12.3499 12.1499C12.7875 12.5875 13.381 12.8333 13.9998 12.8333C14.6187 12.8333 15.2122 12.5875 15.6498 12.1499C16.0873 11.7123 16.3332 11.1188 16.3332 10.5C16.3332 11.1188 16.579 11.7123 17.0166 12.1499C17.4542 12.5875 18.0477 12.8333 18.6665 12.8333C19.2853 12.8333 19.8788 12.5875 20.3164 12.1499C20.754 11.7123 20.9998 11.1188 20.9998 10.5C20.9998 11.1188 21.2457 11.7123 21.6833 12.1499C22.1208 12.5875 22.7143 12.8333 23.3332 12.8333V24.7917H16.9165V21.5833C16.9165 20.4925 16.9165 19.9477 16.682 19.5417C16.5284 19.2757 16.3075 19.0548 16.0415 18.9012C15.6355 18.6667 15.0907 18.6667 13.9998 18.6667C12.909 18.6667 12.3642 18.6667 11.9582 18.9012C11.6922 19.0548 11.4713 19.2757 11.3177 19.5417C11.0832 19.9477 11.0832 20.4925 11.0832 21.5833V24.7917H4.6665V12.8333Z" fill="#98A2B3"/>
<path d="M16.9168 24.7917H2.3335C2.10143 24.7917 1.87887 24.8839 1.71478 25.048C1.55068 25.2121 1.4585 25.4347 1.4585 25.6667C1.4585 25.8988 1.55068 26.1214 1.71478 26.2855C1.87887 26.4496 2.10143 26.5417 2.3335 26.5417H25.6668C25.8989 26.5417 26.1215 26.4496 26.2855 26.2855C26.4496 26.1214 26.5418 25.8988 26.5418 25.6667C26.5418 25.4347 26.4496 25.2121 26.2855 25.048C26.1215 24.8839 25.8989 24.7917 25.6668 24.7917H16.9168Z" fill="#98A2B3"/>
</svg>
