<svg viewBox="0 0 28 28" fill="none" xmlns="http://www.w3.org/2000/svg">
<path fill-rule="evenodd" clip-rule="evenodd" d="M3.359 4.48467C2.3335 5.46817 2.3335 7.05133 2.3335 10.22V11.34C2.3335 14.5075 2.3335 16.0918 3.359 17.0753C4.38333 18.06 6.03416 18.06 9.3335 18.06H18.6668C21.9662 18.06 23.617 18.06 24.6413 17.0753C25.6668 16.0918 25.6668 14.5087 25.6668 11.34V10.22C25.6668 7.0525 25.6668 5.46817 24.6413 4.48467C23.617 3.5 21.9662 3.5 18.6668 3.5H9.3335C6.03416 3.5 4.38333 3.5 3.359 4.48467Z" fill="#98A2B3"/>
<path opacity="0.5" d="M21.2765 22.8621L14.875 20.8134V18.0601H13.125V20.8134L6.72347 22.8621C6.61629 22.8939 6.51661 22.9469 6.43037 23.0181C6.34412 23.0892 6.27309 23.177 6.22148 23.2762C6.16988 23.3753 6.13877 23.4839 6.13001 23.5953C6.12124 23.7068 6.135 23.8189 6.17047 23.9249C6.25012 24.1394 6.40994 24.3147 6.61626 24.4137C6.82257 24.5127 7.05926 24.5278 7.27647 24.4557L14 22.3044L20.7235 24.4569C20.941 24.5292 21.1781 24.5142 21.3847 24.4149C21.5913 24.3156 21.7512 24.1399 21.8306 23.9249C21.8659 23.8189 21.8795 23.7068 21.8705 23.5954C21.8616 23.4841 21.8304 23.3756 21.7787 23.2766C21.7269 23.1775 21.6558 23.0899 21.5696 23.0189C21.4833 22.9478 21.3836 22.8938 21.2765 22.8621Z" fill="#98A2B3"/>
</svg>
