<svg viewBox="0 0 28 28" fill="none" xmlns="http://www.w3.org/2000/svg">
<path opacity="0.5" d="M2.3335 14C2.3335 20.4435 7.55666 25.6667 14.0002 25.6667C20.4437 25.6667 25.6668 20.4435 25.6668 14C25.6668 7.55654 20.4437 2.33337 14.0002 2.33337C7.55666 2.33337 2.3335 7.55654 2.3335 14Z" fill="#98A2B3"/>
<path d="M14.3338 10.2084C11.997 10.2084 10.2085 11.9619 10.2085 14C10.2085 16.0382 11.997 17.7917 14.3338 17.7917C14.93 17.7917 15.4947 17.675 16.0022 17.4685C16.1086 17.4251 16.2225 17.4031 16.3374 17.4036C16.4523 17.4042 16.566 17.4275 16.672 17.472C16.7779 17.5165 16.8741 17.5815 16.9549 17.6632C17.0358 17.7448 17.0997 17.8416 17.1432 17.948C17.1866 18.0544 17.2086 18.1684 17.2081 18.2833C17.2075 18.3982 17.1842 18.5119 17.1397 18.6179C17.0952 18.7238 17.0302 18.8199 16.9486 18.9008C16.8669 18.9816 16.7701 19.0456 16.6637 19.089C15.9236 19.389 15.1324 19.5427 14.3338 19.5417C11.1465 19.5417 8.4585 17.1162 8.4585 14C8.4585 10.8839 11.1465 8.45838 14.3338 8.45838C15.1324 8.45741 15.9236 8.61113 16.6637 8.91105C16.8787 8.99861 17.0502 9.16802 17.1403 9.382C17.2304 9.59597 17.2319 9.837 17.1443 10.052C17.0568 10.2671 16.8874 10.4385 16.6734 10.5287C16.4594 10.6188 16.2184 10.6203 16.0033 10.5327C15.473 10.3179 14.906 10.2077 14.3338 10.2084Z" fill="#98A2B3"/>
</svg>
