<svg viewBox="0 0 28 28" fill="none" xmlns="http://www.w3.org/2000/svg">
<path opacity="0.5" d="M13.9998 26.8333C21.0873 26.8333 26.8332 21.0875 26.8332 14C26.8332 6.9125 21.0873 1.16666 13.9998 1.16666C6.91234 1.16666 1.1665 6.9125 1.1665 14C1.1665 16.0533 1.64834 17.9935 2.50584 19.7143C2.73334 20.1717 2.80917 20.6943 2.67734 21.1878L1.91317 24.0438C1.8376 24.3265 1.83772 24.6241 1.91349 24.9067C1.98926 25.1893 2.13804 25.4471 2.34488 25.654C2.55173 25.861 2.80937 26.0099 3.09195 26.0859C3.37453 26.1618 3.67211 26.1621 3.95484 26.0867L6.81317 25.3225C7.30848 25.1988 7.83189 25.2598 8.2855 25.494C10.0607 26.3775 12.017 26.836 13.9998 26.8333Z" fill="#98A2B3"/>
<path d="M12.7168 14C12.7168 14.3404 12.852 14.6668 13.0927 14.9075C13.3334 15.1481 13.6598 15.2833 14.0002 15.2833C14.3405 15.2833 14.6669 15.1481 14.9076 14.9075C15.1483 14.6668 15.2835 14.3404 15.2835 14C15.2835 13.6596 15.1483 13.3332 14.9076 13.0925C14.6669 12.8519 14.3405 12.7167 14.0002 12.7167C13.6598 12.7167 13.3334 12.8519 13.0927 13.0925C12.852 13.3332 12.7168 13.6596 12.7168 14ZM7.5835 14C7.5835 14.3404 7.7187 14.6668 7.95938 14.9075C8.20005 15.1481 8.52647 15.2833 8.86683 15.2833C9.20719 15.2833 9.53361 15.1481 9.77428 14.9075C10.015 14.6668 10.1502 14.3404 10.1502 14C10.1502 13.6596 10.015 13.3332 9.77428 13.0925C9.53361 12.8519 9.20719 12.7167 8.86683 12.7167C8.52647 12.7167 8.20005 12.8519 7.95938 13.0925C7.7187 13.3332 7.5835 13.6596 7.5835 14ZM17.8502 14C17.8502 14.3404 17.9854 14.6668 18.226 14.9075C18.4667 15.1481 18.7931 15.2833 19.1335 15.2833C19.4739 15.2833 19.8003 15.1481 20.0409 14.9075C20.2816 14.6668 20.4168 14.3404 20.4168 14C20.4168 13.6596 20.2816 13.3332 20.0409 13.0925C19.8003 12.8519 19.4739 12.7167 19.1335 12.7167C18.7931 12.7167 18.4667 12.8519 18.226 13.0925C17.9854 13.3332 17.8502 13.6596 17.8502 14Z" fill="#98A2B3"/>
</svg>
