<svg viewBox="0 0 28 28" fill="none" xmlns="http://www.w3.org/2000/svg">
<path opacity="0.5" d="M13.9998 18.6666C7.27979 18.6666 6.08979 11.9699 5.87979 6.65693C5.82145 5.17993 5.79112 4.44027 6.34645 3.75777C6.90179 3.0741 7.56562 2.9621 8.89445 2.7381C10.582 2.46166 12.2897 2.32625 13.9998 2.33327C16.08 2.33327 17.795 2.51643 19.1063 2.7381C20.434 2.9621 21.099 3.0741 21.6531 3.75777C22.2085 4.44143 22.1793 5.17993 22.1198 6.65693C21.9098 11.9688 20.7198 18.6666 13.9998 18.6666Z" fill="#98A2B3"/>
<path d="M20.5802 14.4923L23.8667 12.6664C24.744 12.1788 25.1827 11.9349 25.4253 11.5243C25.6668 11.1136 25.6668 10.6119 25.6668 9.60742V9.52225C25.6668 8.30542 25.6668 7.69642 25.3367 7.23792C25.0065 6.77942 24.429 6.58692 23.274 6.20192L22.1668 5.83325L22.147 5.93242C22.1408 6.15253 22.1322 6.39403 22.1213 6.65692C22.0187 9.25275 21.6815 12.1788 20.5813 14.4923M5.88016 6.65692C5.98166 9.25275 6.31883 12.1788 7.42016 14.4923L4.13366 12.6664C3.25633 12.1788 2.8165 11.9349 2.575 11.5243C2.3335 11.1136 2.3335 10.6119 2.3335 9.60742V9.52225C2.3335 8.30542 2.3335 7.69642 2.66366 7.23792C2.99383 6.77942 3.57133 6.58692 4.72633 6.20192L5.8335 5.83325L5.85333 5.93475C5.85955 6.15331 5.86811 6.39442 5.879 6.65808" fill="#98A2B3"/>
<path fill-rule="evenodd" clip-rule="evenodd" d="M6.125 25.6667C6.125 25.4347 6.21719 25.2121 6.38128 25.048C6.54538 24.8839 6.76794 24.7917 7 24.7917H21C21.2321 24.7917 21.4546 24.8839 21.6187 25.048C21.7828 25.2121 21.875 25.4347 21.875 25.6667C21.875 25.8988 21.7828 26.1214 21.6187 26.2855C21.4546 26.4496 21.2321 26.5417 21 26.5417H7C6.76794 26.5417 6.54538 26.4496 6.38128 26.2855C6.21719 26.1214 6.125 25.8988 6.125 25.6667Z" fill="#98A2B3"/>
<path opacity="0.5" d="M18.0343 24.7917H9.9668L10.3133 22.75C10.3661 22.4856 10.5089 22.2477 10.7174 22.0767C10.9258 21.9057 11.187 21.8122 11.4566 21.812H16.5433C16.8131 21.8119 17.0746 21.9053 17.2833 22.0763C17.492 22.2474 17.6349 22.4854 17.6878 22.75L18.0343 24.7917Z" fill="#98A2B3"/>
<path d="M14 18.6666C13.6967 18.6666 13.405 18.6534 13.125 18.627V21.812H14.875V18.627C14.5841 18.6539 14.2921 18.6671 14 18.6666Z" fill="#98A2B3"/>
<path fill-rule="evenodd" clip-rule="evenodd" d="M14.9182 6.77484C15.0781 6.84107 15.2148 6.95324 15.3109 7.09715C15.4071 7.24107 15.4584 7.41026 15.4583 7.58334V12.25C15.4583 12.4821 15.3662 12.7046 15.2021 12.8687C15.038 13.0328 14.8154 13.125 14.5833 13.125C14.3513 13.125 14.1287 13.0328 13.9646 12.8687C13.8005 12.7046 13.7083 12.4821 13.7083 12.25V9.69501L13.4517 9.95167C13.3716 10.0376 13.275 10.1066 13.1676 10.1544C13.0603 10.2022 12.9444 10.228 12.827 10.23C12.7095 10.2321 12.5928 10.2105 12.4838 10.1665C12.3749 10.1225 12.2759 10.057 12.1928 9.97389C12.1097 9.8908 12.0442 9.79182 12.0002 9.68287C11.9562 9.57392 11.9346 9.45722 11.9367 9.33973C11.9387 9.22225 11.9644 9.10638 12.0123 8.99905C12.0601 8.89171 12.129 8.79511 12.215 8.71501L13.965 6.96501C14.0873 6.84263 14.2431 6.75926 14.4128 6.72541C14.5824 6.69156 14.7583 6.70876 14.9182 6.77484Z" fill="#98A2B3"/>
</svg>
