<svg viewBox="0 0 28 28" fill="none" xmlns="http://www.w3.org/2000/svg">
<path d="M16.9168 25.6562V21.5833C16.9168 20.4925 16.9168 19.9477 16.6823 19.5417C16.5287 19.2756 16.3078 19.0547 16.0418 18.9012C15.6358 18.6667 15.091 18.6667 14.0002 18.6667C12.9093 18.6667 12.3645 18.6667 11.9585 18.9012C11.6925 19.0547 11.4716 19.2756 11.318 19.5417C11.0835 19.9477 11.0835 20.4925 11.0835 21.5833V25.6562H16.9168Z" fill="#98A2B3"/>
<path opacity="0.5" fill-rule="evenodd" clip-rule="evenodd" d="M6.6875 14C5.64916 14 4.72866 13.5613 4.0835 12.8718V16.3333C4.0835 20.7328 4.0835 22.9332 5.45083 24.2993C6.551 25.4007 8.19016 25.6142 11.0835 25.6562H16.9168C19.8102 25.6142 21.4493 25.3995 22.5495 24.2993C23.9168 22.9332 23.9168 20.7328 23.9168 16.3333V12.873C23.4477 13.3724 22.8449 13.7262 22.1802 13.8923C21.5155 14.0584 20.817 14.0297 20.1682 13.8096C19.5193 13.5896 18.9475 13.1875 18.521 12.6513C18.0944 12.1151 17.8312 11.4675 17.7627 10.7858L17.6775 9.93649C17.7279 10.4479 17.671 10.9642 17.5106 11.4524C17.3501 11.9406 17.0896 12.3899 16.7456 12.7717C16.4017 13.1535 15.9819 13.4594 15.513 13.6698C15.0442 13.8801 14.5366 13.9904 14.0227 13.9935C13.5088 13.9966 13 13.8925 12.5286 13.6877C12.0573 13.483 11.6338 13.1823 11.2853 12.8046C10.9368 12.427 10.6708 11.9808 10.5045 11.4946C10.3382 11.0084 10.2751 10.4928 10.3193 9.98083L10.2388 10.7858C10.1506 11.6665 9.73841 12.483 9.0822 13.0769C8.42599 13.6708 7.57256 13.9998 6.6875 14ZM16.9168 21.5833V25.6562H11.0835V21.5833C11.0835 20.4925 11.0835 19.9477 11.318 19.5417C11.4716 19.2756 11.6925 19.0547 11.9585 18.9012C12.3645 18.6667 12.9093 18.6667 14.0002 18.6667C15.091 18.6667 15.6358 18.6667 16.0418 18.9012C16.3078 19.0547 16.5287 19.2756 16.6823 19.5417C16.9168 19.9477 16.9168 20.4925 16.9168 21.5833Z" fill="#98A2B3"/>
<path d="M11.0833 2.33334H16.9167L17.6773 9.93651C17.7275 10.4496 17.6697 10.9674 17.5077 11.4568C17.3457 11.9462 17.083 12.3963 16.7367 12.7781C16.3904 13.1599 15.9679 13.465 15.4966 13.6739C15.0253 13.8827 14.5155 13.9905 14 13.9905C13.4845 13.9905 12.9747 13.8827 12.5034 13.6739C12.0321 13.465 11.6097 13.1599 11.2633 12.7781C10.917 12.3963 10.6544 11.9462 10.4924 11.4568C10.3304 10.9674 10.2726 10.4496 10.3227 9.93651L11.0833 2.33334Z" fill="#98A2B3"/>
<path opacity="0.7" d="M3.885 6.24284C4.09267 5.20451 4.1965 4.68534 4.40767 4.26418C4.62783 3.82543 4.93781 3.4379 5.31749 3.12676C5.69717 2.81562 6.13805 2.58783 6.6115 2.45818C7.0665 2.33334 7.59501 2.33334 8.65434 2.33334H11.0845L10.2387 10.7858C10.1927 11.2686 10.0489 11.7369 9.81598 12.1622C9.58307 12.5875 9.26596 12.9609 8.88399 13.2596C8.50202 13.5583 8.06319 13.7761 7.59429 13.8996C7.12538 14.0232 6.63623 14.0499 6.15666 13.9782C5.67708 13.9064 5.21715 13.7378 4.80492 13.4824C4.39268 13.2271 4.03678 12.8905 3.75893 12.4931C3.48108 12.0956 3.2871 11.6458 3.18883 11.171C3.09056 10.6961 3.09005 10.2062 3.18734 9.73118L3.885 6.24284ZM24.115 6.24284C23.9073 5.20451 23.8035 4.68534 23.5923 4.26418C23.3723 3.82556 23.0625 3.4381 22.683 3.12697C22.3036 2.81584 21.8629 2.58798 21.3897 2.45818C20.9347 2.33334 20.405 2.33334 19.3457 2.33334H16.9167L17.7625 10.7858C17.8071 11.2696 17.95 11.7391 18.1824 12.1657C18.4148 12.5923 18.7319 12.967 19.1141 13.2668C19.4963 13.5666 19.9357 13.7852 20.4054 13.9094C20.8751 14.0335 21.3651 14.0604 21.8456 13.9885C22.326 13.9166 22.7867 13.7475 23.1995 13.4914C23.6123 13.2353 23.9685 12.8976 24.2463 12.499C24.524 12.1005 24.7175 11.6494 24.8149 11.1735C24.9123 10.6976 24.9115 10.2068 24.8127 9.73118L24.115 6.24284Z" fill="#98A2B3"/>
</svg>
