<svg viewBox="0 0 28 28" fill="none" xmlns="http://www.w3.org/2000/svg">
<path opacity="0.5" fill-rule="evenodd" clip-rule="evenodd" d="M2.3335 14C2.3335 12.5568 2.3335 11.3038 2.36383 10.2083H25.6365C25.6668 11.3038 25.6668 12.5568 25.6668 14C25.6668 19.4997 25.6668 22.2495 23.9577 23.9575C22.2508 25.6667 19.4998 25.6667 14.0002 25.6667C8.5005 25.6667 5.75066 25.6667 4.0415 23.9575C2.3335 22.2507 2.3335 19.4997 2.3335 14Z" fill="#98A2B3"/>
<path d="M17.4999 16.9167C17.4999 16.1782 16.7276 15.68 15.1829 14.6825C13.6173 13.6722 12.8344 13.167 12.2499 13.5392C11.6666 13.909 11.6666 14.9112 11.6666 16.9167C11.6666 18.9222 11.6666 19.9243 12.2499 20.2953C12.8333 20.6663 13.6173 20.1612 15.1829 19.1508C16.7276 18.1533 17.4999 17.6552 17.4999 16.9167ZM13.9999 2.33334C16.1524 2.33334 17.8849 2.33334 19.2966 2.43601L15.2809 8.45834H9.80109L13.8844 2.33334H13.9999ZM4.04126 4.04134C5.50309 2.58068 7.72559 2.36951 11.7774 2.33801L7.69876 8.45834H2.45459C2.62609 6.40034 3.04142 5.04234 4.04126 4.04134ZM25.5453 8.45834C25.3726 6.40034 24.9584 5.04234 23.9586 4.04134C23.2609 3.34484 22.3906 2.93301 21.2309 2.68801L17.3844 8.45834H25.5453Z" fill="#98A2B3"/>
</svg>
