<svg viewBox="0 0 28 28" fill="none" xmlns="http://www.w3.org/2000/svg">
<path fill-rule="evenodd" clip-rule="evenodd" d="M1.50369 3.22351C1.57692 3.0034 1.73457 2.82138 1.94196 2.71746C2.14936 2.61355 2.38953 2.59624 2.60969 2.66934L2.91885 2.77318L2.96552 2.78834C3.69585 3.03218 4.31302 3.23751 4.79952 3.46384C5.31519 3.70418 5.76319 4.00051 6.10269 4.47301C6.44219 4.94318 6.58335 5.46234 6.64752 6.02818C6.70819 6.56018 6.70819 7.21118 6.70819 7.98118V11.0833C6.70819 12.7575 6.71052 13.9265 6.82835 14.8073C6.94385 15.6637 7.15502 16.1163 7.47702 16.4395C7.80019 16.7627 8.25402 16.9727 9.11035 17.0882C9.99119 17.206 11.159 17.2083 12.8332 17.2083H20.9999C21.1148 17.2083 21.2285 17.231 21.3347 17.2749C21.4409 17.3189 21.5373 17.3834 21.6186 17.4646C21.6998 17.5459 21.7643 17.6423 21.8082 17.7485C21.8522 17.8547 21.8749 17.9684 21.8749 18.0833C21.8749 18.1982 21.8522 18.312 21.8082 18.4182C21.7643 18.5244 21.6998 18.6208 21.6186 18.7021C21.5373 18.7833 21.4409 18.8478 21.3347 18.8917C21.2285 18.9357 21.1148 18.9583 20.9999 18.9583H12.769C11.1742 18.9583 9.88735 18.9583 8.87585 18.8218C7.82585 18.6818 6.94152 18.3785 6.23919 17.6773C5.53802 16.975 5.23585 16.0907 5.09469 15.0407C4.95819 14.0292 4.95819 12.7423 4.95819 11.1475V8.03018C4.95819 7.19834 4.95819 6.64768 4.90919 6.22651C4.86252 5.82751 4.78435 5.63501 4.68285 5.49618C4.58252 5.35618 4.42502 5.21968 4.06102 5.05051C3.67602 4.87201 3.15452 4.69584 2.36585 4.43218L2.05669 4.32951C1.83679 4.25604 1.65505 4.09829 1.55136 3.89092C1.44768 3.68355 1.43053 3.44351 1.50369 3.22351Z" fill="#98A2B3"/>
<path opacity="0.5" d="M6.70264 7C6.7073 7.30333 6.70925 7.63039 6.70847 7.98117V11.0833C6.70847 12.7575 6.7108 13.9265 6.82864 14.8073C6.84653 14.9357 6.86597 15.0554 6.88697 15.1667H18.6936C19.8125 15.1667 20.3713 15.1667 20.81 14.8773C21.2486 14.588 21.4691 14.0747 21.909 13.0457L22.4106 11.879C23.3545 9.674 23.8258 8.57383 23.3078 7.78633C22.7898 6.99883 21.5905 7 19.1918 7H6.70264Z" fill="#98A2B3"/>
<path d="M8.75 21C9.21413 21 9.65925 21.1844 9.98744 21.5126C10.3156 21.8408 10.5 22.2859 10.5 22.75C10.5 23.2141 10.3156 23.6592 9.98744 23.9874C9.65925 24.3156 9.21413 24.5 8.75 24.5C8.28587 24.5 7.84075 24.3156 7.51256 23.9874C7.18437 23.6592 7 23.2141 7 22.75C7 22.2859 7.18437 21.8408 7.51256 21.5126C7.84075 21.1844 8.28587 21 8.75 21ZM21 22.75C21 22.2859 20.8156 21.8408 20.4874 21.5126C20.1592 21.1844 19.7141 21 19.25 21C18.7859 21 18.3408 21.1844 18.0126 21.5126C17.6844 21.8408 17.5 22.2859 17.5 22.75C17.5 23.2141 17.6844 23.6592 18.0126 23.9874C18.3408 24.3156 18.7859 24.5 19.25 24.5C19.7141 24.5 20.1592 24.3156 20.4874 23.9874C20.8156 23.6592 21 23.2141 21 22.75Z" fill="#98A2B3"/>
</svg>
