<svg viewBox="0 0 28 28" fill="none" xmlns="http://www.w3.org/2000/svg">
<path opacity="0.5" d="M1.1665 15.7838C1.1665 10.339 1.1665 7.61717 2.85817 5.9255C4.54984 4.23383 7.27167 4.23383 12.7165 4.23383C18.1613 4.23383 20.8832 4.23383 22.5748 5.9255C24.2665 7.61717 24.2665 10.339 24.2665 15.7838C24.2665 21.2287 24.2665 23.9505 22.5748 25.6422C20.8832 27.3338 18.1613 27.3338 12.7165 27.3338C7.27167 27.3338 4.54984 27.3338 2.85817 25.6422C1.1665 23.9505 1.1665 21.2275 1.1665 15.7838Z" fill="#98A2B3"/>
<path d="M20.6151 2.22484L23.6402 4.8475C25.7227 6.65117 26.7646 7.55417 26.7646 8.72667C26.7646 9.898 25.7227 10.801 23.6402 12.6058L20.6151 15.2273C19.6992 16.0207 19.2419 16.4173 18.8674 16.2458C18.4917 16.0755 18.4917 15.4688 18.4917 14.2578V12.3013C15.4001 12.3013 12.1019 13.454 10.0917 15.4513C9.47923 16.058 9.17239 16.3625 9.01023 16.2855C8.84689 16.2085 8.88539 15.8153 8.96123 15.0302C9.71723 7.189 14.8657 5.15084 18.4917 5.15084V3.19667C18.4917 1.98334 18.4917 1.379 18.8674 1.2075C19.2419 1.036 19.6992 1.43267 20.6151 2.226" fill="#98A2B3"/>
</svg>
