<svg viewBox="0 0 28 28" fill="none" xmlns="http://www.w3.org/2000/svg">
<path opacity="0.5" d="M3.5 11.6666C3.5 7.26715 3.5 5.06681 4.86733 3.70065C6.23467 2.33448 8.43383 2.33331 12.8333 2.33331H15.1667C19.5662 2.33331 21.7665 2.33331 23.1327 3.70065C24.4988 5.06798 24.5 7.26715 24.5 11.6666V16.3333C24.5 20.7328 24.5 22.9331 23.1327 24.2993C21.7653 25.6655 19.5662 25.6666 15.1667 25.6666H12.8333C8.43383 25.6666 6.2335 25.6666 4.86733 24.2993C3.50117 22.932 3.5 20.7328 3.5 16.3333V11.6666Z" fill="#98A2B3"/>
<path d="M19.2724 19.2512C19.4766 19.0925 19.6621 18.907 20.0319 18.5372L24.6484 13.9195C24.7604 13.8087 24.7091 13.6162 24.5609 13.5637C23.8379 13.3131 23.1819 12.9005 22.6429 12.3574C22.0998 11.8184 21.6871 11.1623 21.4366 10.4394C21.3841 10.2912 21.1916 10.2399 21.0807 10.3519L16.4619 14.9684C16.0921 15.3382 15.9066 15.5237 15.7479 15.7279C15.5589 15.9697 15.3987 16.2287 15.2672 16.5049C15.1564 16.7382 15.0736 16.9879 14.9079 17.4849L14.6932 18.1265L14.3526 19.1474L14.0341 20.104C13.9944 20.2239 13.9888 20.3525 14.0179 20.4754C14.047 20.5983 14.1098 20.7107 14.1991 20.8C14.2884 20.8893 14.4008 20.9521 14.5237 20.9812C14.6466 21.0103 14.7752 21.0047 14.8951 20.965L15.8517 20.6465L16.8726 20.3059L17.5142 20.0912C18.0112 19.9255 18.2609 19.8439 18.4942 19.7319C18.7703 19.5996 19.0305 19.4394 19.2724 19.2512ZM26.0951 12.474C26.5683 12.0006 26.8341 11.3586 26.834 10.6892C26.8339 10.0198 26.5679 9.37787 26.0945 8.90461C25.6211 8.43135 24.979 8.16554 24.3097 8.16565C23.6403 8.16576 22.9983 8.43178 22.5251 8.90519L22.3781 9.05452C22.3071 9.12393 22.2542 9.20968 22.2241 9.30426C22.194 9.39885 22.1876 9.49937 22.2054 9.59702C22.2287 9.72186 22.2696 9.90619 22.3454 10.1244C22.4971 10.5619 22.7841 11.1359 23.3242 11.676C23.8644 12.2162 24.4384 12.5032 24.8759 12.6549C25.0952 12.7307 25.2784 12.7715 25.4032 12.7949C25.5009 12.8116 25.6011 12.8047 25.6955 12.7747C25.7899 12.7446 25.8758 12.6923 25.9457 12.6222L26.0951 12.474Z" fill="#98A2B3"/>
<path fill-rule="evenodd" clip-rule="evenodd" d="M8.4585 10.5C8.4585 10.2679 8.55068 10.0454 8.71478 9.88128C8.87887 9.71719 9.10143 9.625 9.3335 9.625H16.9168C17.1489 9.625 17.3715 9.71719 17.5355 9.88128C17.6996 10.0454 17.7918 10.2679 17.7918 10.5C17.7918 10.7321 17.6996 10.9546 17.5355 11.1187C17.3715 11.2828 17.1489 11.375 16.9168 11.375H9.3335C9.10143 11.375 8.87887 11.2828 8.71478 11.1187C8.55068 10.9546 8.4585 10.7321 8.4585 10.5ZM8.4585 15.1667C8.4585 14.9346 8.55068 14.712 8.71478 14.5479C8.87887 14.3839 9.10143 14.2917 9.3335 14.2917H12.8335C13.0656 14.2917 13.2881 14.3839 13.4522 14.5479C13.6163 14.712 13.7085 14.9346 13.7085 15.1667C13.7085 15.3987 13.6163 15.6213 13.4522 15.7854C13.2881 15.9495 13.0656 16.0417 12.8335 16.0417H9.3335C9.10143 16.0417 8.87887 15.9495 8.71478 15.7854C8.55068 15.6213 8.4585 15.3987 8.4585 15.1667ZM8.4585 19.8333C8.4585 19.6013 8.55068 19.3787 8.71478 19.2146C8.87887 19.0505 9.10143 18.9583 9.3335 18.9583H11.0835C11.3156 18.9583 11.5381 19.0505 11.7022 19.2146C11.8663 19.3787 11.9585 19.6013 11.9585 19.8333C11.9585 20.0654 11.8663 20.288 11.7022 20.4521C11.5381 20.6161 11.3156 20.7083 11.0835 20.7083H9.3335C9.10143 20.7083 8.87887 20.6161 8.71478 20.4521C8.55068 20.288 8.4585 20.0654 8.4585 19.8333Z" fill="#98A2B3"/>
</svg>
