<svg viewBox="0 0 28 28" fill="none" xmlns="http://www.w3.org/2000/svg">
<path opacity="0.5" d="M14.0002 25.6667C20.4437 25.6667 25.6668 20.4435 25.6668 14C25.6668 7.55654 20.4437 2.33337 14.0002 2.33337C7.55666 2.33337 2.3335 7.55654 2.3335 14C2.3335 20.4435 7.55666 25.6667 14.0002 25.6667Z" fill="#98A2B3"/>
<path d="M12.7515 8.82585C12.8407 8.7511 12.9141 8.65931 12.9674 8.55585C13.0207 8.45239 13.0528 8.33934 13.0619 8.22331C13.071 8.10728 13.0568 7.99061 13.0202 7.88012C12.9836 7.76964 12.9254 7.66756 12.8489 7.57987C12.7723 7.49218 12.6791 7.42063 12.5746 7.36942C12.4701 7.31821 12.3564 7.28836 12.2402 7.28162C12.124 7.27488 12.0077 7.29139 11.8979 7.33018C11.7882 7.36897 11.6873 7.42926 11.6012 7.50752L7.59134 11.0075C7.45718 11.1246 7.36195 11.2799 7.31837 11.4526C7.27479 11.6252 7.28494 11.8071 7.34746 11.9738C7.40997 12.1406 7.52188 12.2843 7.66824 12.3858C7.81459 12.4872 7.98842 12.5416 8.1665 12.5417H19.8332C20.0652 12.5417 20.2878 12.4495 20.4519 12.2854C20.616 12.1213 20.7082 11.8987 20.7082 11.6667C20.7082 11.4346 20.616 11.2121 20.4519 11.048C20.2878 10.8839 20.0652 10.7917 19.8332 10.7917H10.4998L12.7515 8.82585ZM8.1665 17.2083H17.4998L15.2482 19.1742C15.0787 19.3282 14.9763 19.5425 14.963 19.7712C14.9498 19.9998 15.0267 20.2245 15.1773 20.3971C15.3278 20.5697 15.5401 20.6763 15.7684 20.6942C15.9967 20.712 16.223 20.6396 16.3985 20.4925L20.4083 16.9925C20.5425 16.8754 20.6377 16.7201 20.6813 16.5475C20.7249 16.3748 20.7147 16.1929 20.6522 16.0262C20.5897 15.8594 20.4778 15.7157 20.3314 15.6143C20.1851 15.5128 20.0113 15.4584 19.8332 15.4583H8.1665C7.93444 15.4583 7.71188 15.5505 7.54779 15.7146C7.38369 15.8787 7.2915 16.1013 7.2915 16.3333C7.2915 16.5654 7.38369 16.788 7.54779 16.9521C7.71188 17.1162 7.93444 17.2083 8.1665 17.2083Z" fill="#98A2B3"/>
</svg>
