<svg viewBox="0 0 28 28" fill="none" xmlns="http://www.w3.org/2000/svg">
<path opacity="0.5" d="M14.0002 25.6666C20.4437 25.6666 25.6668 20.4435 25.6668 14C25.6668 7.55648 20.4437 2.33331 14.0002 2.33331C7.55666 2.33331 2.3335 7.55648 2.3335 14C2.3335 20.4435 7.55666 25.6666 14.0002 25.6666Z" fill="#98A2B3"/>
<path fill-rule="evenodd" clip-rule="evenodd" d="M14 8.45831C14.2321 8.45831 14.4546 8.5505 14.6187 8.71459C14.7828 8.87869 14.875 9.10125 14.875 9.33331V13.6383L17.535 16.2983C17.621 16.3784 17.6899 16.475 17.7377 16.5824C17.7856 16.6897 17.8113 16.8056 17.8134 16.923C17.8154 17.0405 17.7938 17.1572 17.7498 17.2662C17.7058 17.3751 17.6403 17.4741 17.5572 17.5572C17.4741 17.6403 17.3752 17.7058 17.2662 17.7498C17.1572 17.7938 17.0405 17.8154 16.9231 17.8133C16.8056 17.8113 16.6897 17.7855 16.5824 17.7377C16.475 17.6899 16.3784 17.6209 16.2983 17.535L13.3817 14.6183C13.2175 14.4544 13.1252 14.232 13.125 14V9.33331C13.125 9.10125 13.2172 8.87869 13.3813 8.71459C13.5454 8.5505 13.7679 8.45831 14 8.45831Z" fill="#98A2B3"/>
</svg>
