<svg viewBox="0 0 28 28" fill="none" xmlns="http://www.w3.org/2000/svg">
<path opacity="0.5" fill-rule="evenodd" clip-rule="evenodd" d="M25.6668 14C25.6668 20.4435 20.4437 25.6667 14.0002 25.6667C7.55666 25.6667 2.3335 20.4435 2.3335 14C2.3335 7.55654 7.55666 2.33337 14.0002 2.33337C20.4437 2.33337 25.6668 7.55654 25.6668 14Z" fill="#98A2B3"/>
<path d="M14.875 7C14.875 6.76794 14.7828 6.54538 14.6187 6.38128C14.4546 6.21719 14.2321 6.125 14 6.125C13.7679 6.125 13.5454 6.21719 13.3813 6.38128C13.2172 6.54538 13.125 6.76794 13.125 7V7.36983C11.2233 7.7105 9.625 9.13967 9.625 11.0833C9.625 13.3198 11.7402 14.875 14 14.875C15.6065 14.875 16.625 15.932 16.625 16.9167C16.625 17.9013 15.6065 18.9583 14 18.9583C12.3947 18.9583 11.375 17.9013 11.375 16.9167C11.375 16.6846 11.2828 16.462 11.1187 16.2979C10.9546 16.1339 10.7321 16.0417 10.5 16.0417C10.2679 16.0417 10.0454 16.1339 9.88128 16.2979C9.71719 16.462 9.625 16.6846 9.625 16.9167C9.625 18.8603 11.2233 20.2895 13.125 20.6302V21C13.125 21.2321 13.2172 21.4546 13.3813 21.6187C13.5454 21.7828 13.7679 21.875 14 21.875C14.2321 21.875 14.4546 21.7828 14.6187 21.6187C14.7828 21.4546 14.875 21.2321 14.875 21V20.6302C16.7767 20.2895 18.375 18.8603 18.375 16.9167C18.375 14.6802 16.2598 13.125 14 13.125C12.3947 13.125 11.375 12.068 11.375 11.0833C11.375 10.0987 12.3947 9.04167 14 9.04167C15.6065 9.04167 16.625 10.0987 16.625 11.0833C16.625 11.3154 16.7172 11.538 16.8813 11.7021C17.0454 11.8661 17.2679 11.9583 17.5 11.9583C17.7321 11.9583 17.9546 11.8661 18.1187 11.7021C18.2828 11.538 18.375 11.3154 18.375 11.0833C18.375 9.13967 16.7767 7.7105 14.875 7.36983V7Z" fill="#98A2B3"/>
</svg>
