<svg viewBox="0 0 28 28" fill="none" xmlns="http://www.w3.org/2000/svg">
<path fill-rule="evenodd" clip-rule="evenodd" d="M21.0002 16.3334C21.0006 17.9104 20.6014 19.4619 19.8398 20.843C19.0782 22.224 17.9791 23.3895 16.6451 24.2307C15.311 25.0719 13.7856 25.5613 12.2112 25.6533C10.6368 25.7453 9.06473 25.4368 7.64183 24.7567C7.22698 24.5478 6.75117 24.494 6.30016 24.605L4.86866 24.9889C4.61161 25.0574 4.34104 25.0572 4.08411 24.9882C3.82718 24.9191 3.59292 24.7837 3.40486 24.5956C3.2168 24.4074 3.08155 24.173 3.01268 23.9161C2.94381 23.6591 2.94374 23.3885 3.01249 23.1315L3.39516 21.7C3.50614 21.249 3.45235 20.7732 3.24349 20.3584C2.6403 19.0944 2.3293 17.7108 2.33354 16.3103C2.33778 14.9098 2.65716 13.5282 3.268 12.2679C3.87885 11.0075 4.76549 9.90087 5.86222 9.02984C6.95896 8.15882 8.23765 7.54578 9.60354 7.23617C10.9694 6.92656 12.3875 6.92831 13.7526 7.24129C15.1177 7.55427 16.3949 8.17047 17.4895 9.0442C18.584 9.91793 19.4679 11.0268 20.0757 12.2886C20.6834 13.5504 20.9994 14.9328 21.0002 16.3334ZM7.58349 17.5C7.89291 17.5 8.18966 17.3771 8.40845 17.1583C8.62724 16.9395 8.75016 16.6428 8.75016 16.3334C8.75016 16.0239 8.62724 15.7272 8.40845 15.5084C8.18966 15.2896 7.89291 15.1667 7.58349 15.1667C7.27408 15.1667 6.97733 15.2896 6.75854 15.5084C6.53974 15.7272 6.41683 16.0239 6.41683 16.3334C6.41683 16.6428 6.53974 16.9395 6.75854 17.1583C6.97733 17.3771 7.27408 17.5 7.58349 17.5ZM11.6668 17.5C11.9762 17.5 12.273 17.3771 12.4918 17.1583C12.7106 16.9395 12.8335 16.6428 12.8335 16.3334C12.8335 16.0239 12.7106 15.7272 12.4918 15.5084C12.273 15.2896 11.9762 15.1667 11.6668 15.1667C11.3574 15.1667 11.0607 15.2896 10.8419 15.5084C10.6231 15.7272 10.5002 16.0239 10.5002 16.3334C10.5002 16.6428 10.6231 16.9395 10.8419 17.1583C11.0607 17.3771 11.3574 17.5 11.6668 17.5ZM15.7502 17.5C16.0596 17.5 16.3563 17.3771 16.5751 17.1583C16.7939 16.9395 16.9168 16.6428 16.9168 16.3334C16.9168 16.0239 16.7939 15.7272 16.5751 15.5084C16.3563 15.2896 16.0596 15.1667 15.7502 15.1667C15.4407 15.1667 15.144 15.2896 14.9252 15.5084C14.7064 15.7272 14.5835 16.0239 14.5835 16.3334C14.5835 16.6428 14.7064 16.9395 14.9252 17.1583C15.144 17.3771 15.4407 17.5 15.7502 17.5Z" fill="#98A2B3"/>
<path opacity="0.6" d="M20.9816 16.926C21.1076 16.8744 21.2321 16.8191 21.3549 16.7603C21.6944 16.597 22.0806 16.5398 22.4446 16.6378L23.6066 16.9493C23.8156 17.0055 24.0357 17.0057 24.2448 16.9497C24.4539 16.8938 24.6446 16.7838 24.7976 16.6307C24.9507 16.4777 25.0607 16.287 25.1166 16.0779C25.1726 15.8688 25.1724 15.6487 25.1162 15.4396L24.8047 14.2776C24.7145 13.911 24.7579 13.5243 24.9272 13.1868C25.3537 12.2741 25.594 11.2855 25.6341 10.2788C25.6742 9.27219 25.5133 8.26764 25.1609 7.32385C24.8084 6.38007 24.2714 5.51597 23.5813 4.78204C22.8911 4.0481 22.0617 3.45903 21.1413 3.04925C20.221 2.63946 19.2282 2.41716 18.221 2.39533C17.2138 2.37351 16.2123 2.5526 15.2751 2.92214C14.3379 3.29168 13.4837 3.84427 12.7624 4.54762C12.0411 5.25098 11.4672 6.091 11.0742 7.01863C11.2702 7.00619 11.4678 6.99997 11.6669 6.99997C12.9425 6.99995 14.2046 7.2614 15.3752 7.7682C16.5458 8.275 17.6001 9.01637 18.473 9.94655C19.3459 10.8767 20.0188 11.976 20.4503 13.1764C20.8817 14.3768 21.0626 15.6529 20.9816 16.926Z" fill="#98A2B3"/>
</svg>
