<svg viewBox="0 0 28 28" fill="none" xmlns="http://www.w3.org/2000/svg">
<path fill-rule="evenodd" clip-rule="evenodd" d="M4.6665 10.5C4.89857 10.5 5.12113 10.5922 5.28522 10.7563C5.44932 10.9204 5.5415 11.1429 5.5415 11.375V12.5417C5.5415 13.6524 5.76029 14.7523 6.18536 15.7785C6.61043 16.8047 7.23346 17.7372 8.01889 18.5226C8.80432 19.308 9.73676 19.9311 10.763 20.3561C11.7892 20.7812 12.8891 21 13.9998 21C15.1106 21 16.2105 20.7812 17.2367 20.3561C18.2629 19.9311 19.1954 19.308 19.9808 18.5226C20.7662 17.7372 21.3892 16.8047 21.8143 15.7785C22.2394 14.7523 22.4582 13.6524 22.4582 12.5417V11.375C22.4582 11.1429 22.5504 10.9204 22.7145 10.7563C22.8785 10.5922 23.1011 10.5 23.3332 10.5C23.5652 10.5 23.7878 10.5922 23.9519 10.7563C24.116 10.9204 24.2082 11.1429 24.2082 11.375V12.5417C24.2082 15.0977 23.2494 17.5607 21.5213 19.4439C19.7932 21.3272 17.4214 22.4936 14.8748 22.7127V25.375C14.8748 25.6071 14.7826 25.8296 14.6186 25.9937C14.4545 26.1578 14.2319 26.25 13.9998 26.25C13.7678 26.25 13.5452 26.1578 13.3811 25.9937C13.217 25.8296 13.1248 25.6071 13.1248 25.375V22.7127C10.5783 22.4936 8.20652 21.3272 6.47838 19.4439C4.75024 17.5607 3.79144 15.0977 3.7915 12.5417V11.375C3.7915 11.1429 3.88369 10.9204 4.04779 10.7563C4.21188 10.5922 4.43444 10.5 4.6665 10.5Z" fill="#98A2B3"/>
<path opacity="0.5" d="M13.9998 2.33337C12.2207 2.33337 10.5144 3.04014 9.25634 4.2982C7.99828 5.55626 7.29151 7.26255 7.29151 9.04171V12.5417C7.28895 14.2467 7.93571 15.8887 9.10034 17.134C10.265 18.3793 11.8601 19.1343 13.5614 19.2458C15.2628 19.3572 16.9428 18.8166 18.2599 17.7339C19.577 16.6511 20.4323 15.1075 20.6522 13.4167H15.1665C14.9344 13.4167 14.7119 13.3245 14.5478 13.1604C14.3837 12.9963 14.2915 12.7738 14.2915 12.5417C14.2915 12.3096 14.3837 12.0871 14.5478 11.923C14.7119 11.7589 14.9344 11.6667 15.1665 11.6667H20.7082V9.91671H15.1665C14.9344 9.91671 14.7119 9.82452 14.5478 9.66043C14.3837 9.49633 14.2915 9.27377 14.2915 9.04171C14.2915 8.80964 14.3837 8.58708 14.5478 8.42299C14.7119 8.25889 14.9344 8.16671 15.1665 8.16671H20.651C20.4387 6.55298 19.647 5.07149 18.4233 3.99827C17.1996 2.92506 15.6275 2.33334 13.9998 2.33337Z" fill="#98A2B3"/>
<path d="M14.2915 12.5416C14.2915 13.0246 14.6835 13.4166 15.1665 13.4166H20.651L20.7082 11.6666H15.1665C14.9344 11.6666 14.7119 11.7588 14.5478 11.9229C14.3837 12.087 14.2915 12.3096 14.2915 12.5416ZM14.2915 9.04163C14.2915 9.52463 14.6835 9.91663 15.1665 9.91663H20.7082L20.651 8.16663H15.1665C14.9344 8.16663 14.7119 8.25881 14.5478 8.42291C14.3837 8.587 14.2915 8.80956 14.2915 9.04163Z" fill="#98A2B3"/>
</svg>
