<svg viewBox="0 0 28 28" fill="none" xmlns="http://www.w3.org/2000/svg">
<path fill-rule="evenodd" clip-rule="evenodd" d="M2.3335 24.7917C2.10143 24.7917 1.87887 24.8839 1.71478 25.0479C1.55068 25.212 1.4585 25.4346 1.4585 25.6667C1.4585 25.8987 1.55068 26.1213 1.71478 26.2854C1.87887 26.4495 2.10143 26.5417 2.3335 26.5417H25.6668C25.8989 26.5417 26.1215 26.4495 26.2855 26.2854C26.4496 26.1213 26.5418 25.8987 26.5418 25.6667C26.5418 25.4346 26.4496 25.212 26.2855 25.0479C26.1215 24.8839 25.8989 24.7917 25.6668 24.7917H19.8335V18.6667C19.8335 16.4663 19.8335 15.3673 19.1498 14.6837C18.4662 14 17.3672 14 15.1668 14H12.8335C10.6332 14 9.53416 14 8.8505 14.6837C8.16683 15.3673 8.16683 16.4663 8.16683 18.6667V24.7917H2.3335ZM10.7918 17.5C10.7918 17.2679 10.884 17.0454 11.0481 16.8813C11.2122 16.7172 11.4348 16.625 11.6668 16.625H16.3335C16.5656 16.625 16.7881 16.7172 16.9522 16.8813C17.1163 17.0454 17.2085 17.2679 17.2085 17.5C17.2085 17.7321 17.1163 17.9546 16.9522 18.1187C16.7881 18.2828 16.5656 18.375 16.3335 18.375H11.6668C11.4348 18.375 11.2122 18.2828 11.0481 18.1187C10.884 17.9546 10.7918 17.7321 10.7918 17.5ZM10.7918 21C10.7918 20.7679 10.884 20.5454 11.0481 20.3813C11.2122 20.2172 11.4348 20.125 11.6668 20.125H16.3335C16.5656 20.125 16.7881 20.2172 16.9522 20.3813C17.1163 20.5454 17.2085 20.7679 17.2085 21C17.2085 21.2321 17.1163 21.4546 16.9522 21.6187C16.7881 21.7828 16.5656 21.875 16.3335 21.875H11.6668C11.4348 21.875 11.2122 21.7828 11.0481 21.6187C10.884 21.4546 10.7918 21.2321 10.7918 21Z" fill="#98A2B3"/>
<path opacity="0.5" d="M9.33333 5.25C10.4335 5.25 10.983 5.25 11.3248 5.59183C11.6667 5.93367 11.6667 6.48317 11.6667 7.58333V9.674C11.8487 9.76267 12.0097 9.877 12.1497 10.017C12.621 10.4883 12.768 11.158 12.8135 12.25V14C10.6272 14 9.53167 14.0023 8.85033 14.6837C8.16667 15.3673 8.16667 16.4663 8.16667 18.6667V24.7917H3.5V14C3.5 11.7997 3.5 10.7007 4.18367 10.017C4.324 9.87605 4.48734 9.76005 4.66667 9.674V7.58333C4.66667 6.48317 4.66667 5.93367 5.0085 5.59183C5.35033 5.25 5.89983 5.25 7 5.25H7.29167V3.5C7.29167 3.26794 7.38385 3.04538 7.54795 2.88128C7.71204 2.71719 7.9346 2.625 8.16667 2.625C8.39873 2.625 8.62129 2.71719 8.78539 2.88128C8.94948 3.04538 9.04167 3.26794 9.04167 3.5V5.25H9.33333ZM24.0847 6.1215C23.6693 5.52183 22.9367 5.2465 21.4713 4.69817C18.6072 3.62367 17.1757 3.087 16.1712 3.78233C15.1667 4.48 15.1667 6.00833 15.1667 9.06733V14C17.367 14 18.466 14 19.1497 14.6837C19.8333 15.3673 19.8333 16.4663 19.8333 18.6667V24.7917H24.5V9.06733C24.5 7.504 24.5 6.72117 24.0847 6.1215Z" fill="#98A2B3"/>
</svg>
