<svg viewBox="0 0 28 28" fill="none" xmlns="http://www.w3.org/2000/svg">
<path d="M23.6483 18.9759L24.4708 14.2159C24.519 13.9369 24.5058 13.6507 24.4319 13.3774C24.358 13.1041 24.2253 12.8502 24.0431 12.6335C23.8608 12.4168 23.6335 12.2426 23.3768 12.1229C23.1202 12.0033 22.8406 11.9412 22.5574 11.9409H16.5118C16.3708 11.9407 16.2316 11.9099 16.1037 11.8506C15.9758 11.7913 15.8624 11.7048 15.7713 11.5973C15.6801 11.4897 15.6135 11.3636 15.576 11.2278C15.5384 11.0919 15.5309 10.9495 15.5539 10.8104L16.3274 6.09122C16.4524 5.32496 16.4166 4.54109 16.2224 3.78939C16.1385 3.47893 15.9777 3.19464 15.7548 2.96279C15.5319 2.73094 15.2542 2.55901 14.9473 2.46289L14.7781 2.40805C14.3959 2.28598 13.9816 2.31435 13.6196 2.48739C13.2229 2.67872 12.9336 3.02755 12.8263 3.44172L12.2709 5.58139C12.0944 6.26238 11.8375 6.91995 11.5056 7.54022C11.0203 8.44672 10.2713 9.17355 9.4931 9.84438L7.8131 11.2911C7.5802 11.4923 7.3983 11.7459 7.2823 12.031C7.16631 12.3161 7.11952 12.6247 7.14577 12.9314L8.09427 23.8899C8.13601 24.3743 8.3578 24.8255 8.7159 25.1545C9.07399 25.4834 9.54236 25.6662 10.0286 25.6667H15.4524C19.5136 25.6667 22.9798 22.8364 23.6471 18.9759" fill="#98A2B3"/>
<path opacity="0.5" fill-rule="evenodd" clip-rule="evenodd" d="M3.46276 11.0658C3.68823 11.0559 3.90879 11.1336 4.07836 11.2825C4.24794 11.4314 4.35341 11.6401 4.37276 11.8649L5.50442 24.9736C5.52359 25.1688 5.50277 25.3659 5.44322 25.5528C5.38368 25.7397 5.28666 25.9125 5.15809 26.0606C5.02952 26.2087 4.87211 26.3291 4.69546 26.4144C4.51881 26.4996 4.32664 26.548 4.13068 26.5565C3.93471 26.565 3.73908 26.5334 3.55571 26.4638C3.37235 26.3941 3.2051 26.2878 3.0642 26.1514C2.9233 26.0149 2.81169 25.8512 2.73619 25.6701C2.66069 25.4891 2.62289 25.2946 2.62509 25.0984V11.9396C2.62519 11.7141 2.71237 11.4973 2.86844 11.3345C3.02451 11.1717 3.23743 11.0754 3.46276 11.0658Z" fill="#98A2B3"/>
</svg>
