<svg viewBox="0 0 28 28" fill="none" xmlns="http://www.w3.org/2000/svg">
<path opacity="0.5" d="M14.0002 2.33337C7.55666 2.33337 2.3335 7.55654 2.3335 14C2.3335 14.413 2.3545 14.8206 2.3965 15.2227C2.80483 15.5774 5.095 17.5 7.00016 17.5C8.41416 17.5 10.0405 16.4407 10.9517 15.75L10.9633 15.7395C10.635 15.1663 10.4756 14.5119 10.5036 13.8519C10.5315 13.1919 10.7457 12.5533 11.1213 12.0099C11.4969 11.4665 12.0186 11.0405 12.6261 10.7811C13.2337 10.5218 13.9022 10.4396 14.5544 10.5442C15.2067 10.6487 15.816 10.9357 16.312 11.372C16.808 11.8083 17.1705 12.376 17.3574 13.0096C17.5443 13.6432 17.5481 14.3167 17.3684 14.9524C17.1887 15.588 16.8327 16.1598 16.3417 16.6017C16.89 17.0824 17.6063 17.5 18.4393 17.5C20.411 17.5 20.411 15.1667 22.3827 15.1667C23.6392 15.1667 24.6285 16.1164 25.1815 16.8035L25.2888 16.9575C25.535 16.0125 25.6668 15.022 25.6668 14C25.6668 7.55654 20.4437 2.33337 14.0002 2.33337Z" fill="#98A2B3"/>
<path d="M22.7815 6.31989L22.7138 6.38172L21.5472 7.54839C21.4612 7.6285 21.3922 7.7251 21.3444 7.83243C21.2966 7.93976 21.2709 8.05563 21.2688 8.17311C21.2667 8.2906 21.2883 8.4073 21.3323 8.51625C21.3764 8.62521 21.4419 8.72418 21.5249 8.80727C21.608 8.89036 21.707 8.95586 21.816 8.99987C21.9249 9.04387 22.0416 9.06549 22.1591 9.06341C22.2766 9.06134 22.3925 9.03563 22.4998 8.9878C22.6071 8.93998 22.7037 8.87103 22.7838 8.78506L23.8397 7.73039C23.5215 7.23261 23.1688 6.76245 22.7815 6.31989ZM6.31866 5.21739C6.3381 5.24072 6.35871 5.26328 6.38049 5.28506L7.54716 6.45172C7.71303 6.60628 7.93242 6.69043 8.1591 6.68643C8.38579 6.68243 8.60207 6.5906 8.76238 6.43028C8.9227 6.26997 9.01453 6.05368 9.01853 5.827C9.02253 5.60032 8.93838 5.38093 8.78382 5.21506L7.72916 4.15922C7.23138 4.47811 6.76121 4.83084 6.31866 5.21739ZM12.2138 5.28506C12.1279 5.20495 12.0589 5.10835 12.0111 5.00102C11.9633 4.89369 11.9375 4.77782 11.9355 4.66033C11.9334 4.54285 11.955 4.42615 11.999 4.31719C12.043 4.20824 12.1085 4.10927 12.1916 4.02618C12.2747 3.94309 12.3737 3.87759 12.4826 3.83358C12.5916 3.78957 12.7083 3.76796 12.8258 3.77003C12.9433 3.77211 13.0591 3.79782 13.1665 3.84565C13.2738 3.89347 13.3704 3.96242 13.4505 4.04839L14.6172 5.21506C14.7031 5.29516 14.7721 5.39176 14.8199 5.4991C14.8677 5.60643 14.8934 5.72229 14.8955 5.83978C14.8976 5.95727 14.876 6.07397 14.832 6.18292C14.788 6.29187 14.7225 6.39085 14.6394 6.47394C14.5563 6.55702 14.4573 6.62253 14.3484 6.66653C14.2394 6.71054 14.1227 6.73215 14.0052 6.73008C13.8877 6.72801 13.7719 6.70229 13.6645 6.65447C13.5572 6.60664 13.4606 6.53769 13.3805 6.45172L12.2138 5.28506ZM19.3667 6.35839C19.5059 6.17274 19.5657 5.93938 19.5329 5.70965C19.5 5.47991 19.3773 5.27263 19.1917 5.13339C19.006 4.99415 18.7726 4.93437 18.5429 4.96718C18.3132 5 18.1059 5.12274 17.9667 5.30839L16.2167 7.64172C16.1477 7.73365 16.0976 7.83825 16.069 7.94957C16.0405 8.06088 16.0342 8.17672 16.0505 8.29047C16.0667 8.40422 16.1052 8.51366 16.1637 8.61253C16.2223 8.7114 16.2997 8.79778 16.3917 8.86672C16.4836 8.93567 16.5882 8.98583 16.6995 9.01435C16.8108 9.04287 16.9266 9.04918 17.0404 9.03293C17.1542 9.01668 17.2636 8.97818 17.3625 8.91964C17.4613 8.86109 17.5477 8.78365 17.6167 8.69172L19.3667 6.35839ZM9.81049 8.82006C9.87064 9.044 10.0172 9.2349 10.218 9.35084C10.4189 9.46678 10.6575 9.49827 10.8815 9.43839L12.4752 9.01139C12.692 8.94507 12.8746 8.79716 12.9846 8.59882C13.0945 8.40048 13.1231 8.16721 13.0644 7.94817C13.0058 7.72913 12.8643 7.54144 12.6699 7.42464C12.4756 7.30784 12.2434 7.27106 12.0225 7.32206L10.4288 7.74906C10.2049 7.80921 10.014 7.95579 9.89804 8.15661C9.7821 8.35742 9.75061 8.59604 9.81049 8.82006ZM20.3758 12.0797C20.3867 12.3116 20.3049 12.5383 20.1486 12.71C19.9923 12.8816 19.7741 12.9841 19.5422 12.995C19.3103 13.0058 19.0836 12.9241 18.912 12.7677C18.7403 12.6114 18.6378 12.3933 18.627 12.1614L18.55 10.5152C18.5444 10.2866 18.6285 10.0648 18.7843 9.89741C18.9402 9.73002 19.1554 9.63031 19.3839 9.61964C19.6124 9.60896 19.8359 9.68816 20.0067 9.84029C20.1775 9.99242 20.2819 10.2054 20.2977 10.4336L20.3758 12.0797ZM21.5087 14.0689C21.5846 14.1552 21.6768 14.2257 21.7801 14.2763C21.8833 14.327 21.9955 14.3568 22.1102 14.364C22.2249 14.3713 22.34 14.3558 22.4488 14.3186C22.5575 14.2814 22.6579 14.2231 22.7442 14.1471L24.7018 12.4227C24.876 12.2693 24.9821 12.0529 24.9968 11.8212C25.0114 11.5895 24.9335 11.3614 24.78 11.1872C24.6265 11.013 24.4101 10.9069 24.1784 10.8923C23.9467 10.8776 23.7187 10.9556 23.5445 11.1091L21.5868 12.8334C21.5005 12.9094 21.43 13.0016 21.3794 13.1048C21.3288 13.208 21.299 13.3202 21.2917 13.4349C21.2844 13.5497 21.2999 13.6647 21.3371 13.7735C21.3743 13.8823 21.4326 13.9827 21.5087 14.0689ZM6.44466 9.52822C6.3927 9.42306 6.36243 9.30852 6.35562 9.19142C6.34882 9.07431 6.36563 8.95704 6.40506 8.84656C6.44449 8.73609 6.50573 8.63467 6.58513 8.54834C6.66454 8.462 6.76049 8.39251 6.86729 8.344C6.97409 8.29549 7.08955 8.26895 7.20682 8.26596C7.32408 8.26296 7.44074 8.28358 7.54988 8.32657C7.65901 8.36957 7.75839 8.43407 7.8421 8.51624C7.92581 8.59841 7.99214 8.69657 8.03716 8.80489L8.71966 10.3052C8.80965 10.5154 8.81378 10.7525 8.73117 10.9657C8.64855 11.1789 8.48575 11.3514 8.27761 11.446C8.06948 11.5407 7.83255 11.5502 7.61753 11.4724C7.40251 11.3946 7.2265 11.2357 7.12716 11.0297L6.44466 9.52822ZM8.09899 12.7109C8.28615 12.848 8.4112 13.0538 8.44664 13.2831C8.48208 13.5124 8.42502 13.7463 8.28799 13.9336L7.31382 15.2647C7.24696 15.36 7.16177 15.4409 7.06323 15.5029C6.96469 15.5648 6.85479 15.6065 6.73996 15.6254C6.62513 15.6443 6.50767 15.6402 6.39447 15.6131C6.28127 15.5861 6.17459 15.5368 6.08069 15.468C5.98679 15.3993 5.90755 15.3125 5.84761 15.2127C5.78767 15.1129 5.74823 15.0022 5.7316 14.887C5.71498 14.7718 5.7215 14.6545 5.75078 14.5419C5.78007 14.4292 5.83153 14.3236 5.90216 14.2311L6.87632 12.9011C7.01325 12.7137 7.21899 12.5884 7.44828 12.5528C7.67757 12.5171 7.91163 12.574 8.09899 12.7109ZM3.33082 10.4767C3.32084 10.3601 3.33436 10.2426 3.37059 10.1313C3.40682 10.02 3.46502 9.91707 3.54175 9.82865C3.61847 9.74023 3.71215 9.6681 3.81725 9.61654C3.92235 9.56498 4.03673 9.53504 4.15362 9.52848C4.2705 9.52192 4.38751 9.53888 4.49772 9.57836C4.60793 9.61784 4.70909 9.67903 4.79522 9.75831C4.88136 9.8376 4.95071 9.93336 4.99916 10.0399C5.04762 10.1465 5.0742 10.2617 5.07732 10.3787L5.16949 12.0261C5.18233 12.2578 5.10258 12.4852 4.94779 12.6581C4.79299 12.8311 4.57583 12.9355 4.34407 12.9483C4.11232 12.9611 3.88496 12.8814 3.712 12.7266C3.53904 12.5718 3.43467 12.3546 3.42182 12.1229L3.33082 10.4767Z" fill="#98A2B3"/>
<path d="M6.99996 17.5C8.41396 17.5 10.0415 16.4406 10.9526 15.75L10.9631 15.7395C11.2227 16.1927 11.5805 16.5821 12.0101 16.8791C12.4398 17.1761 12.9305 17.3732 13.4463 17.4558C13.962 17.5385 14.4897 17.5047 14.9907 17.3569C15.4917 17.2091 15.9532 16.951 16.3415 16.6016C16.8898 17.0823 17.6073 17.5 18.4403 17.5C19.4261 17.5 19.9185 16.9166 20.412 16.3333C20.9043 15.75 21.3966 15.1666 22.3825 15.1666C23.639 15.1666 24.6295 16.1163 25.1813 16.8035L25.2886 16.9575L25.2315 17.1698C24.6015 16.632 23.5515 16.6506 22.7255 17.2608C22.0243 17.78 21.6836 18.5791 21.8003 19.2745L21.6813 19.3923L21.2916 18.865C20.573 17.8943 19.0435 17.808 17.8733 18.6725C16.7031 19.5381 16.338 21.0268 17.0566 21.9975L17.2725 22.2891L17.0566 22.5061C16.4581 22.3171 15.7173 22.4431 15.1025 22.8993C14.1715 23.5876 14.0116 24.8745 14.574 25.6526C14.3828 25.662 14.1914 25.6667 14 25.6666C7.97063 25.6666 3.00879 21.091 2.39746 15.2226C2.80463 15.5773 5.09479 17.5 6.99996 17.5Z" fill="#98A2B3"/>
</svg>
