<svg viewBox="0 0 28 28" fill="none" xmlns="http://www.w3.org/2000/svg">
<path opacity="0.5" d="M16.394 2.33337C18.354 2.33337 19.9057 2.33337 21.1213 2.49904C22.372 2.67054 23.3847 3.03104 24.1827 3.84304C24.9807 4.65504 25.3353 5.68637 25.5033 6.95804C25.6667 8.19471 25.6667 9.77437 25.6667 11.7682V16.2319C25.6667 18.2269 25.6667 19.8065 25.5033 21.042C25.3353 22.3137 24.9807 23.345 24.1827 24.157C23.3847 24.969 22.372 25.3295 21.1213 25.501C19.9068 25.6667 18.354 25.6667 16.394 25.6667H16.2727C14.3127 25.6667 12.761 25.6667 11.5453 25.501C10.2947 25.3295 9.282 24.969 8.484 24.157C7.686 23.345 7.33133 22.3137 7.16333 21.042C7 19.8054 7 18.2257 7 16.2319V11.7682C7 9.77321 7 8.19354 7.16333 6.95804C7.33133 5.68637 7.686 4.65504 8.484 3.84304C9.282 3.03104 10.2947 2.67171 11.5453 2.49904C12.7598 2.33337 14.3127 2.33337 16.2727 2.33337H16.394Z" fill="#98A2B3"/>
<path d="M14.0002 21.2917C13.7681 21.2917 13.5455 21.3839 13.3814 21.548C13.2174 21.7121 13.1252 21.9346 13.1252 22.1667C13.1252 22.3988 13.2174 22.6213 13.3814 22.7854C13.5455 22.9495 13.7681 23.0417 14.0002 23.0417H19.8335C20.0656 23.0417 20.2881 22.9495 20.4522 22.7854C20.6163 22.6213 20.7085 22.3988 20.7085 22.1667C20.7085 21.9346 20.6163 21.7121 20.4522 21.548C20.2881 21.3839 20.0656 21.2917 19.8335 21.2917H14.0002ZM2.3335 16.9167C2.3335 15.2775 2.3335 14.4585 2.72666 13.8705C2.89694 13.6157 3.11578 13.3968 3.37066 13.2265C3.95866 12.8334 4.77883 12.8334 6.41683 12.8334C8.05483 12.8334 8.875 12.8334 9.463 13.2265C9.71788 13.3968 9.93671 13.6157 10.107 13.8705C10.5002 14.4585 10.5002 15.2787 10.5002 16.9167V21.5834C10.5002 23.2214 10.5002 24.0415 10.107 24.6295C9.93671 24.8844 9.71788 25.1033 9.463 25.2735C8.875 25.6667 8.05483 25.6667 6.41683 25.6667C4.77883 25.6667 3.95866 25.6667 3.37066 25.2735C3.11578 25.1033 2.89694 24.8844 2.72666 24.6295C2.3335 24.0415 2.3335 23.2214 2.3335 21.5834V16.9167Z" fill="#98A2B3"/>
</svg>
