<svg viewBox="0 0 28 28" fill="none" xmlns="http://www.w3.org/2000/svg">
<path opacity="0.5" fill-rule="evenodd" clip-rule="evenodd" d="M2.3335 14C2.3335 12.5568 2.3335 11.3038 2.36383 10.2083H25.6365C25.6668 11.3038 25.6668 12.5568 25.6668 14C25.6668 19.4996 25.6668 22.2495 23.9577 23.9575C22.2508 25.6666 19.4998 25.6666 14.0002 25.6666C8.5005 25.6666 5.75066 25.6666 4.0415 23.9575C2.3335 22.2506 2.3335 19.4996 2.3335 14Z" fill="#98A2B3"/>
<path d="M17.4999 16.9166C17.4999 16.1781 16.7276 15.68 15.1829 14.6825C13.6173 13.6721 12.8344 13.167 12.2499 13.5391C11.6666 13.909 11.6666 14.9111 11.6666 16.9166C11.6666 18.9221 11.6666 19.9243 12.2499 20.2953C12.8333 20.6663 13.6173 20.1611 15.1829 19.1508C16.7276 18.1533 17.4999 17.6551 17.4999 16.9166ZM13.9999 2.33331C16.1524 2.33331 17.8849 2.33331 19.2966 2.43598L15.2809 8.45831H9.80109L13.8844 2.33331H13.9999ZM4.04126 4.04131C5.50309 2.58065 7.72559 2.36948 11.7774 2.33798L7.69876 8.45831H2.45459C2.62609 6.40031 3.04142 5.04231 4.04126 4.04131ZM25.5453 8.45831C25.3726 6.40031 24.9584 5.04231 23.9586 4.04131C23.2609 3.34481 22.3906 2.93298 21.2309 2.68798L17.3844 8.45831H25.5453Z" fill="#98A2B3"/>
</svg>
