<svg viewBox="0 0 28 28" fill="none" xmlns="http://www.w3.org/2000/svg">
<path opacity="0.5" d="M21.8751 10.5V11.3213C21.8751 12.3071 22.1551 13.2708 22.6824 14.091L23.9751 16.1011C25.1546 17.9375 24.2539 20.433 22.2017 21.0128C16.8394 22.5314 11.1607 22.5314 5.79841 21.0128C3.74624 20.433 2.84557 17.9375 4.02507 16.1011L5.31774 14.091C5.84649 13.264 6.12707 12.3028 6.12624 11.3213V10.5C6.12624 5.98965 9.65191 2.33331 14.0001 2.33331C18.3482 2.33331 21.8751 5.98965 21.8751 10.5Z" fill="#98A2B3"/>
<path d="M8.4502 21.6359C8.8314 22.8073 9.57356 23.8281 10.5704 24.552C11.5672 25.2759 12.7675 25.6658 13.9994 25.6658C15.2314 25.6658 16.4317 25.2759 17.4285 24.552C18.4253 23.8281 19.1675 22.8073 19.5487 21.6359C15.8795 22.3242 12.1205 22.3242 8.4502 21.6359Z" fill="#98A2B3"/>
</svg>
