<svg viewBox="0 0 28 28" fill="none" xmlns="http://www.w3.org/2000/svg">
<path opacity="0.5" d="M2.3335 13.125C2.3335 9.74167 4.68433 7 7.5835 7C10.4827 7 12.8335 9.74167 12.8335 13.125V23.3333H4.93866C3.50016 23.3333 2.3335 21.973 2.3335 20.2942V13.125Z" fill="#98A2B3"/>
<path opacity="0.8" d="M12.8335 13.125V23.3333H23.092C24.5142 23.3333 25.6668 21.9882 25.6668 20.3292V13.125C25.6668 9.74167 23.316 7 20.4168 7H7.5835C10.4827 7 12.8335 9.74167 12.8335 13.125Z" fill="#98A2B3"/>
<path d="M11.0835 23.3333V25.6666C11.0835 25.8987 11.1757 26.1212 11.3398 26.2853C11.5039 26.4494 11.7264 26.5416 11.9585 26.5416C12.1906 26.5416 12.4131 26.4494 12.5772 26.2853C12.7413 26.1212 12.8335 25.8987 12.8335 25.6666V23.3333H11.0835ZM17.5002 23.3333H15.7502V25.6666C15.7502 25.8987 15.8424 26.1212 16.0064 26.2853C16.1705 26.4494 16.3931 26.5416 16.6252 26.5416C16.8572 26.5416 17.0798 26.4494 17.2439 26.2853C17.408 26.1212 17.5002 25.8987 17.5002 25.6666V23.3333Z" fill="#98A2B3"/>
<path fill-rule="evenodd" clip-rule="evenodd" d="M4.9585 18.6667C4.9585 18.4346 5.05068 18.2121 5.21478 18.048C5.37887 17.8839 5.60143 17.7917 5.8335 17.7917H9.3335C9.56556 17.7917 9.78812 17.8839 9.95221 18.048C10.1163 18.2121 10.2085 18.4346 10.2085 18.6667C10.2085 18.8988 10.1163 19.1213 9.95221 19.2854C9.78812 19.4495 9.56556 19.5417 9.3335 19.5417H5.8335C5.60143 19.5417 5.37887 19.4495 5.21478 19.2854C5.05068 19.1213 4.9585 18.8988 4.9585 18.6667ZM20.2827 7.68252L20.5813 7.62186C21.0664 7.52632 21.5688 7.5729 22.028 7.75602C22.833 8.07919 23.715 8.13869 24.5538 7.92869L24.625 7.91119C25.2363 7.75836 25.6668 7.19019 25.6668 6.53686V4.05186C25.6668 3.19086 24.8922 2.55619 24.086 2.75802C23.624 2.87469 23.1387 2.84086 22.6942 2.66352L22.609 2.62852C21.869 2.33016 21.0578 2.25513 20.2757 2.41269L19.7518 2.51769C19.1218 2.64369 18.6668 3.21769 18.6668 3.88269V11.9945C18.6668 12.4577 19.0285 12.8334 19.4742 12.8334C19.5824 12.8314 19.6893 12.8081 19.7885 12.7648C19.8878 12.7215 19.9775 12.659 20.0526 12.581C20.1277 12.503 20.1867 12.4109 20.2261 12.3101C20.2656 12.2093 20.2848 12.1016 20.2827 11.9934V7.68252Z" fill="#98A2B3"/>
</svg>
