<svg viewBox="0 0 28 28" fill="none" xmlns="http://www.w3.org/2000/svg">
<path d="M25.6377 16.1163C23.8394 17.0297 21.8504 17.5042 19.8335 17.5012C12.746 17.5 7.00016 11.7553 7.00016 4.66667C7.00094 3.93167 7.06083 3.2134 7.17983 2.51184C6.34566 2.63551 5.69 2.84317 5.1195 3.19317C4.33456 3.67389 3.67452 4.33353 3.19333 5.11817C2.3335 6.52284 2.3335 8.43267 2.3335 12.2512V13.4178C2.3335 16.1362 2.3335 17.4953 2.77683 18.5663C3.07012 19.2742 3.49998 19.9173 4.04186 20.459C4.58375 21.0007 5.22704 21.4303 5.935 21.7233C6.705 22.043 7.62316 22.1317 9.0885 22.1573C10.0802 22.1748 10.576 22.183 10.9703 22.4128C11.3635 22.6415 11.6097 23.0557 12.0997 23.8852L12.732 24.9538C13.2955 25.9058 14.7037 25.9058 15.2683 24.9538L15.9007 23.8852C16.3907 23.0568 16.6357 22.6415 17.03 22.4128C17.4243 22.183 17.9202 22.1748 18.9118 22.1573C20.3772 22.1328 21.2953 22.043 22.0653 21.7233C22.7731 21.4302 23.4161 21.0005 23.9578 20.4588C24.4995 19.9171 24.9292 19.2741 25.2223 18.5663C25.4872 17.9282 25.5945 17.1873 25.6377 16.1163Z" fill="#98A2B3"/>
<path fill-rule="evenodd" clip-rule="evenodd" d="M15.2683 24.9538L15.9007 23.8852C16.3907 23.0568 16.6357 22.6415 17.03 22.4128C17.4243 22.183 17.9202 22.1748 18.9118 22.1573C20.3772 22.1328 21.2953 22.043 22.0653 21.7233C22.7731 21.4302 23.4161 21.0005 23.9578 20.4588C24.4995 19.9171 24.9292 19.2741 25.2223 18.5663C25.4872 17.9282 25.5945 17.1873 25.6377 16.1163C23.8394 17.0297 21.8504 17.5042 19.8335 17.5012C12.746 17.5 7.00016 11.7553 7.00016 4.66667C7.00094 3.93167 7.06083 3.2134 7.17983 2.51184C6.34566 2.63551 5.69 2.84317 5.1195 3.19317C4.33456 3.67389 3.67452 4.33353 3.19333 5.11817C2.3335 6.52284 2.3335 8.43267 2.3335 12.2512V13.4178C2.3335 16.1362 2.3335 17.4953 2.77683 18.5663C3.07012 19.2742 3.49998 19.9173 4.04186 20.459C4.58375 21.0007 5.22704 21.4303 5.935 21.7233C6.705 22.043 7.62316 22.1317 9.0885 22.1573C10.0802 22.1748 10.576 22.183 10.9703 22.4128C11.3635 22.6415 11.6097 23.0557 12.0997 23.8852L12.732 24.9538C13.2955 25.9058 14.7037 25.9058 15.2683 24.9538Z" fill="#98A2B3"/>
<path opacity="0.5" d="M15.75 2.33337H12.25C9.98667 2.33337 8.39417 2.33337 7.17967 2.51187C7.06067 3.21343 7.00078 3.93171 7 4.66671C7 11.7542 12.7458 17.5 19.8333 17.5C21.9217 17.5 23.8933 17.0007 25.6375 16.1152C25.6667 15.3907 25.6667 14.5145 25.6667 13.4167V12.25C25.6667 8.43154 25.6667 6.52171 24.8068 5.11937C24.3261 4.33444 23.6665 3.6744 22.8818 3.19321C21.4783 2.33337 19.5685 2.33337 15.75 2.33337Z" fill="#98A2B3"/>
</svg>
