<svg viewBox="0 0 28 28" fill="none" xmlns="http://www.w3.org/2000/svg">
<path opacity="0.5" d="M4.0415 23.9586C5.75183 25.6666 8.5005 25.6666 14.0002 25.6666C19.4998 25.6666 22.2497 25.6666 23.9577 23.9575C25.6668 22.2506 25.6668 19.4996 25.6668 14C25.6668 8.50031 25.6668 5.75048 23.9577 4.04131C22.2508 2.33331 19.4998 2.33331 14.0002 2.33331C8.5005 2.33331 5.75066 2.33331 4.0415 4.04131C2.3335 5.75165 2.3335 8.50031 2.3335 14C2.3335 19.4996 2.3335 22.2506 4.0415 23.9586Z" fill="#98A2B3"/>
<path d="M5.83317 9.91667V8.75C5.83317 8.28587 6.01754 7.84075 6.34573 7.51256C6.67392 7.18437 7.11904 7 7.58317 7H20.4165C20.8806 7 21.3258 7.18437 21.6539 7.51256C21.9821 7.84075 22.1665 8.28587 22.1665 8.75V9.91667C21.6616 9.53802 21.0476 9.33333 20.4165 9.33333H7.58317C6.92634 9.33333 6.32084 9.55033 5.83317 9.91667ZM5.83317 13.4167V12.25C5.83317 11.7859 6.01754 11.3408 6.34573 11.0126C6.67392 10.6844 7.11904 10.5 7.58317 10.5H20.4165C20.8806 10.5 21.3258 10.6844 21.6539 11.0126C21.9821 11.3408 22.1665 11.7859 22.1665 12.25V13.4167C21.6616 13.038 21.0476 12.8333 20.4165 12.8333H7.58317C6.95209 12.8333 6.33803 13.038 5.83317 13.4167ZM24.2082 17.5C24.2082 17.2679 24.116 17.0454 23.9519 16.8813C23.7878 16.7172 23.5652 16.625 23.3332 16.625H22.1432V15.4583C22.0742 15.0504 21.8629 14.68 21.5468 14.413C21.2307 14.1461 20.8303 13.9997 20.4165 14H7.58317C7.16941 13.9997 6.76894 14.1461 6.45284 14.413C6.13674 14.68 5.92546 15.0504 5.8565 15.4583V16.625H4.6665C4.43444 16.625 4.21188 16.7172 4.04779 16.8813C3.88369 17.0454 3.7915 17.2679 3.7915 17.5C3.7915 17.7321 3.88369 17.9546 4.04779 18.1187C4.21188 18.2828 4.43444 18.375 4.6665 18.375H7.351C8.366 18.375 8.632 18.3902 8.8595 18.4823L8.93067 18.5138C9.15234 18.6188 9.34484 18.8055 10.0308 19.551L10.0728 19.5953L10.1603 19.6922C10.6713 20.2475 11.0738 20.6862 11.6023 20.9522C11.7003 21.0012 11.8007 21.0451 11.9033 21.084C12.4563 21.294 13.0525 21.2928 13.8062 21.2917H14.0605C14.7733 21.2917 15.3368 21.2928 15.8653 21.1038C15.9633 21.0688 16.0598 21.0288 16.1547 20.9837C16.661 20.7445 17.0588 20.3455 17.5628 19.8403L17.6503 19.754L17.9187 19.4857C18.6432 18.7612 18.8438 18.5815 19.0748 18.4858C19.3058 18.3902 19.5742 18.375 20.5997 18.375H23.3332C23.5652 18.375 23.7878 18.2828 23.9519 18.1187C24.116 17.9546 24.2082 17.7321 24.2082 17.5Z" fill="#98A2B3"/>
</svg>
