<svg viewBox="0 0 28 28" fill="none" xmlns="http://www.w3.org/2000/svg">
<path d="M9.45716 21.2882C6.18116 18.7635 2.3335 15.799 2.3335 10.6598C2.3335 4.98633 8.75016 0.962501 14.0002 6.41783L16.3335 8.74883C16.4994 8.90339 16.7188 8.98754 16.9454 8.98354C17.1721 8.97954 17.3884 8.88771 17.5487 8.72739C17.709 8.56708 17.8009 8.35079 17.8049 8.12411C17.8089 7.89743 17.7247 7.67804 17.5702 7.51217L15.3185 5.257C20.264 1.63683 25.6668 5.45417 25.6668 10.6598C25.6668 15.799 21.8192 18.7635 18.5432 21.2882C18.2009 21.5503 17.8681 21.8085 17.5445 22.0628C16.3335 23.0172 15.1668 23.9167 14.0002 23.9167C12.8335 23.9167 11.6668 23.0183 10.4558 22.0617C10.1315 21.8081 9.79861 21.5503 9.45716 21.2882Z" fill="#98A2B3"/>
</svg>
