<svg viewBox="0 0 28 28" fill="none" xmlns="http://www.w3.org/2000/svg">
<path d="M24.7823 15.9927L15.9927 24.7823C15.8592 24.915 15.7152 25.0368 15.5622 25.1463C15.1078 25.4771 14.562 25.6589 14 25.6667C14 25.0227 14 24.4428 14.0035 23.9167C14.0175 21.777 14.091 20.5205 14.4585 19.4693C14.8637 18.3114 15.5246 17.2596 16.3921 16.3921C17.2596 15.5246 18.3114 14.8637 19.4693 14.4585C20.5193 14.091 21.777 14.0175 23.9167 14.0035C24.4428 14 25.0227 14 25.6667 14C25.6667 14.567 25.4695 15.1037 25.1463 15.5633C25.0367 15.716 24.915 15.8596 24.7823 15.9927Z" fill="#98A2B3"/>
<path opacity="0.5" d="M14.0002 2.33337C20.4437 2.33337 25.6668 7.55654 25.6668 14C25.0228 14 24.443 14 23.9168 14.0035C21.7772 14.0175 20.5207 14.091 19.4695 14.4585C18.3115 14.8638 17.2598 15.5247 16.3923 16.3921C15.5248 17.2596 14.8639 18.3114 14.4587 19.4694C14.0912 20.5194 14.0177 21.777 14.0037 23.9167C14.0002 24.4429 14.0002 25.0227 14.0002 25.6667C7.55666 25.6667 2.3335 20.4435 2.3335 14C2.3335 7.55654 7.55666 2.33337 14.0002 2.33337Z" fill="#98A2B3"/>
<path d="M11.6668 12.25C11.6668 13.216 11.1442 14 10.5002 14C9.85616 14 9.3335 13.216 9.3335 12.25C9.3335 11.284 9.85616 10.5 10.5002 10.5C11.1442 10.5 11.6668 11.284 11.6668 12.25ZM17.5002 14C18.1442 14 18.6668 13.216 18.6668 12.25C18.6668 11.284 18.1442 10.5 17.5002 10.5C16.8562 10.5 16.3335 11.284 16.3335 12.25C16.3335 13.216 16.8562 14 17.5002 14ZM9.79666 18.1452C9.86517 18.0528 9.95122 17.9748 10.0499 17.9157C10.1486 17.8567 10.2579 17.8176 10.3717 17.8008C10.4854 17.784 10.6014 17.7898 10.7129 17.8179C10.8245 17.8459 10.9294 17.8957 11.0217 17.9643C12.0685 18.7475 13.3813 19.0878 14.6768 18.9117C14.5975 19.0944 14.5248 19.2803 14.4587 19.4693C14.3215 19.8711 14.2238 20.2853 14.167 20.706L14.0002 20.7083C12.5504 20.7066 11.14 20.2368 9.97866 19.369C9.79226 19.2308 9.66837 19.0243 9.63424 18.7948C9.60011 18.5653 9.65853 18.3316 9.79666 18.1452Z" fill="#98A2B3"/>
</svg>
