<svg viewBox="0 0 28 28" fill="none" xmlns="http://www.w3.org/2000/svg">
<path fill-rule="evenodd" clip-rule="evenodd" d="M12.6011 2.99838C12.6229 3.1051 12.6234 3.21507 12.6027 3.32199C12.5819 3.42892 12.5403 3.5307 12.4801 3.62151C12.42 3.71232 12.3425 3.79038 12.2522 3.85122C12.1618 3.91205 12.0604 3.95447 11.9536 3.97605C9.98889 4.37879 8.18562 5.34944 6.76747 6.76759C5.34932 8.18574 4.37868 9.989 3.97593 11.9537C3.93215 12.1694 3.80449 12.3588 3.62103 12.4804C3.43757 12.6019 3.21335 12.6456 2.99768 12.6018C2.78202 12.558 2.59258 12.4304 2.47104 12.2469C2.3495 12.0634 2.30582 11.8392 2.3496 11.6235C2.81686 9.3392 3.94491 7.24246 5.59363 5.59374C7.24235 3.94502 9.33909 2.81698 11.6234 2.34971C11.7302 2.32793 11.8403 2.32745 11.9473 2.34828C12.0543 2.36911 12.1561 2.41085 12.2469 2.47111C12.3377 2.53138 12.4158 2.60897 12.4766 2.69945C12.5373 2.78993 12.5797 2.89151 12.6011 2.99838ZM2.99827 15.3989C3.10498 15.3771 3.21495 15.3766 3.32188 15.3973C3.4288 15.4181 3.53058 15.4597 3.6214 15.5199C3.71221 15.58 3.79026 15.6575 3.8511 15.7478C3.91194 15.8382 3.95436 15.9396 3.97593 16.0464C4.37868 18.0111 5.34932 19.8144 6.76747 21.2325C8.18562 22.6507 9.98889 23.6213 11.9536 24.024C12.0604 24.0457 12.1619 24.0882 12.2522 24.1491C12.3426 24.21 12.4201 24.2881 12.4802 24.379C12.5404 24.4698 12.5821 24.5716 12.603 24.6785C12.6238 24.7855 12.6234 24.8955 12.6017 25.0023C12.58 25.1091 12.5375 25.2106 12.4766 25.3009C12.4157 25.3913 12.3376 25.4688 12.2468 25.5289C12.1559 25.5891 12.0541 25.6308 11.9472 25.6517C11.8402 25.6725 11.7302 25.6721 11.6234 25.6504C9.3393 25.1829 7.24281 24.0548 5.59431 22.4061C3.94582 20.7574 2.81795 18.6607 2.35077 16.3765C2.32897 16.2698 2.32844 16.1599 2.3492 16.0529C2.36995 15.946 2.4116 15.8442 2.47174 15.7534C2.53188 15.6626 2.60935 15.5845 2.69969 15.5237C2.79004 15.4629 2.8915 15.4205 2.99827 15.3989ZM15.3988 2.99838C15.4202 2.89151 15.4625 2.78993 15.5233 2.69945C15.5841 2.60897 15.6621 2.53138 15.753 2.47111C15.8438 2.41085 15.9456 2.36911 16.0526 2.34828C16.1596 2.32745 16.2696 2.32793 16.3764 2.34971C18.6608 2.81698 20.7575 3.94502 22.4062 5.59374C24.055 7.24246 25.183 9.3392 25.6503 11.6235C25.694 11.8392 25.6504 12.0634 25.5288 12.2469C25.4073 12.4304 25.2178 12.558 25.0022 12.6018C24.7865 12.6456 24.5623 12.6019 24.3788 12.4804C24.1954 12.3588 24.0677 12.1694 24.0239 11.9537C23.6212 9.989 22.6505 8.18574 21.2324 6.76759C19.8142 5.34944 18.011 4.37879 16.0463 3.97605C15.9395 3.95447 15.838 3.91205 15.7477 3.85122C15.6573 3.79038 15.5799 3.71232 15.5197 3.62151C15.4596 3.5307 15.418 3.42892 15.3972 3.32199C15.3764 3.21507 15.377 3.1051 15.3988 2.99838ZM25.0016 15.3989C25.1085 15.4203 25.2101 15.4626 25.3005 15.5234C25.391 15.5842 25.4686 15.6622 25.5289 15.7531C25.5891 15.8439 25.6309 15.9457 25.6517 16.0527C25.6725 16.1597 25.672 16.2697 25.6503 16.3765C25.183 18.6609 24.055 20.7576 22.4062 22.4064C20.7575 24.0551 18.6608 25.1831 16.3764 25.6504C16.1608 25.6942 15.9365 25.6505 15.7531 25.5289C15.5696 25.4074 15.442 25.218 15.3982 25.0023C15.3544 24.7866 15.3981 24.5624 15.5196 24.379C15.6412 24.1955 15.8306 24.0678 16.0463 24.024C18.011 23.6213 19.8142 22.6507 21.2324 21.2325C22.6505 19.8144 23.6212 18.0111 24.0239 16.0464C24.0455 15.9396 24.0879 15.8382 24.1488 15.7478C24.2096 15.6575 24.2877 15.58 24.3785 15.5199C24.4693 15.4597 24.5711 15.4181 24.678 15.3973C24.7849 15.3766 24.8949 15.3771 25.0016 15.3989Z" fill="#98A2B3"/>
<path opacity="0.5" d="M14.0002 22.8469C16.3465 22.8469 18.5967 21.9148 20.2558 20.2557C21.9149 18.5966 22.847 16.3464 22.847 14C22.847 11.6537 21.9149 9.40348 20.2558 7.74438C18.5967 6.08527 16.3465 5.1532 14.0002 5.1532C11.6538 5.1532 9.4036 6.08527 7.7445 7.74438C6.08539 9.40348 5.15332 11.6537 5.15332 14C5.15332 16.3464 6.08539 18.5966 7.7445 20.2557C9.4036 21.9148 11.6538 22.8469 14.0002 22.8469Z" fill="#98A2B3"/>
<path d="M10.4299 16.9622C10.4947 16.8744 10.5761 16.8004 10.6695 16.7442C10.763 16.688 10.8666 16.6508 10.9745 16.6348C11.0823 16.6188 11.1923 16.6242 11.298 16.6507C11.4038 16.6773 11.5033 16.7244 11.5907 16.7895C12.2791 17.2993 13.1074 17.5945 13.9999 17.5945C14.8688 17.5932 15.714 17.3108 16.4091 16.7895C16.5858 16.6585 16.8072 16.603 17.0248 16.6353C17.2424 16.6675 17.4383 16.7849 17.5693 16.9616C17.7004 17.1383 17.7559 17.3598 17.7236 17.5774C17.6913 17.7949 17.5739 17.9908 17.3972 18.1218C16.4164 18.8554 15.2247 19.2523 13.9999 19.2535C12.7755 19.2521 11.5843 18.8552 10.6037 18.1218C10.5162 18.0571 10.4422 17.9757 10.3862 17.8824C10.3301 17.789 10.293 17.6855 10.2769 17.5778C10.2609 17.4701 10.2663 17.3603 10.2927 17.2546C10.3192 17.149 10.3662 17.0496 10.4311 16.9622M16.9026 13.5847C17.4369 13.5847 17.8709 12.9348 17.8709 12.1333C17.8709 11.3318 17.4369 10.682 16.9026 10.682C16.3682 10.682 15.9342 11.3318 15.9342 12.1333C15.9342 12.9348 16.3682 13.5847 16.9026 13.5847ZM11.0972 13.5847C11.6316 13.5847 12.0656 12.9348 12.0656 12.1333C12.0656 11.3318 11.6316 10.682 11.0972 10.682C10.5629 10.682 10.1289 11.3318 10.1289 12.1333C10.1289 12.9348 10.5629 13.5847 11.0972 13.5847Z" fill="#98A2B3"/>
</svg>
