<svg viewBox="0 0 28 28" fill="none" xmlns="http://www.w3.org/2000/svg">
<path d="M9.37655 11.501C9.30614 11.4658 9.22935 11.4452 9.15078 11.4405C9.07221 11.4358 8.9935 11.447 8.91938 11.4735C8.84525 11.5 8.77726 11.5412 8.71949 11.5946C8.66172 11.6481 8.61536 11.7127 8.58321 11.7845L3.69138 22.7535C2.91321 24.4989 4.64221 26.3084 6.26038 25.4439L13.1484 21.7665C13.685 21.4807 14.315 21.4807 14.8505 21.7665L21.7385 25.4439C23.3567 26.3084 25.0857 24.4989 24.3075 22.7535L22.4735 18.6422C22.2537 18.1486 21.8694 17.7465 21.3862 17.5047L9.37655 11.501Z" fill="#98A2B3"/>
<path opacity="0.5" d="M10.0452 9.87814C9.91084 9.81115 9.8075 9.69494 9.75665 9.5537C9.7058 9.41246 9.71136 9.25705 9.77218 9.11981L12.2817 3.49297C12.97 1.94831 15.0292 1.94831 15.7175 3.49297L20.3468 13.874C20.3954 13.9837 20.409 14.1057 20.3856 14.2235C20.3623 14.3412 20.3032 14.4488 20.2165 14.5318C20.1298 14.6147 20.0195 14.6688 19.9009 14.6868C19.7822 14.7048 19.6609 14.6858 19.5535 14.6323L10.0452 9.87814Z" fill="#98A2B3"/>
</svg>
