<svg viewBox="0 0 28 28" fill="none" xmlns="http://www.w3.org/2000/svg">
<path opacity="0.6" d="M23.0033 23.7557C24.667 22.8492 25.6668 21.6848 25.6668 20.4167C25.6668 19.0727 24.5433 17.8453 22.6965 16.9167C20.5603 15.8433 17.4558 15.1667 14.0002 15.1667C10.5445 15.1667 7.44 15.8433 5.30383 16.9167C3.457 17.8453 2.3335 19.0727 2.3335 20.4167C2.3335 21.7607 3.457 22.988 5.30383 23.9167C7.44 24.99 10.5445 25.6667 14.0002 25.6667C17.625 25.6667 20.8625 24.9235 23.0033 23.7557Z" fill="#98A2B3"/>
<path fill-rule="evenodd" clip-rule="evenodd" d="M11.4399 2.33969C10.8383 2.94137 10.5002 3.75742 10.5002 4.60833C10.5002 5.45923 10.8383 6.27528 11.4399 6.87696C12.0416 7.47864 12.8577 7.81666 13.7086 7.81666C14.5595 7.81666 15.3755 7.47864 15.9772 6.87696C16.5789 6.27528 16.9169 5.45923 16.9169 4.60833C16.9169 3.75742 16.5789 2.94137 15.9772 2.33969C15.3755 1.73801 14.5595 1.39999 13.7086 1.39999C12.8577 1.39999 12.0416 1.73801 11.4399 2.33969ZM6.828 12.6572L9.3655 13.503C9.67233 13.6057 9.82517 13.657 9.94067 13.7282C10.1329 13.8467 10.2866 14.0185 10.3831 14.2227C10.4796 14.4269 10.5148 14.6547 10.4843 14.8785C10.4657 15.0127 10.4085 15.1632 10.2918 15.4653L8.837 19.2465C8.68051 19.651 8.68277 20.0998 8.84334 20.5027C9.0039 20.9056 9.3109 21.2329 9.70272 21.419C10.0946 21.605 10.5422 21.636 10.9559 21.5057C11.3697 21.3754 11.7188 21.0935 11.9333 20.7165L13.772 17.5L15.6107 20.7177C15.8252 21.0946 16.1743 21.3765 16.5881 21.5068C17.0018 21.6371 17.4494 21.6061 17.8413 21.4201C18.2331 21.2341 18.5401 20.9068 18.7007 20.5039C18.8612 20.1009 18.8635 19.6522 18.707 19.2477L17.2522 15.4653L17.244 15.444C17.1339 15.156 17.0779 15.0095 17.0597 14.8785C17.0292 14.6547 17.0644 14.4269 17.1609 14.2227C17.2574 14.0185 17.4111 13.8467 17.6033 13.7282C17.7188 13.657 17.8717 13.6057 18.1785 13.503L20.716 12.6572C21.1515 12.5142 21.5153 12.2093 21.7325 11.8057C21.9496 11.402 22.0033 10.9304 21.8826 10.4883C21.7619 10.0461 21.4759 9.66724 21.0838 9.42993C20.6917 9.19262 20.2234 9.11502 19.7757 9.21316L17.5625 9.68799C15.1483 10.2232 12.648 10.2407 10.2265 9.73933L9.9815 9.68799L7.76717 9.21316C7.31977 9.11602 6.85216 9.19426 6.46075 9.43175C6.06935 9.66924 5.784 10.0479 5.66355 10.4896C5.54311 10.9313 5.59674 11.4023 5.8134 11.8056C6.03006 12.2089 6.39323 12.5137 6.828 12.6572Z" fill="#98A2B3"/>
</svg>
