<svg viewBox="0 0 28 28" fill="none" xmlns="http://www.w3.org/2000/svg">
<path opacity="0.5" d="M25.6668 16.3334V13.7644C25.6668 10.6937 25.6668 9.15721 24.7685 8.15971C24.6861 8.06766 24.5988 7.98003 24.5072 7.89721C23.5097 7.00004 21.9732 7.00004 18.9025 7.00004H18.4662C17.121 7.00004 16.4478 7.00004 15.8202 6.82154C15.4757 6.72308 15.1438 6.58528 14.8308 6.41087C14.2615 6.09471 13.7855 5.61754 12.8335 4.66671L12.1918 4.02504C11.8722 3.70537 11.7135 3.54671 11.5455 3.40671C10.8229 2.80779 9.93659 2.44064 9.00216 2.35321C8.78516 2.33337 8.55883 2.33337 8.1085 2.33337C7.07833 2.33337 6.56383 2.33337 6.1345 2.41504C5.21264 2.58914 4.36466 3.03703 3.70119 3.7003C3.03771 4.36357 2.58955 5.21141 2.41516 6.13321C2.3335 6.56371 2.3335 7.07937 2.3335 8.10837V16.625L2.3405 18.375C2.372 21.4504 2.56333 23.163 3.70083 24.2994C5.067 25.6667 7.26733 25.6667 11.6668 25.6667H16.3335C20.733 25.6667 22.9333 25.6667 24.2995 24.2994C25.6657 22.932 25.6668 20.7329 25.6668 16.3334Z" fill="#98A2B3"/>
<path d="M10.8688 13.2929C10.6809 13.1614 10.4489 13.1088 10.2227 13.1466C9.99643 13.1844 9.79408 13.3095 9.65918 13.4951C9.52428 13.6806 9.46763 13.9117 9.50142 14.1385C9.5352 14.3654 9.65673 14.5699 9.83983 14.7081L12.4765 16.6249H2.3335L2.3405 18.3749H12.4765L9.83983 20.2918C9.65201 20.4282 9.52609 20.6337 9.48977 20.863C9.45345 21.0923 9.50971 21.3266 9.64616 21.5144C9.78262 21.7023 9.98809 21.8282 10.2174 21.8645C10.4467 21.9008 10.681 21.8446 10.8688 21.7081L15.6813 18.2081C15.7929 18.1269 15.8837 18.0205 15.9463 17.8975C16.009 17.7746 16.0416 17.6385 16.0416 17.5005C16.0416 17.3625 16.009 17.2265 15.9463 17.1035C15.8837 16.9805 15.7929 16.8741 15.6813 16.7929L10.8688 13.2929Z" fill="#98A2B3"/>
</svg>
