<svg viewBox="0 0 28 28" fill="none" xmlns="http://www.w3.org/2000/svg">
<path opacity="0.5" d="M22.1399 17.255C23.1377 16.257 23.8558 15.0144 24.2225 13.6517C24.5892 12.289 24.5916 10.8538 24.2294 9.48986C23.8673 8.12591 23.1533 6.88098 22.1589 5.87965C21.1644 4.87832 19.9245 4.15569 18.5631 3.78408C17.2017 3.41246 15.7666 3.40489 14.4013 3.76213C13.0361 4.11936 11.7886 4.82887 10.7836 5.81966C9.77873 6.81044 9.05163 8.04777 8.6751 9.40782C8.29857 10.7679 8.28582 12.203 8.63812 13.5695C8.74895 14 8.64978 14.4655 8.33712 14.7793L4.00528 19.11C3.82226 19.2932 3.68277 19.5151 3.59715 19.7595C3.51152 20.0038 3.48195 20.2643 3.51062 20.5217L3.78128 22.9588C3.81045 23.219 3.92712 23.4605 4.11145 23.646L4.35412 23.8887C4.53974 24.0726 4.78172 24.1888 5.04128 24.2188L7.47845 24.4895C7.73578 24.5182 7.99627 24.4886 8.24063 24.403C8.48499 24.3173 8.70696 24.1779 8.89012 23.9948L9.71845 23.1665L10.9551 21.9287L13.2208 19.663C13.5358 19.348 14.0001 19.2512 14.4306 19.362C15.7879 19.7124 17.2131 19.7023 18.5652 19.3328C19.9174 18.9632 21.1496 18.247 22.1399 17.255Z" fill="#98A2B3"/>
<path d="M17.9829 10.017C17.7676 9.79415 17.5102 9.61639 17.2255 9.4941C16.9408 9.37181 16.6346 9.30744 16.3248 9.30475C16.015 9.30206 15.7078 9.3611 15.421 9.47842C15.1342 9.59574 14.8737 9.769 14.6546 9.98808C14.4355 10.2072 14.2623 10.4677 14.145 10.7544C14.0276 11.0412 13.9686 11.3485 13.9713 11.6583C13.974 11.9681 14.0384 12.2743 14.1607 12.5589C14.2829 12.8436 14.4607 13.1011 14.6836 13.3163C15.1236 13.7414 15.713 13.9766 16.3248 13.9712C16.9366 13.9659 17.5218 13.7205 17.9545 13.2879C18.3871 12.8553 18.6325 12.2701 18.6378 11.6583C18.6431 11.0465 18.4079 10.4571 17.9829 10.017ZM7.68005 21.1517L9.71706 23.1665L10.9537 21.9287L8.91089 19.9068C8.82971 19.8238 8.73282 19.7577 8.62586 19.7125C8.5189 19.6673 8.404 19.6438 8.28787 19.6435C8.17175 19.6431 8.05671 19.6659 7.94947 19.7104C7.84223 19.755 7.74493 19.8204 7.66324 19.903C7.58155 19.9855 7.51711 20.0835 7.47367 20.1912C7.43023 20.2989 7.40867 20.4141 7.41024 20.5303C7.4118 20.6464 7.43646 20.761 7.48279 20.8675C7.52911 20.974 7.59617 21.0714 7.68005 21.1517Z" fill="#98A2B3"/>
</svg>
