<svg viewBox="0 0 28 28" fill="none" xmlns="http://www.w3.org/2000/svg">
<path opacity="0.5" d="M14.0001 18.746L9.60056 23.3018C8.97056 23.954 8.65556 24.2807 8.38722 24.3927C7.78056 24.6493 7.10506 24.43 6.78539 23.87C6.64539 23.625 6.60106 23.1817 6.51472 22.295C6.46456 21.7933 6.44006 21.5437 6.36539 21.3337C6.28586 21.105 6.15753 20.8964 5.98931 20.7224C5.82109 20.5483 5.61701 20.4129 5.39122 20.3257C5.18939 20.2475 4.94789 20.2218 4.46372 20.1705C3.60739 20.0807 3.17922 20.0352 2.94122 19.8905C2.40106 19.5592 2.18756 18.8603 2.43606 18.2315C2.54572 17.955 2.86072 17.6283 3.49072 16.9762L6.36539 14L7.80972 12.5557L14.0001 18.746ZM14.0001 18.746L20.1904 12.5557L21.6347 14L24.5094 16.975C25.1394 17.6283 25.4544 17.955 25.5641 18.2303C25.8126 18.8603 25.5991 19.5592 25.0589 19.8905C24.8209 20.0352 24.3939 20.0807 23.5364 20.1705C23.0534 20.2218 22.8107 20.2475 22.6089 20.3257C22.1551 20.4995 21.8039 20.8647 21.6347 21.3337C21.5601 21.5437 21.5356 21.7933 21.4854 22.2938C21.3979 23.1805 21.3547 23.6238 21.2147 23.87C20.8951 24.43 20.2196 24.6505 19.6117 24.3927C19.3457 24.2807 19.0307 23.954 18.4007 23.3018L14.0001 18.746Z" fill="#98A2B3"/>
<path fill-rule="evenodd" clip-rule="evenodd" d="M14.0002 18.6667C16.1661 18.6667 18.2433 17.8063 19.7749 16.2747C21.3064 14.7432 22.1668 12.666 22.1668 10.5C22.1668 8.33411 21.3064 6.25688 19.7749 4.72534C18.2433 3.19379 16.1661 2.33337 14.0002 2.33337C11.8342 2.33337 9.757 3.19379 8.22546 4.72534C6.69391 6.25688 5.8335 8.33411 5.8335 10.5C5.8335 12.666 6.69391 14.7432 8.22546 16.2747C9.757 17.8063 11.8342 18.6667 14.0002 18.6667ZM14.0002 7.00004C13.6688 7.00004 13.4472 7.39671 13.0038 8.19354L12.8895 8.39887C12.7635 8.62521 12.7005 8.73721 12.6025 8.81187C12.5033 8.88654 12.3808 8.91454 12.1358 8.96937L11.9142 9.02071C11.0532 9.21554 10.6227 9.31237 10.52 9.64137C10.4173 9.97037 10.7113 10.3145 11.2982 11.0005L11.4498 11.1779C11.6167 11.3727 11.7007 11.4695 11.738 11.5909C11.7753 11.7122 11.7625 11.8417 11.738 12.1019L11.7147 12.3387C11.626 13.2545 11.5817 13.713 11.8488 13.916C12.1172 14.119 12.5208 13.9335 13.327 13.5625L13.5347 13.4669C13.7645 13.3619 13.8788 13.3094 14.0002 13.3094C14.1215 13.3094 14.2358 13.3619 14.4657 13.4669L14.6733 13.5625C15.4795 13.9347 15.8832 14.119 16.1515 13.916C16.4198 13.713 16.3743 13.2545 16.2857 12.3387L16.2623 12.1019C16.2378 11.8417 16.225 11.7122 16.2623 11.5909C16.2997 11.4695 16.3837 11.3727 16.5505 11.1779L16.7022 11.0005C17.289 10.3145 17.583 9.97154 17.4803 9.64137C17.3777 9.31237 16.9472 9.21554 16.0862 9.02071L15.8645 8.96937C15.6195 8.91454 15.497 8.88771 15.3978 8.81187C15.2998 8.73721 15.2368 8.62521 15.1108 8.39887L14.9965 8.19354C14.5532 7.39671 14.3315 7.00004 14.0002 7.00004Z" fill="#98A2B3"/>
</svg>
