<svg viewBox="0 0 28 28" fill="none" xmlns="http://www.w3.org/2000/svg">
<path d="M5.70753 11.2163C5.70753 10.7473 6.08436 10.367 6.54986 10.367H11.0485C11.5152 10.367 11.892 10.7473 11.892 11.2163C11.8925 11.3276 11.871 11.4378 11.8289 11.5407C11.7868 11.6437 11.7247 11.7373 11.6464 11.8163C11.5681 11.8953 11.475 11.958 11.3724 12.001C11.2698 12.044 11.1598 12.0664 11.0485 12.0668H6.54986C6.32542 12.0656 6.11065 11.9753 5.95272 11.8159C5.79478 11.6564 5.7066 11.4408 5.70753 11.2163Z" fill="#98A2B3"/>
<path fill-rule="evenodd" clip-rule="evenodd" d="M24.7195 11.6713C24.6464 11.6674 24.5686 11.6659 24.4862 11.6666H21.251C18.6015 11.6666 16.3335 13.692 16.3335 16.3333C16.3335 18.9746 18.6015 21 21.251 21H24.4862C24.5686 21.0007 24.6464 20.9992 24.7195 20.9953C25.7963 20.93 26.7483 20.1121 26.8288 18.9688C26.8335 18.8941 26.8335 18.8136 26.8335 18.739V13.9276C26.8335 13.853 26.8335 13.7725 26.8288 13.6978C26.7483 12.5545 25.7963 11.7378 24.7195 11.6713ZM20.9663 17.5781C21.6477 17.5781 22.2007 17.0205 22.2007 16.3333C22.2007 15.645 21.6477 15.0885 20.9663 15.0885C20.285 15.0885 19.7297 15.6461 19.7297 16.3333C19.7297 17.0216 20.2838 17.5781 20.9663 17.5781Z" fill="#98A2B3"/>
<path opacity="0.5" d="M24.6635 11.669C24.6635 10.2911 24.6122 8.81298 23.7325 7.75481C23.6462 7.65138 23.5555 7.55173 23.4607 7.45615C22.5868 6.58348 21.4797 6.19615 20.1123 6.01181C18.7823 5.83331 17.0848 5.83331 14.9405 5.83331H12.4765C10.3322 5.83331 8.6335 5.83331 7.3035 6.01181C5.93616 6.19615 4.829 6.58348 3.95516 7.45615C3.0825 8.32998 2.69516 9.43715 2.51083 10.8045C2.3335 12.1345 2.3335 13.832 2.3335 15.9763V16.107C2.3335 18.2513 2.3335 19.95 2.512 21.2788C2.69633 22.6461 3.08366 23.7533 3.95633 24.6271C4.83016 25.4998 5.93733 25.8871 7.30466 26.0715C8.63466 26.25 10.3322 26.25 12.4765 26.25H14.9405C17.0848 26.25 18.7835 26.25 20.1123 26.0715C21.4797 25.8871 22.5868 25.4998 23.4607 24.6271C23.6979 24.3876 23.9024 24.1309 24.0743 23.8571C24.5993 23.0171 24.6623 21.9881 24.6623 20.9988L24.4873 21H21.251C18.6015 21 16.3335 18.9746 16.3335 16.3333C16.3335 13.692 18.6015 11.6666 21.251 11.6666H24.4862C24.5476 11.6666 24.6075 11.6674 24.6635 11.669Z" fill="#98A2B3"/>
<path d="M11.7845 3.0007L9.33336 4.65736L7.31152 6.0107C8.63919 5.83336 10.3355 5.83336 12.4764 5.83336H14.9404C17.0847 5.83336 18.7834 5.83336 20.1122 6.01186C20.3797 6.04686 20.6372 6.0912 20.8845 6.14486L18.6667 4.6667L16.2015 3.0007C15.5471 2.56576 14.7788 2.33374 13.993 2.33374C13.2072 2.33374 12.439 2.56576 11.7845 3.0007Z" fill="#98A2B3"/>
</svg>
