<svg viewBox="0 0 28 28" fill="none" xmlns="http://www.w3.org/2000/svg">
<path d="M8.1665 5.635C8.1665 7.43984 10.1802 9.34267 11.8415 10.605C12.7737 11.312 13.2392 11.6667 13.9998 11.6667C14.7605 11.6667 15.226 11.312 16.1582 10.605C17.8195 9.3415 19.8332 7.43867 19.8332 5.635C19.8332 2.38 16.6248 1.16317 13.9998 3.6785C11.3748 1.16317 8.1665 2.38 8.1665 5.635Z" fill="#98A2B3"/>
<path opacity="0.5" d="M7.30317 24.9527H6.99984C5.89967 24.9527 5.35017 24.9527 5.00834 24.6108C4.6665 24.2713 4.6665 23.7207 4.6665 22.6205V21.3232C4.6665 20.7188 4.6665 20.4167 4.82167 20.146C4.97684 19.8753 5.21134 19.74 5.68034 19.467C8.76734 17.6715 13.1505 16.6612 16.0753 18.4053C16.2721 18.5228 16.4471 18.6659 16.6003 18.8347C16.7573 19.0062 16.8783 19.2076 16.9561 19.4267C17.0338 19.6459 17.0669 19.8784 17.0531 20.1106C17.0394 20.3427 16.9793 20.5698 16.8763 20.7783C16.7732 20.9867 16.6294 21.1724 16.4533 21.3243C16.3131 21.4575 16.1419 21.5537 15.9552 21.6043C16.0952 21.588 16.2293 21.5697 16.3577 21.5495C17.4205 21.3803 18.313 20.811 19.1297 20.1938L21.239 18.6013C21.6155 18.3281 22.0688 18.181 22.534 18.181C22.9992 18.181 23.4525 18.3281 23.829 18.6013C24.4975 19.1065 24.7028 19.9383 24.2793 20.6173C23.7858 21.4083 23.0905 22.4198 22.4232 23.0382C21.7558 23.6565 20.7595 24.2095 19.9475 24.6015C19.0468 25.0367 18.0528 25.2863 17.0413 25.4508C14.9903 25.7822 12.853 25.7308 10.823 25.3132C9.66488 25.0748 8.48558 24.9532 7.30317 24.9527Z" fill="#98A2B3"/>
</svg>
