<svg viewBox="0 0 28 28" fill="none" xmlns="http://www.w3.org/2000/svg">
<path opacity="0.5" d="M4.6665 12.25V3.20834H23.3332V12.25C23.3332 15.8247 23.3332 17.612 22.1618 18.7227C20.9905 19.8333 19.1052 19.8333 15.3333 19.8333H12.6663C8.89567 19.8333 7.00917 19.8333 5.83784 18.7227C4.6665 17.612 4.6665 15.8247 4.6665 12.25Z" fill="#98A2B3"/>
<path d="M18.1185 10.535C18.2731 10.3691 18.3572 10.1498 18.3532 9.92307C18.3492 9.69638 18.2574 9.4801 18.0971 9.31978C17.9367 9.15947 17.7205 9.06764 17.4938 9.06364C17.2671 9.05964 17.0477 9.14378 16.8818 9.29834L15.3733 10.8068L15.1668 11.011L14.9603 10.8068L14.2487 10.0952C14.083 9.92234 13.9069 9.75987 13.7213 9.60868C13.4702 9.40379 13.1575 9.28916 12.8335 9.28318C12.5094 9.28916 12.1968 9.40379 11.9457 9.60868C11.7707 9.74168 11.5875 9.92484 11.4183 10.094L9.88183 11.6317C9.79586 11.7118 9.72691 11.8084 9.67908 11.9157C9.63126 12.023 9.60555 12.1389 9.60347 12.2564C9.6014 12.3739 9.62301 12.4906 9.66702 12.5995C9.71103 12.7085 9.77653 12.8075 9.85962 12.8906C9.94271 12.9736 10.0417 13.0391 10.1506 13.0832C10.2596 13.1272 10.3763 13.1488 10.4938 13.1467C10.6113 13.1446 10.7271 13.1189 10.8345 13.0711C10.9418 13.0233 11.0384 12.9543 11.1185 12.8683L12.627 11.3598L12.8335 11.1557L13.04 11.3598L13.7517 12.0715C13.9208 12.2418 14.104 12.425 14.279 12.558C14.4843 12.7143 14.7772 12.8835 15.1668 12.8835C15.5565 12.8835 15.8493 12.7143 16.0547 12.558C16.2297 12.425 16.4128 12.2418 16.582 12.0727L18.1185 10.535ZM2.3335 1.45834C2.10143 1.45834 1.87887 1.55053 1.71478 1.71463C1.55068 1.87872 1.4585 2.10128 1.4585 2.33334C1.4585 2.56541 1.55068 2.78797 1.71478 2.95206C1.87887 3.11616 2.10143 3.20834 2.3335 3.20834H25.6668C25.8989 3.20834 26.1215 3.11616 26.2855 2.95206C26.4496 2.78797 26.5418 2.56541 26.5418 2.33334C26.5418 2.10128 26.4496 1.87872 26.2855 1.71463C26.1215 1.55053 25.8989 1.45834 25.6668 1.45834H2.3335ZM13.1252 19.8333V23.9598L11.276 24.8838C11.1723 24.9346 11.0796 25.0054 11.0034 25.0922C10.9272 25.1789 10.8689 25.2799 10.8319 25.3893C10.7949 25.4987 10.7799 25.6143 10.7878 25.7295C10.7957 25.8447 10.8263 25.9572 10.8779 26.0606C10.9295 26.1639 11.001 26.256 11.0883 26.3315C11.1757 26.4071 11.2771 26.4646 11.3868 26.5007C11.4964 26.5369 11.6122 26.551 11.7273 26.5422C11.8425 26.5334 11.9547 26.5019 12.0577 26.4495L14.0002 25.4788L15.9427 26.4495C16.0456 26.5019 16.1578 26.5334 16.273 26.5422C16.3881 26.551 16.5039 26.5369 16.6135 26.5007C16.7232 26.4646 16.8247 26.4071 16.912 26.3315C16.9993 26.256 17.0709 26.1639 17.1224 26.0606C17.174 25.9572 17.2046 25.8447 17.2125 25.7295C17.2204 25.6143 17.2054 25.4987 17.1684 25.3893C17.1314 25.2799 17.0731 25.1789 16.9969 25.0922C16.9207 25.0054 16.828 24.9346 16.7243 24.8838L14.8752 23.9587V19.8333H13.1252Z" fill="#98A2B3"/>
</svg>
