<svg viewBox="0 0 28 28" fill="none" xmlns="http://www.w3.org/2000/svg">
<path opacity="0.5" d="M8.4525 2.33325H19.5475C20.8997 2.33325 21.5752 2.33325 22.1212 2.52342C22.6357 2.70626 23.1013 3.00509 23.4819 3.39677C23.8624 3.78844 24.1477 4.26245 24.3157 4.78209C24.5 5.34442 24.5 6.03975 24.5 7.43158V23.7696C24.5 24.7706 23.3508 25.3026 22.624 24.6376C22.4201 24.4492 22.1526 24.3445 21.875 24.3445C21.5974 24.3445 21.3299 24.4492 21.126 24.6376L20.5625 25.1532C20.2053 25.4836 19.7366 25.6671 19.25 25.6671C18.7634 25.6671 18.2947 25.4836 17.9375 25.1532C17.5803 24.8229 17.1116 24.6394 16.625 24.6394C16.1384 24.6394 15.6697 24.8229 15.3125 25.1532C14.9553 25.4836 14.4866 25.6671 14 25.6671C13.5134 25.6671 13.0447 25.4836 12.6875 25.1532C12.3303 24.8229 11.8616 24.6394 11.375 24.6394C10.8884 24.6394 10.4197 24.8229 10.0625 25.1532C9.70526 25.4836 9.23658 25.6671 8.75 25.6671C8.26342 25.6671 7.79474 25.4836 7.4375 25.1532L6.874 24.6376C6.67008 24.4492 6.40264 24.3445 6.125 24.3445C5.84736 24.3445 5.57992 24.4492 5.376 24.6376C4.64917 25.3026 3.5 24.7706 3.5 23.7696V7.43158C3.5 6.03975 3.5 5.34325 3.68433 4.78325C4.03433 3.71809 4.84517 2.88275 5.87883 2.52342C6.42483 2.33325 7.10033 2.33325 8.4525 2.33325Z" fill="#98A2B3"/>
<path d="M8.1665 7.875C7.93444 7.875 7.71188 7.96719 7.54779 8.13128C7.38369 8.29538 7.2915 8.51794 7.2915 8.75C7.2915 8.98206 7.38369 9.20462 7.54779 9.36872C7.71188 9.53281 7.93444 9.625 8.1665 9.625H8.74984C8.9819 9.625 9.20446 9.53281 9.36856 9.36872C9.53265 9.20462 9.62484 8.98206 9.62484 8.75C9.62484 8.51794 9.53265 8.29538 9.36856 8.13128C9.20446 7.96719 8.9819 7.875 8.74984 7.875H8.1665ZM12.2498 7.875C12.0178 7.875 11.7952 7.96719 11.6311 8.13128C11.467 8.29538 11.3748 8.51794 11.3748 8.75C11.3748 8.98206 11.467 9.20462 11.6311 9.36872C11.7952 9.53281 12.0178 9.625 12.2498 9.625H19.8332C20.0652 9.625 20.2878 9.53281 20.4519 9.36872C20.616 9.20462 20.7082 8.98206 20.7082 8.75C20.7082 8.51794 20.616 8.29538 20.4519 8.13128C20.2878 7.96719 20.0652 7.875 19.8332 7.875H12.2498ZM8.1665 11.9583C7.93444 11.9583 7.71188 12.0505 7.54779 12.2146C7.38369 12.3787 7.2915 12.6013 7.2915 12.8333C7.2915 13.0654 7.38369 13.288 7.54779 13.4521C7.71188 13.6161 7.93444 13.7083 8.1665 13.7083H8.74984C8.9819 13.7083 9.20446 13.6161 9.36856 13.4521C9.53265 13.288 9.62484 13.0654 9.62484 12.8333C9.62484 12.6013 9.53265 12.3787 9.36856 12.2146C9.20446 12.0505 8.9819 11.9583 8.74984 11.9583H8.1665ZM12.2498 11.9583C12.0178 11.9583 11.7952 12.0505 11.6311 12.2146C11.467 12.3787 11.3748 12.6013 11.3748 12.8333C11.3748 13.0654 11.467 13.288 11.6311 13.4521C11.7952 13.6161 12.0178 13.7083 12.2498 13.7083H19.8332C20.0652 13.7083 20.2878 13.6161 20.4519 13.4521C20.616 13.288 20.7082 13.0654 20.7082 12.8333C20.7082 12.6013 20.616 12.3787 20.4519 12.2146C20.2878 12.0505 20.0652 11.9583 19.8332 11.9583H12.2498ZM8.1665 16.0417C7.93444 16.0417 7.71188 16.1339 7.54779 16.2979C7.38369 16.462 7.2915 16.6846 7.2915 16.9167C7.2915 17.1487 7.38369 17.3713 7.54779 17.5354C7.71188 17.6995 7.93444 17.7917 8.1665 17.7917H8.74984C8.9819 17.7917 9.20446 17.6995 9.36856 17.5354C9.53265 17.3713 9.62484 17.1487 9.62484 16.9167C9.62484 16.6846 9.53265 16.462 9.36856 16.2979C9.20446 16.1339 8.9819 16.0417 8.74984 16.0417H8.1665ZM12.2498 16.0417C12.0178 16.0417 11.7952 16.1339 11.6311 16.2979C11.467 16.462 11.3748 16.6846 11.3748 16.9167C11.3748 17.1487 11.467 17.3713 11.6311 17.5354C11.7952 17.6995 12.0178 17.7917 12.2498 17.7917H19.8332C20.0652 17.7917 20.2878 17.6995 20.4519 17.5354C20.616 17.3713 20.7082 17.1487 20.7082 16.9167C20.7082 16.6846 20.616 16.462 20.4519 16.2979C20.2878 16.1339 20.0652 16.0417 19.8332 16.0417H12.2498Z" fill="#98A2B3"/>
</svg>
