<svg viewBox="0 0 28 28" fill="none" xmlns="http://www.w3.org/2000/svg">
<path opacity="0.5" d="M25.6668 6.86818V21.133C25.6668 23.1187 25.6668 24.1115 25.0345 24.437C24.401 24.7637 23.5937 24.1862 21.9778 23.0312L20.1322 21.7128C19.4135 21.2007 19.0542 20.944 18.8605 20.5672C18.6668 20.1903 18.6668 19.7482 18.6668 18.8662V9.13501C18.6668 8.25184 18.6668 7.81084 18.8605 7.43401C19.0542 7.05601 19.4135 6.80051 20.1322 6.28718L21.9767 4.96884C23.5937 3.81384 24.401 3.23751 25.0333 3.56301C25.6668 3.88968 25.6668 4.88134 25.6668 6.86818ZM2.3335 6.86818V21.133C2.3335 23.1187 2.3335 24.1115 2.96583 24.437C3.59933 24.7637 4.40666 24.1862 6.0225 23.0312L7.86816 21.7128C8.58683 21.2007 8.94616 20.944 9.13983 20.5672C9.3335 20.1903 9.3335 19.7482 9.3335 18.8662V9.13501C9.3335 8.25184 9.3335 7.81084 9.13983 7.43401C8.94616 7.05601 8.58683 6.80051 7.86816 6.28718L6.0225 4.96884C4.40666 3.81384 3.59933 3.23751 2.96583 3.56301C2.3335 3.88968 2.3335 4.88134 2.3335 6.86818Z" fill="#98A2B3"/>
<path fill-rule="evenodd" clip-rule="evenodd" d="M14 26.5417C13.7679 26.5417 13.5454 26.4495 13.3813 26.2854C13.2172 26.1213 13.125 25.8988 13.125 25.6667V21C13.125 20.768 13.2172 20.5454 13.3813 20.3813C13.5454 20.2172 13.7679 20.125 14 20.125C14.2321 20.125 14.4546 20.2172 14.6187 20.3813C14.7828 20.5454 14.875 20.768 14.875 21V25.6667C14.875 25.8988 14.7828 26.1213 14.6187 26.2854C14.4546 26.4495 14.2321 26.5417 14 26.5417ZM14 17.2084C13.7679 17.2084 13.5454 17.1162 13.3813 16.9521C13.2172 16.788 13.125 16.5654 13.125 16.3334V11.6667C13.125 11.4346 13.2172 11.2121 13.3813 11.048C13.5454 10.8839 13.7679 10.7917 14 10.7917C14.2321 10.7917 14.4546 10.8839 14.6187 11.048C14.7828 11.2121 14.875 11.4346 14.875 11.6667V16.3334C14.875 16.5654 14.7828 16.788 14.6187 16.9521C14.4546 17.1162 14.2321 17.2084 14 17.2084ZM14 7.87504C13.7679 7.87504 13.5454 7.78285 13.3813 7.61876C13.2172 7.45466 13.125 7.2321 13.125 7.00004V2.33337C13.125 2.10131 13.2172 1.87875 13.3813 1.71466C13.5454 1.55056 13.7679 1.45837 14 1.45837C14.2321 1.45837 14.4546 1.55056 14.6187 1.71466C14.7828 1.87875 14.875 2.10131 14.875 2.33337V7.00004C14.875 7.2321 14.7828 7.45466 14.6187 7.61876C14.4546 7.78285 14.2321 7.87504 14 7.87504Z" fill="#98A2B3"/>
</svg>
