<svg viewBox="0 0 28 28" fill="none" xmlns="http://www.w3.org/2000/svg">
<path opacity="0.5" d="M24.5 18.6643V11.6643C24.5 8.36496 24.5 6.71529 23.4745 5.68979C22.5785 4.79379 21.2042 4.68063 18.6667 4.66663H9.33333C6.79583 4.68063 5.4215 4.79379 4.5255 5.68979C3.5 6.71529 3.5 8.36496 3.5 11.6643V18.6643C3.5 21.9648 3.5 23.6145 4.5255 24.64C5.54983 25.6643 7.20067 25.6643 10.5 25.6643H17.5C20.7993 25.6643 22.4502 25.6643 23.4745 24.64C24.5 23.6133 24.5 21.9648 24.5 18.6643Z" fill="#98A2B3"/>
<path d="M9.3335 4.08337C9.3335 3.61925 9.51787 3.17413 9.84606 2.84594C10.1742 2.51775 10.6194 2.33337 11.0835 2.33337H16.9168C17.381 2.33337 17.8261 2.51775 18.1543 2.84594C18.4825 3.17413 18.6668 3.61925 18.6668 4.08337V5.25004C18.6668 5.71417 18.4825 6.15929 18.1543 6.48748C17.8261 6.81567 17.381 7.00004 16.9168 7.00004H11.0835C10.6194 7.00004 10.1742 6.81567 9.84606 6.48748C9.51787 6.15929 9.3335 5.71417 9.3335 5.25004V4.08337Z" fill="#98A2B3"/>
<path fill-rule="evenodd" clip-rule="evenodd" d="M7.2915 16.9166C7.2915 16.6846 7.38369 16.462 7.54779 16.2979C7.71188 16.1338 7.93444 16.0416 8.1665 16.0416H17.4998C17.7319 16.0416 17.9545 16.1338 18.1186 16.2979C18.2826 16.462 18.3748 16.6846 18.3748 16.9166C18.3748 17.1487 18.2826 17.3712 18.1186 17.5353C17.9545 17.6994 17.7319 17.7916 17.4998 17.7916H8.1665C7.93444 17.7916 7.71188 17.6994 7.54779 17.5353C7.38369 17.3712 7.2915 17.1487 7.2915 16.9166ZM7.2915 21C7.2915 20.7679 7.38369 20.5453 7.54779 20.3812C7.71188 20.2171 7.93444 20.125 8.1665 20.125H14.5832C14.8152 20.125 15.0378 20.2171 15.2019 20.3812C15.366 20.5453 15.4582 20.7679 15.4582 21C15.4582 21.232 15.366 21.4546 15.2019 21.6187C15.0378 21.7828 14.8152 21.875 14.5832 21.875H8.1665C7.93444 21.875 7.71188 21.7828 7.54779 21.6187C7.38369 21.4546 7.2915 21.232 7.2915 21Z" fill="#98A2B3"/>
</svg>
