<svg viewBox="0 0 28 28" fill="none" xmlns="http://www.w3.org/2000/svg">
<path opacity="0.5" d="M14.0002 25.6667C20.4435 25.6667 25.6668 23.8385 25.6668 21.5833C25.6668 19.3282 20.4435 17.5 14.0002 17.5C7.55684 17.5 2.3335 19.3282 2.3335 21.5833C2.3335 23.8385 7.55684 25.6667 14.0002 25.6667Z" fill="#98A2B3"/>
<path d="M14 1.45825C14.2321 1.45825 14.4546 1.55044 14.6187 1.71453C14.7828 1.87863 14.875 2.10119 14.875 2.33325V3.54192L20.7177 6.46325L20.7807 6.49475C21.637 6.92292 22.3673 7.28809 22.876 7.64275C23.3917 8.00325 23.933 8.52592 23.933 9.33325C23.933 10.1406 23.3917 10.6633 22.876 11.0238C22.3673 11.3784 21.637 11.7436 20.7807 12.1718L14.875 15.1234V20.9999C14.875 21.232 14.7828 21.4545 14.6187 21.6186C14.4546 21.7827 14.2321 21.8749 14 21.8749C13.7679 21.8749 13.5454 21.7827 13.3813 21.6186C13.2172 21.4545 13.125 21.232 13.125 20.9999V2.33325C13.125 2.10119 13.2172 1.87863 13.3813 1.71453C13.5454 1.55044 13.7679 1.45825 14 1.45825Z" fill="#98A2B3"/>
</svg>
