<svg viewBox="0 0 28 28" fill="none" xmlns="http://www.w3.org/2000/svg">
<path opacity="0.5" d="M14.0002 25.6667C20.4435 25.6667 25.6668 20.4434 25.6668 14C25.6668 7.55672 20.4435 2.33337 14.0002 2.33337C7.55684 2.33337 2.3335 7.55672 2.3335 14C2.3335 20.4434 7.55684 25.6667 14.0002 25.6667Z" fill="#98A2B3"/>
<path d="M16.247 16.6856C16.5329 16.4628 16.7919 16.2038 17.311 15.6846L23.7744 9.22129C23.9307 9.06496 23.8595 8.79546 23.6507 8.72312C22.6405 8.36863 21.7233 7.79079 20.9674 7.03262C20.2088 6.27684 19.6305 5.35961 19.2757 4.34929C19.2045 4.13929 18.935 4.06929 18.7787 4.22562L12.3154 10.689C11.7962 11.207 11.5372 11.4671 11.3144 11.753C11.0508 12.0896 10.8251 12.4543 10.6412 12.8403C10.486 13.167 10.3694 13.5158 10.1384 14.2111L9.83854 15.1095L9.36137 16.5398L8.91571 17.8791C8.86004 18.0469 8.8521 18.2268 8.89278 18.3987C8.93345 18.5707 9.02114 18.728 9.14604 18.853C9.27094 18.978 9.42814 19.0659 9.60008 19.1067C9.77202 19.1476 9.95192 19.1398 10.1197 19.0843L11.4614 18.6375L12.8894 18.1615L13.7877 17.8616C14.4842 17.6295 14.8319 17.514 15.1585 17.3576C15.5459 17.1733 15.9087 16.9493 16.247 16.6856ZM25.7985 7.19829C26.4612 6.53582 26.8335 5.63727 26.8336 4.70029C26.8337 3.76331 26.4616 2.86466 25.7991 2.20204C25.1367 1.53942 24.2381 1.1671 23.3011 1.16699C22.3641 1.16688 21.4655 1.53899 20.8029 2.20146L20.594 2.40912C20.4951 2.50654 20.4215 2.62667 20.3796 2.75904C20.3377 2.89142 20.3288 3.03203 20.3537 3.16862C20.3852 3.34362 20.4435 3.60029 20.5497 3.90712C20.8354 4.72616 21.3038 5.46942 21.9194 6.08062C22.5302 6.69602 23.2731 7.16439 24.0917 7.45029C24.3985 7.55529 24.6552 7.61479 24.8302 7.64629C25.1102 7.69646 25.3902 7.60546 25.5909 7.40479L25.7985 7.19829Z" fill="#98A2B3"/>
</svg>
