<svg viewBox="0 0 28 28" fill="none" xmlns="http://www.w3.org/2000/svg">
<path opacity="0.5" d="M4.0415 23.9587C5.75183 25.6667 8.5005 25.6667 14.0002 25.6667C19.4998 25.6667 22.2497 25.6667 23.9577 23.9575C25.6668 22.2507 25.6668 19.4997 25.6668 14C25.6668 8.50037 25.6668 5.75054 23.9577 4.04137C22.2508 2.33337 19.4998 2.33337 14.0002 2.33337C8.5005 2.33337 5.75066 2.33337 4.0415 4.04137C2.3335 5.75171 2.3335 8.50037 2.3335 14C2.3335 19.4997 2.3335 22.2507 4.0415 23.9587Z" fill="#98A2B3"/>
<path d="M21.6776 11.053C21.7532 10.9644 21.8103 10.8615 21.8456 10.7505C21.8809 10.6395 21.8937 10.5225 21.8832 10.4065C21.8727 10.2905 21.8391 10.1777 21.7844 10.0748C21.7298 9.97193 21.6551 9.881 21.5648 9.80736C21.4746 9.73372 21.3705 9.67884 21.2588 9.64595C21.147 9.61306 21.0298 9.60282 20.914 9.61582C20.7983 9.62883 20.6862 9.66483 20.5846 9.7217C20.4829 9.77857 20.3936 9.85517 20.3219 9.94701L14.2926 17.332C14.1201 17.2702 13.9326 17.2641 13.7564 17.3147C13.5803 17.3653 13.4246 17.4699 13.3112 17.6139C13.1978 17.7578 13.1325 17.9338 13.1246 18.1168C13.1167 18.2999 13.1666 18.4808 13.2671 18.634L13.6008 19.145C13.676 19.2602 13.7774 19.3561 13.8966 19.4247C14.0159 19.4934 14.1496 19.533 14.2871 19.5403C14.4245 19.5475 14.5617 19.5223 14.6875 19.4666C14.8133 19.4109 14.9243 19.3263 15.0113 19.2197L21.6776 11.053ZM17.0109 11.053C17.0865 10.9644 17.1436 10.8615 17.1789 10.7505C17.2142 10.6395 17.227 10.5225 17.2165 10.4065C17.206 10.2905 17.1724 10.1777 17.1178 10.0748C17.0631 9.97193 16.9885 9.881 16.8982 9.80736C16.8079 9.73372 16.7038 9.67884 16.5921 9.64595C16.4803 9.61306 16.3631 9.60282 16.2474 9.61582C16.1316 9.62883 16.0196 9.66483 15.9179 9.7217C15.8162 9.77857 15.7269 9.85517 15.6553 9.94701L9.66676 17.283L7.67759 14.847C7.52917 14.6729 7.31845 14.5639 7.09059 14.5432C6.86274 14.5226 6.63587 14.5921 6.45859 14.7367C6.28132 14.8813 6.16774 15.0896 6.14219 15.317C6.11665 15.5443 6.18117 15.7726 6.32193 15.953L8.98893 19.2197C9.07099 19.3202 9.17438 19.4012 9.29162 19.4569C9.40885 19.5125 9.53699 19.5414 9.66676 19.5414C9.79653 19.5414 9.92467 19.5125 10.0419 19.4569C10.1591 19.4012 10.2625 19.3202 10.3446 19.2197L17.0109 11.053Z" fill="#98A2B3"/>
</svg>
