<svg viewBox="0 0 28 28" fill="none" xmlns="http://www.w3.org/2000/svg">
<path opacity="0.5" d="M4.40783 21.3803C5.585 22.1666 7.22183 22.1666 10.5002 22.1666H17.5002C20.7773 22.1666 22.4153 22.1666 23.5925 21.3803C24.1023 21.0398 24.5399 20.6021 24.8805 20.0923C25.6668 18.9151 25.6668 17.2783 25.6668 14C25.6668 10.7216 25.6668 9.08481 24.8805 7.90765C24.5399 7.39788 24.1023 6.96021 23.5925 6.61965C22.4153 5.83331 20.7785 5.83331 17.5002 5.83331H10.5002C7.223 5.83331 5.585 5.83331 4.40783 6.61965C3.89806 6.96021 3.46039 7.39788 3.11983 7.90765C2.3335 9.08481 2.3335 10.7216 2.3335 14C2.3335 17.2783 2.3335 18.9151 3.11983 20.0923C3.46039 20.6021 3.89806 21.0398 4.40783 21.3803Z" fill="#98A2B3"/>
<path d="M6.4165 18.375C6.18444 18.375 5.96188 18.2828 5.79779 18.1187C5.63369 17.9546 5.5415 17.7321 5.5415 17.5V10.5C5.5415 10.2679 5.63369 10.0454 5.79779 9.88128C5.96188 9.71719 6.18444 9.625 6.4165 9.625C6.64857 9.625 6.87113 9.71719 7.03522 9.88128C7.19932 10.0454 7.2915 10.2679 7.2915 10.5V17.5C7.2915 17.7321 7.19932 17.9546 7.03522 18.1187C6.87113 18.2828 6.64857 18.375 6.4165 18.375ZM20.7082 17.5C20.7082 17.7321 20.8004 17.9546 20.9645 18.1187C21.1285 18.2828 21.3511 18.375 21.5832 18.375C21.8152 18.375 22.0378 18.2828 22.2019 18.1187C22.366 17.9546 22.4582 17.7321 22.4582 17.5V10.5C22.4582 10.2679 22.366 10.0454 22.2019 9.88128C22.0378 9.71719 21.8152 9.625 21.5832 9.625C21.3511 9.625 21.1285 9.71719 20.9645 9.88128C20.8004 10.0454 20.7082 10.2679 20.7082 10.5V17.5Z" fill="#98A2B3"/>
<path fill-rule="evenodd" clip-rule="evenodd" d="M9.625 14C9.625 15.1603 10.0859 16.2731 10.9064 17.0936C11.7269 17.9141 12.8397 18.375 14 18.375C15.1603 18.375 16.2731 17.9141 17.0936 17.0936C17.9141 16.2731 18.375 15.1603 18.375 14C18.375 12.8397 17.9141 11.7269 17.0936 10.9064C16.2731 10.0859 15.1603 9.625 14 9.625C12.8397 9.625 11.7269 10.0859 10.9064 10.9064C10.0859 11.7269 9.625 12.8397 9.625 14ZM11.375 14C11.375 14.6962 11.6516 15.3639 12.1438 15.8562C12.6361 16.3484 13.3038 16.625 14 16.625C14.6962 16.625 15.3639 16.3484 15.8562 15.8562C16.3484 15.3639 16.625 14.6962 16.625 14C16.625 13.3038 16.3484 12.6361 15.8562 12.1438C15.3639 11.6516 14.6962 11.375 14 11.375C13.3038 11.375 12.6361 11.6516 12.1438 12.1438C11.6516 12.6361 11.375 13.3038 11.375 14Z" fill="#98A2B3"/>
</svg>
