<svg viewBox="0 0 28 28" fill="none" xmlns="http://www.w3.org/2000/svg">
<path opacity="0.5" d="M7.30317 24.9527H6.99984C5.89967 24.9527 5.35017 24.9527 5.00834 24.6108C4.6665 24.2713 4.6665 23.7207 4.6665 22.6205V21.3232C4.6665 20.7188 4.6665 20.4167 4.82167 20.146C4.97684 19.8753 5.21134 19.74 5.68034 19.467C8.76734 17.6715 13.1505 16.6612 16.0753 18.4053C16.2721 18.5228 16.4471 18.6659 16.6003 18.8347C16.7573 19.0062 16.8783 19.2076 16.9561 19.4267C17.0338 19.6459 17.0669 19.8784 17.0531 20.1106C17.0394 20.3427 16.9793 20.5698 16.8763 20.7783C16.7732 20.9867 16.6294 21.1724 16.4533 21.3243C16.3131 21.4575 16.1419 21.5537 15.9552 21.6043C16.0952 21.588 16.2293 21.5697 16.3577 21.5495C17.4205 21.3803 18.313 20.811 19.1297 20.1938L21.239 18.6013C21.6155 18.3281 22.0688 18.181 22.534 18.181C22.9992 18.181 23.4525 18.3281 23.829 18.6013C24.4975 19.1065 24.7028 19.9383 24.2793 20.6173C23.7858 21.4083 23.0905 22.4198 22.4232 23.0382C21.7558 23.6565 20.7595 24.2095 19.9475 24.6015C19.0468 25.0367 18.0528 25.2863 17.0413 25.4508C14.9903 25.7822 12.853 25.7308 10.823 25.3132C9.66488 25.0748 8.48558 24.9532 7.30317 24.9527Z" fill="#98A2B3"/>
<path d="M7.68382 3.01701C7.25566 3.44518 7.09582 4.03551 7.03632 4.95835C7.72021 4.94898 8.37344 4.67307 8.85696 4.18933C9.34048 3.70559 9.6161 3.05224 9.62516 2.36835C8.70349 2.42901 8.11199 2.58885 7.68382 3.01701ZM20.3165 3.01701C19.8883 2.58885 19.298 2.42901 18.3752 2.36951C18.3845 3.0534 18.6604 3.70663 19.1442 4.19015C19.6279 4.67367 20.2813 4.94929 20.9652 4.95835C20.9045 4.03668 20.7447 3.44518 20.3165 3.01701ZM20.3165 10.983C19.8883 11.4112 19.298 11.571 18.3752 11.6305C18.3845 10.9466 18.6604 10.2934 19.1442 9.80988C19.6279 9.32636 20.2813 9.05073 20.9652 9.04168C20.9045 9.96335 20.7447 10.5548 20.3165 10.983ZM7.68382 10.983C8.11199 11.4112 8.70232 11.571 9.62516 11.6305C9.61579 10.9466 9.33988 10.2934 8.85614 9.80988C8.3724 9.32636 7.71905 9.05073 7.03516 9.04168C7.09582 9.96335 7.25566 10.5548 7.68382 10.983Z" fill="#98A2B3"/>
<path fill-rule="evenodd" clip-rule="evenodd" d="M7 6.70831C8.16032 6.70831 9.27312 6.24738 10.0936 5.42691C10.9141 4.60643 11.375 3.49364 11.375 2.33331H16.625C16.625 3.49364 17.0859 4.60643 17.9064 5.42691C18.7269 6.24738 19.8397 6.70831 21 6.70831V7.29165C19.8397 7.29165 18.7269 7.75258 17.9064 8.57305C17.0859 9.39353 16.625 10.5063 16.625 11.6666H11.375C11.375 10.5063 10.9141 9.39353 10.0936 8.57305C9.27312 7.75258 8.16032 7.29165 7 7.29165V6.70831ZM14 8.16665C14.3094 8.16665 14.6062 8.04373 14.825 7.82494C15.0437 7.60615 15.1667 7.3094 15.1667 6.99998C15.1667 6.69056 15.0437 6.39381 14.825 6.17502C14.6062 5.95623 14.3094 5.83331 14 5.83331C13.6906 5.83331 13.3938 5.95623 13.175 6.17502C12.9562 6.39381 12.8333 6.69056 12.8333 6.99998C12.8333 7.3094 12.9562 7.60615 13.175 7.82494C13.3938 8.04373 13.6906 8.16665 14 8.16665Z" fill="#98A2B3"/>
</svg>
