<svg viewBox="0 0 28 28" fill="none" xmlns="http://www.w3.org/2000/svg">
<path d="M2.3335 14.1447C2.3335 7.62187 7.55666 2.33337 14.0002 2.33337C20.4437 2.33337 25.6668 7.62187 25.6668 14.1447V20.2615C25.6668 21.2147 25.6668 21.8692 25.5 22.4432C25.3397 22.9959 25.0651 23.5088 24.6939 23.9485C24.3226 24.3883 23.8631 24.7451 23.3452 24.9959C22.8108 25.2525 22.1738 25.354 21.244 25.5022L21.0923 25.5255C20.8108 25.5744 20.528 25.6152 20.2442 25.648C20.0003 25.6714 19.7518 25.6795 19.4975 25.6294C19.084 25.5458 18.6991 25.357 18.3801 25.081C18.061 24.8051 17.8186 24.4515 17.6763 24.0544C17.5946 23.8139 17.549 23.5627 17.541 23.3089C17.527 23.0709 17.527 22.7815 17.527 22.4432V17.5747C17.527 17.0789 17.527 16.6519 17.6402 16.2855C17.7655 15.8759 17.9961 15.5062 18.3089 15.2135C18.6217 14.9208 19.0058 14.7152 19.4228 14.6172C19.7915 14.532 20.2127 14.5659 20.7015 14.6055L20.81 14.6137L20.9383 14.6254C21.8518 14.6977 22.4783 14.7467 23.0092 14.9462C23.3833 15.087 23.7267 15.2764 24.0393 15.5144V14.1447C24.0393 8.53187 19.5442 3.98187 14.0002 3.98187C8.45616 3.98187 3.961 8.53187 3.961 14.1447V15.5144C4.2725 15.2775 4.61783 15.085 4.99116 14.9462C5.522 14.7479 6.1485 14.6977 7.062 14.6242L7.19033 14.6137L7.29883 14.6055C7.78883 14.5659 8.20883 14.532 8.5775 14.6172C8.99456 14.7152 9.37866 14.9208 9.69146 15.2135C10.0043 15.5062 10.2348 15.8759 10.3602 16.2855C10.4745 16.6519 10.4733 17.0789 10.4733 17.5747V22.442C10.4733 22.7815 10.4733 23.072 10.4593 23.3089C10.4453 23.5574 10.4127 23.807 10.324 24.0532C10.1818 24.4502 9.93957 24.8037 9.62073 25.0796C9.3019 25.3555 8.91725 25.5445 8.504 25.6282C8.25702 25.6713 8.00507 25.678 7.75616 25.648C7.52166 25.6247 7.23816 25.5792 6.908 25.5267L6.75633 25.5034C5.8265 25.354 5.18833 25.2525 4.65516 24.9947C4.13718 24.744 3.67768 24.3871 3.30646 23.9474C2.93524 23.5076 2.6606 22.9948 2.50033 22.442C2.36266 21.9695 2.33816 21.4422 2.33466 20.7375L2.3335 20.51V14.1447Z" fill="#98A2B3"/>
<path opacity="0.5" fill-rule="evenodd" clip-rule="evenodd" d="M14 6.70837C14.2321 6.70837 14.4546 6.80056 14.6187 6.96466C14.7828 7.12875 14.875 7.35131 14.875 7.58337V13.4167C14.875 13.6488 14.7828 13.8713 14.6187 14.0354C14.4546 14.1995 14.2321 14.2917 14 14.2917C13.7679 14.2917 13.5454 14.1995 13.3813 14.0354C13.2172 13.8713 13.125 13.6488 13.125 13.4167V7.58337C13.125 7.35131 13.2172 7.12875 13.3813 6.96466C13.5454 6.80056 13.7679 6.70837 14 6.70837ZM17.5 8.45837C17.7321 8.45837 17.9546 8.55056 18.1187 8.71466C18.2828 8.87875 18.375 9.10131 18.375 9.33337V11.6667C18.375 11.8988 18.2828 12.1213 18.1187 12.2854C17.9546 12.4495 17.7321 12.5417 17.5 12.5417C17.2679 12.5417 17.0454 12.4495 16.8813 12.2854C16.7172 12.1213 16.625 11.8988 16.625 11.6667V9.33337C16.625 9.10131 16.7172 8.87875 16.8813 8.71466C17.0454 8.55056 17.2679 8.45837 17.5 8.45837ZM10.5 8.45837C10.7321 8.45837 10.9546 8.55056 11.1187 8.71466C11.2828 8.87875 11.375 9.10131 11.375 9.33337V11.6667C11.375 11.8988 11.2828 12.1213 11.1187 12.2854C10.9546 12.4495 10.7321 12.5417 10.5 12.5417C10.2679 12.5417 10.0454 12.4495 9.88128 12.2854C9.71719 12.1213 9.625 11.8988 9.625 11.6667V9.33337C9.625 9.10131 9.71719 8.87875 9.88128 8.71466C10.0454 8.55056 10.2679 8.45837 10.5 8.45837Z" fill="#98A2B3"/>
</svg>
