<svg viewBox="0 0 28 28" fill="none" xmlns="http://www.w3.org/2000/svg">
<path d="M9.82583 24.0543C11.8745 25.13 12.8988 25.6667 14.0002 25.6667V14L3.07783 8.25183L3.03116 8.33C2.3335 9.513 2.3335 10.9865 2.3335 13.9323V14.0688C2.3335 17.0135 2.3335 18.487 3.03 19.67C3.72766 20.8542 4.983 21.5133 7.4925 22.8305L9.82583 24.0543Z" fill="#98A2B3"/>
<path opacity="0.7" d="M20.5065 5.17065L18.1731 3.94565C16.1256 2.87115 15.1013 2.33331 14 2.33331C12.8975 2.33331 11.8743 2.86998 9.82564 3.94565L7.4923 5.17065C5.03764 6.45865 3.7823 7.11665 3.07764 8.25065L14 14L24.9223 8.25181C24.2153 7.11665 22.9623 6.45865 20.5065 5.17065Z" fill="#98A2B3"/>
<path opacity="0.5" d="M24.9702 8.33L24.9223 8.25183L14 14V25.6667C15.1013 25.6667 16.1257 25.13 18.1743 24.0543L20.5077 22.8293C23.0172 21.5122 24.2725 20.8542 24.9702 19.67C25.6667 18.487 25.6667 17.0135 25.6667 14.07V13.9335C25.6667 10.9877 25.6667 9.513 24.9702 8.33Z" fill="#98A2B3"/>
<path d="M7.37694 5.23131L7.49361 5.17065L9.23544 4.25598L19.8521 10.0951L24.5479 7.74898C24.7074 7.92943 24.8482 8.12309 24.9703 8.32998C25.1453 8.62631 25.2759 8.94132 25.3739 9.29248L20.7084 11.6246V15.1666C20.7084 15.3987 20.6163 15.6213 20.4522 15.7854C20.2881 15.9495 20.0655 16.0416 19.8334 16.0416C19.6014 16.0416 19.3788 15.9495 19.2147 15.7854C19.0506 15.6213 18.9584 15.3987 18.9584 15.1666V12.4996L14.8751 14.5413V25.5546C14.5893 25.6287 14.2953 25.6664 14.0001 25.6666C13.7108 25.6666 13.4249 25.6293 13.1251 25.5546V14.5413L2.62744 9.29131C2.72544 8.94131 2.85611 8.62631 3.03111 8.32998C3.15244 8.12309 3.29322 7.92943 3.45344 7.74898L14.0001 13.0223L17.9516 11.0471L7.37694 5.23131Z" fill="#98A2B3"/>
</svg>
