<svg viewBox="0 0 28 28" fill="none" xmlns="http://www.w3.org/2000/svg">
<path opacity="0.5" d="M23.0033 23.7557C24.667 22.8492 25.6668 21.6849 25.6668 20.4167C25.6668 19.0727 24.5433 17.8454 22.6965 16.9167C20.5603 15.8434 17.4558 15.1667 14.0002 15.1667C10.5445 15.1667 7.44 15.8434 5.30383 16.9167C3.457 17.8454 2.3335 19.0727 2.3335 20.4167C2.3335 21.7607 3.457 22.9881 5.30383 23.9167C7.44 24.9901 10.5445 25.6667 14.0002 25.6667C17.625 25.6667 20.8625 24.9236 23.0033 23.7557Z" fill="#98A2B3"/>
<path fill-rule="evenodd" clip-rule="evenodd" d="M5.8335 9.93409C5.8335 5.73642 9.48983 2.33325 14.0002 2.33325C18.5105 2.33325 22.1668 5.73642 22.1668 9.93409C22.1668 14.0991 19.5605 18.9583 15.4935 20.6966C15.0211 20.8968 14.5132 21 14.0002 21C13.4871 21 12.9792 20.8968 12.5068 20.6966C8.43983 18.9583 5.8335 14.0979 5.8335 9.93409ZM14.0002 12.8333C14.619 12.8333 15.2125 12.5874 15.6501 12.1498C16.0877 11.7122 16.3335 11.1188 16.3335 10.4999C16.3335 9.88108 16.0877 9.28759 15.6501 8.85C15.2125 8.41242 14.619 8.16658 14.0002 8.16658C13.3813 8.16658 12.7878 8.41242 12.3502 8.85C11.9127 9.28759 11.6668 9.88108 11.6668 10.4999C11.6668 11.1188 11.9127 11.7122 12.3502 12.1498C12.7878 12.5874 13.3813 12.8333 14.0002 12.8333Z" fill="#98A2B3"/>
</svg>
