<svg viewBox="0 0 28 28" fill="none" xmlns="http://www.w3.org/2000/svg">
<path opacity="0.5" d="M14.0002 25.6666C20.4437 25.6666 25.6668 20.4435 25.6668 14C25.6668 7.55648 20.4437 2.33331 14.0002 2.33331C7.55666 2.33331 2.3335 7.55648 2.3335 14C2.3335 15.8666 2.77216 17.6306 3.55033 19.1951C3.758 19.6105 3.82683 20.0853 3.70666 20.5345L3.0125 23.1315C2.94374 23.3885 2.94381 23.6591 3.01268 23.916C3.08155 24.173 3.2168 24.4073 3.40486 24.5955C3.59293 24.7837 3.82718 24.9191 4.08411 24.9881C4.34104 25.0572 4.61161 25.0574 4.86866 24.9888L7.46566 24.2935C7.91644 24.1796 8.39332 24.2348 8.80616 24.4486C10.4196 25.252 12.1978 25.669 14.0002 25.6666Z" fill="#98A2B3"/>
<path d="M14.8748 9.33331C14.8748 9.10125 14.7826 8.87869 14.6186 8.71459C14.4545 8.5505 14.2319 8.45831 13.9998 8.45831C13.7678 8.45831 13.5452 8.5505 13.3811 8.71459C13.217 8.87869 13.1248 9.10125 13.1248 9.33331V9.34498C11.8543 9.66581 10.7915 10.6668 10.7915 12.0551C10.7915 13.755 12.384 14.875 13.9998 14.875C14.9612 14.875 15.4582 15.4968 15.4582 15.9448C15.4582 16.3928 14.9612 17.0135 13.9998 17.0135C13.0385 17.0135 12.5415 16.3928 12.5415 15.9448C12.5415 15.7127 12.4493 15.4902 12.2852 15.3261C12.1211 15.162 11.8986 15.0698 11.6665 15.0698C11.4344 15.0698 11.2119 15.162 11.0478 15.3261C10.8837 15.4902 10.7915 15.7127 10.7915 15.9448C10.7915 17.3331 11.8543 18.3353 13.1248 18.655V18.6666C13.1248 18.8987 13.217 19.1213 13.3811 19.2854C13.5452 19.4495 13.7678 19.5416 13.9998 19.5416C14.2319 19.5416 14.4545 19.4495 14.6186 19.2854C14.7826 19.1213 14.8748 18.8987 14.8748 18.6666V18.655C16.1453 18.3353 17.2082 17.3331 17.2082 15.9448C17.2082 14.245 15.6157 13.125 13.9998 13.125C13.0385 13.125 12.5415 12.5031 12.5415 12.0551C12.5415 11.6071 13.0385 10.9865 13.9998 10.9865C14.9612 10.9865 15.4582 11.6071 15.4582 12.0551C15.4582 12.2872 15.5504 12.5098 15.7145 12.6739C15.8785 12.838 16.1011 12.9301 16.3332 12.9301C16.5652 12.9301 16.7878 12.838 16.9519 12.6739C17.116 12.5098 17.2082 12.2872 17.2082 12.0551C17.2082 10.6668 16.1453 9.66581 14.8748 9.34498V9.33331Z" fill="#98A2B3"/>
</svg>
