<svg viewBox="0 0 28 28" fill="none" xmlns="http://www.w3.org/2000/svg">
<path d="M2.65672 6.12157C2.68746 6.01077 2.73973 5.90711 2.81056 5.81652C2.88139 5.72593 2.96937 5.65019 3.06949 5.59363C3.16961 5.53707 3.27989 5.5008 3.39404 5.48689C3.50818 5.47298 3.62395 5.48171 3.73472 5.51257L5.72155 6.06324C6.24796 6.20656 6.72833 6.48366 7.11594 6.86759C7.50355 7.25152 7.78522 7.72922 7.93355 8.25424L10.4431 17.3379L10.6274 17.9761C11.3714 18.2503 11.9984 18.7723 12.4031 19.4542L12.7647 19.3422L23.1131 16.6531C23.2243 16.6241 23.3401 16.6174 23.454 16.6332C23.5678 16.649 23.6774 16.6871 23.7766 16.7452C23.8757 16.8034 23.9624 16.8805 24.0317 16.9722C24.101 17.0639 24.1516 17.1683 24.1806 17.2796C24.2095 17.3908 24.2163 17.5066 24.2005 17.6205C24.1846 17.7343 24.1466 17.8439 24.0884 17.9431C24.0302 18.0422 23.9531 18.1289 23.8614 18.1982C23.7697 18.2675 23.6653 18.3181 23.5541 18.3471L13.2442 21.0257L12.8592 21.1447C12.8522 22.6264 11.8291 23.9821 10.2809 24.3834C8.42589 24.8664 6.51839 23.7977 6.02139 21.9987C5.52439 20.1997 6.62572 18.3482 8.48072 17.8664C8.57327 17.8431 8.66544 17.8228 8.75722 17.8057L6.24655 8.71974C6.17866 8.48646 6.05171 8.27466 5.87798 8.10482C5.70426 7.93497 5.48964 7.81284 5.25489 7.75024L3.26689 7.19841C3.1561 7.16778 3.05244 7.11564 2.96181 7.04494C2.87119 6.97425 2.79538 6.88639 2.73872 6.78639C2.68206 6.6864 2.64565 6.57621 2.63158 6.46214C2.61751 6.34807 2.62605 6.23234 2.65672 6.12157Z" fill="#98A2B3"/>
<path opacity="0.5" d="M11.1578 10.1851L11.7586 12.3586C12.3245 14.4061 12.6068 15.4304 13.4386 15.8959C14.2705 16.3626 15.3263 16.0872 17.438 15.5389L19.678 14.9556C21.7896 14.4072 22.8455 14.1331 23.3261 13.3269C23.8068 12.5196 23.5245 11.4952 22.9575 9.44774L22.3578 7.27541C21.792 5.22675 21.5085 4.20241 20.6778 3.73691C19.8448 3.27025 18.789 3.54558 16.6773 4.09508L14.4373 4.67608C12.3256 5.22441 11.2698 5.49975 10.7903 6.30708C10.3096 7.11325 10.592 8.13758 11.1578 10.1851Z" fill="#98A2B3"/>
</svg>
