<svg viewBox="0 0 28 28" fill="none" xmlns="http://www.w3.org/2000/svg">
<path opacity="0.5" d="M2.3335 13.9999C2.3335 8.50025 2.3335 5.75042 4.0415 4.04125C5.75183 2.33325 8.5005 2.33325 14.0002 2.33325C19.4998 2.33325 22.2497 2.33325 23.9577 4.04125C25.6668 5.75159 25.6668 8.50025 25.6668 13.9999C25.6668 19.4996 25.6668 22.2494 23.9577 23.9574C22.2508 25.6666 19.4998 25.6666 14.0002 25.6666C8.5005 25.6666 5.75066 25.6666 4.0415 23.9574C2.3335 22.2506 2.3335 19.4996 2.3335 13.9999Z" fill="#98A2B3"/>
<path fill-rule="evenodd" clip-rule="evenodd" d="M8.0665 13.1249H2.3335V14.8749H11.857C11.66 15.7055 11.1885 16.4453 10.5188 16.9746C9.84915 17.5039 9.02044 17.7918 8.16683 17.7916C7.93476 17.7916 7.7122 17.8838 7.54811 18.0479C7.38402 18.212 7.29183 18.4345 7.29183 18.6666C7.29183 18.8986 7.38402 19.1212 7.54811 19.2853C7.7122 19.4494 7.93476 19.5416 8.16683 19.5416C9.19631 19.5419 10.2055 19.2554 11.0813 18.7143C11.9571 18.1731 12.6648 17.3987 13.1252 16.4779V25.6666H14.8752V16.4779C15.3355 17.3987 16.0432 18.1731 16.919 18.7143C17.7948 19.2554 18.804 19.5419 19.8335 19.5416C20.0656 19.5416 20.2881 19.4494 20.4522 19.2853C20.6163 19.1212 20.7085 18.8986 20.7085 18.6666C20.7085 18.4345 20.6163 18.212 20.4522 18.0479C20.2881 17.8838 20.0656 17.7916 19.8335 17.7916C18.9799 17.7918 18.1512 17.5039 17.4815 16.9746C16.8118 16.4453 16.3403 15.7055 16.1433 14.8749H25.6668V13.1249H19.935C20.3433 12.6139 20.6502 12.0108 20.817 11.3434C21.4447 8.83158 19.1685 6.55659 16.6578 7.18425C16.0071 7.34674 15.3991 7.64757 14.8752 8.06625V2.33325H13.1252V8.06625C12.6016 7.64772 11.9939 7.34689 11.3437 7.18425C8.83183 6.55659 6.55683 8.83158 7.1845 11.3434C7.35133 12.0108 7.657 12.6139 8.0665 13.1249ZM13.1252 13.1249H11.6633C11.0216 13.1145 10.4012 12.8926 9.89835 12.4937C9.3955 12.0949 9.03826 11.5413 8.882 10.9188C8.81163 10.6372 8.81539 10.3423 8.89289 10.0627C8.9704 9.78302 9.11901 9.52823 9.32426 9.3231C9.5295 9.11797 9.78438 8.9695 10.0641 8.89216C10.3437 8.81481 10.6387 8.81123 10.9202 8.88175C11.5427 9.03802 12.0963 9.39526 12.4951 9.89811C12.894 10.401 13.1159 11.0213 13.1263 11.6631L13.1252 13.1249ZM16.337 13.1249H14.8752V11.6724C14.8836 11.0291 15.1045 10.4065 15.5035 9.9018C15.9026 9.39706 16.4573 9.03843 17.0813 8.88175C17.3627 8.81148 17.6575 8.81525 17.937 8.8927C18.2165 8.97016 18.4712 9.11866 18.6763 9.32375C18.8814 9.52884 19.0299 9.78354 19.1074 10.063C19.1848 10.3426 19.1886 10.6374 19.1183 10.9188C18.9621 11.5413 18.6048 12.0949 18.102 12.4937C17.5991 12.8926 16.9787 13.1145 16.337 13.1249Z" fill="#98A2B3"/>
</svg>
