<svg viewBox="0 0 28 28" fill="none" xmlns="http://www.w3.org/2000/svg">
<path fill-rule="evenodd" clip-rule="evenodd" d="M2.36621 13.1249C2.58692 10.1904 3.90842 7.44778 6.0659 5.44651C8.22338 3.44523 11.0575 2.3332 14.0002 2.33325C13.0319 2.33325 12.1685 2.75792 11.4569 3.40775C10.751 4.05409 10.1549 4.95709 9.67188 6.02342C9.18654 7.09675 8.80854 8.35209 8.55304 9.71359C8.34582 10.84 8.22182 11.9802 8.18204 13.1249H2.36621ZM2.36621 14.8749H8.18204C8.22404 16.0439 8.34888 17.1943 8.55304 18.2863C8.80971 19.6478 9.18654 20.9031 9.67188 21.9764C10.1549 23.0428 10.751 23.9458 11.4569 24.5921C12.1685 25.2419 13.0319 25.6666 14.0002 25.6666C7.85188 25.6666 2.81304 20.9101 2.36621 14.8749Z" fill="#98A2B3"/>
<path d="M14 2.33325C14.9695 2.33325 15.8317 2.75792 16.5433 3.40775C17.2492 4.05409 17.8465 4.95709 18.3283 6.02342C18.8148 7.09675 19.1917 8.35209 19.4472 9.71359C19.6513 10.8056 19.7762 11.9559 19.8182 13.1249H25.634C25.4133 10.1904 24.0918 7.44778 21.9343 5.44651C19.7768 3.44523 16.9428 2.3332 14 2.33325ZM19.4472 18.2863C19.1917 19.6478 18.8148 20.9031 18.3283 21.9764C17.8465 23.0428 17.2492 23.9458 16.5433 24.5921C15.8317 25.2419 14.9695 25.6666 14 25.6666C20.1483 25.6666 25.1872 20.9101 25.634 14.8749H19.8182C19.7784 16.0196 19.6544 17.1598 19.4472 18.2863Z" fill="#98A2B3"/>
<path opacity="0.5" d="M14.0002 3.96191C13.6794 3.96191 13.2652 4.09841 12.7834 4.53941C12.2981 4.98275 11.8116 5.67925 11.3822 6.62775C10.9552 7.57041 10.6087 8.70908 10.3707 9.97958C10.1841 10.9817 10.0674 12.0422 10.0254 13.1249H17.9751C17.9371 12.0694 17.8216 11.0182 17.6297 9.97958C17.3917 8.70791 17.0464 7.57041 16.6182 6.62891C16.1889 5.67925 15.7036 4.98391 15.2182 4.53941C14.7352 4.09841 14.3211 3.96191 14.0002 3.96191ZM10.3707 18.0202C10.6087 19.2919 10.9552 20.4294 11.3822 21.3721C11.8116 22.3206 12.2981 23.0171 12.7822 23.4604C13.2652 23.9026 13.6806 24.0391 14.0002 24.0391C14.3211 24.0391 14.7352 23.9026 15.2182 23.4616C15.7036 23.0171 16.1889 22.3206 16.6182 21.3721C17.0452 20.4294 17.3917 19.2919 17.6297 18.0202C17.8176 17.0192 17.9342 15.9576 17.9751 14.8749H10.0254C10.0662 15.9576 10.1829 17.0192 10.3707 18.0202Z" fill="#98A2B3"/>
</svg>
