<svg viewBox="0 0 28 28" fill="none" xmlns="http://www.w3.org/2000/svg">
<path opacity="0.5" d="M14.0002 18.6666C18.5105 18.6666 22.1668 15.0102 22.1668 10.4999C22.1668 5.98959 18.5105 2.33325 14.0002 2.33325C9.48984 2.33325 5.8335 5.98959 5.8335 10.4999C5.8335 15.0102 9.48984 18.6666 14.0002 18.6666Z" fill="#98A2B3"/>
<path d="M8.8035 16.8L8.576 17.5L7.83283 20.2102C7.10017 22.8842 6.73383 24.2212 7.22267 24.9527C7.39417 25.2094 7.624 25.4147 7.89117 25.5512C8.65183 25.9385 9.82783 25.326 12.1787 24.101C12.9603 23.6927 13.3523 23.4897 13.7677 23.4454C13.9224 23.429 14.0772 23.429 14.232 23.4454C14.6473 23.4897 15.0382 23.6927 15.821 24.101C18.1718 25.326 19.3478 25.9385 20.1085 25.5512C20.3757 25.4147 20.6055 25.2094 20.777 24.9527C21.267 24.2212 20.8995 22.8842 20.1668 20.2102L19.4237 17.5L19.1962 16.8C17.7845 17.9667 15.9738 18.6667 13.9998 18.6667C12.0258 18.6667 10.2152 17.9667 8.8035 16.8Z" fill="#98A2B3"/>
</svg>
