<svg  viewBox="0 0 28 28" fill="none" xmlns="http://www.w3.org/2000/svg">
<path d="M19.8335 11.0833L20.6012 10.6995C22.8715 9.56434 24.0078 8.99617 24.8362 9.5095C25.6668 10.0228 25.6668 11.2922 25.6668 13.8297V14.1703C25.6668 16.709 25.6668 17.9772 24.8373 18.4905C24.0067 19.0038 22.8715 18.4357 20.6023 17.3005L19.8335 16.9167V11.0833Z" fill="#98A2B3"/>
<path opacity="0.5" fill-rule="evenodd" clip-rule="evenodd" d="M3.39283 6.37234C2.3335 7.66501 2.3335 9.58067 2.3335 13.4167V14.5833C2.3335 18.4182 2.3335 20.3362 3.39283 21.6277C3.5866 21.8637 3.80309 22.0802 4.03916 22.274C5.33183 23.3333 7.2475 23.3333 11.0835 23.3333C14.9183 23.3333 16.8363 23.3333 18.1278 22.274C18.3643 22.0796 18.5797 21.8641 18.7742 21.6277C19.8335 20.335 19.8335 18.4193 19.8335 14.5833V13.4167C19.8335 9.58184 19.8335 7.66384 18.7742 6.37234C18.5804 6.13626 18.3639 5.91978 18.1278 5.72601C16.8352 4.66667 14.9195 4.66667 11.0835 4.66667C7.24866 4.66667 5.33066 4.66667 4.03916 5.72601C3.80309 5.91978 3.5866 6.13626 3.39283 6.37234Z" fill="#98A2B3"/>
<path d="M16.3335 9.91667C16.3335 10.1465 16.2882 10.374 16.2003 10.5864C16.1123 10.7987 15.9834 10.9916 15.8209 11.1541C15.6584 11.3166 15.4655 11.4455 15.2532 11.5335C15.0409 11.6214 14.8133 11.6667 14.5835 11.6667C14.3537 11.6667 14.1261 11.6214 13.9138 11.5335C13.7015 11.4455 13.5086 11.3166 13.3461 11.1541C13.1836 10.9916 13.0547 10.7987 12.9667 10.5864C12.8788 10.374 12.8335 10.1465 12.8335 9.91667C12.8335 9.45254 13.0179 9.00742 13.3461 8.67923C13.6742 8.35105 14.1194 8.16667 14.5835 8.16667C15.0476 8.16667 15.4927 8.35105 15.8209 8.67923C16.1491 9.00742 16.3335 9.45254 16.3335 9.91667Z" fill="#98A2B3"/>
</svg>
