<svg viewBox="0 0 28 28" fill="none" xmlns="http://www.w3.org/2000/svg">
<path opacity="0.5" fill-rule="evenodd" clip-rule="evenodd" d="M4.0415 4.04133C2.3335 5.75166 2.3335 8.50033 2.3335 14C2.3335 19.4997 2.3335 22.2495 4.0415 23.9575C5.75183 25.6667 8.5005 25.6667 14.0002 25.6667C19.4998 25.6667 22.2497 25.6667 23.9577 23.9575C25.6668 22.2507 25.6668 19.4997 25.6668 14C25.6668 8.50033 25.6668 5.75049 23.9577 4.04133C22.2508 2.33333 19.4998 2.33333 14.0002 2.33333C8.5005 2.33333 5.75066 2.33333 4.0415 4.04133Z" fill="#98A2B3"/>
<path d="M9.92139 15.3732C9.59407 15.0257 9.14263 14.8217 8.66552 14.8058C8.18842 14.7898 7.72436 14.9632 7.37455 15.288L6.42955 16.1665C6.25937 16.3245 6.03342 16.4083 5.80139 16.3997C5.56936 16.3911 5.35026 16.2906 5.1923 16.1204C5.03435 15.9502 4.95046 15.7243 4.9591 15.4922C4.96775 15.2602 5.06821 15.0411 5.23839 14.8832L6.18339 14.0058C6.87164 13.3664 7.78483 13.0251 8.72377 13.0563C9.66271 13.0876 10.5512 13.4889 11.1954 14.1727L14.2836 17.451C14.4396 17.6167 14.6512 17.7191 14.8779 17.7389C15.1047 17.7587 15.3308 17.6944 15.5132 17.5583C16.1914 17.0532 17.0265 16.8044 17.8705 16.8558C18.7146 16.9073 19.5132 17.2558 20.1251 17.8395L22.7711 20.3677C22.9315 20.5296 23.0225 20.7477 23.0246 20.9757C23.0266 21.2036 22.9397 21.4234 22.7822 21.5882C22.6247 21.753 22.4091 21.8498 22.1812 21.8581C21.9534 21.8663 21.7314 21.7853 21.5624 21.6323L18.9164 19.1053C18.6036 18.8073 18.1955 18.6295 17.7643 18.6032C17.333 18.5769 16.9064 18.704 16.5597 18.9618C16.033 19.3548 15.3802 19.5403 14.7255 19.4831C14.0709 19.4259 13.4601 19.1299 13.0096 18.6515L9.92139 15.3732ZM21.0001 9.33333C21.0001 9.95217 20.7542 10.5457 20.3166 10.9832C19.8791 11.4208 19.2856 11.6667 18.6667 11.6667C18.0479 11.6667 17.4544 11.4208 17.0168 10.9832C16.5792 10.5457 16.3334 9.95217 16.3334 9.33333C16.3334 8.71449 16.5792 8.121 17.0168 7.68342C17.4544 7.24583 18.0479 7 18.6667 7C19.2856 7 19.8791 7.24583 20.3166 7.68342C20.7542 8.121 21.0001 8.71449 21.0001 9.33333Z" fill="#98A2B3"/>
</svg>
