<svg viewBox="0 0 28 28" fill="none" xmlns="http://www.w3.org/2000/svg">
<path d="M21.0002 12.6618V7H16.3335V12.6618C16.3335 13.0002 16.3335 13.1693 16.4443 13.2382C16.5552 13.307 16.7057 13.23 17.009 13.0795L18.458 12.3538C18.5607 12.3037 18.612 12.278 18.6668 12.278C18.7217 12.278 18.773 12.3037 18.8757 12.3538L20.3247 13.0795C20.628 13.2312 20.7797 13.3058 20.8893 13.2382C21.0002 13.1682 21.0002 13.0002 21.0002 12.6618Z" fill="#98A2B3"/>
<path opacity="0.5" d="M2.3335 8.10825C2.3335 7.07808 2.3335 6.56358 2.41516 6.13425C2.58926 5.2124 3.03716 4.36442 3.70042 3.70094C4.36369 3.03747 5.21153 2.5893 6.13333 2.41492C6.56383 2.33325 7.0795 2.33325 8.1085 2.33325C8.55883 2.33325 8.78516 2.33325 9.00216 2.35309C9.93672 2.44085 10.8231 2.80841 11.5455 3.40775C11.7135 3.54659 11.8722 3.70525 12.1918 4.02492L12.8335 4.66659C13.7855 5.61859 14.2615 6.09458 14.8308 6.41075C15.1438 6.58516 15.4757 6.72296 15.8202 6.82142C16.4478 6.99992 17.121 6.99992 18.4662 6.99992H18.9025C21.9732 6.99992 23.5097 6.99992 24.5072 7.89825C24.5997 7.97992 24.6868 8.06703 24.7685 8.15958C25.6668 9.15708 25.6668 10.6936 25.6668 13.7643V16.3333C25.6668 20.7328 25.6668 22.9331 24.2995 24.2992C22.9322 25.6654 20.733 25.6666 16.3335 25.6666H11.6668C7.26733 25.6666 5.067 25.6666 3.70083 24.2992C2.33466 22.9319 2.3335 20.7328 2.3335 16.3333V8.10825Z" fill="#98A2B3"/>
</svg>
