<svg viewBox="0 0 28 28" fill="none" xmlns="http://www.w3.org/2000/svg">
<path fill-rule="evenodd" clip-rule="evenodd" d="M6.859 3.35887C5.8335 4.38321 5.8335 6.03404 5.8335 9.33337V18.6667C5.8335 21.966 5.8335 23.6169 6.859 24.6412C7.88333 25.6667 9.53416 25.6667 12.8335 25.6667H15.1668C18.4662 25.6667 20.117 25.6667 21.1413 24.6412C22.1668 23.6169 22.1668 21.966 22.1668 18.6667V9.33337C22.1668 6.03404 22.1668 4.38321 21.1413 3.35887C20.117 2.33337 18.4662 2.33337 15.1668 2.33337H12.8335C9.53416 2.33337 7.88333 2.33337 6.859 3.35887ZM9.62516 19.8334C9.62516 19.6013 9.71735 19.3787 9.88144 19.2147C10.0455 19.0506 10.2681 18.9584 10.5002 18.9584H14.0002C14.2322 18.9584 14.4548 19.0506 14.6189 19.2147C14.783 19.3787 14.8752 19.6013 14.8752 19.8334C14.8752 20.0654 14.783 20.288 14.6189 20.4521C14.4548 20.6162 14.2322 20.7084 14.0002 20.7084H10.5002C10.2681 20.7084 10.0455 20.6162 9.88144 20.4521C9.71735 20.288 9.62516 20.0654 9.62516 19.8334ZM10.5002 14.2917C10.2681 14.2917 10.0455 14.3839 9.88144 14.548C9.71735 14.7121 9.62516 14.9346 9.62516 15.1667C9.62516 15.3988 9.71735 15.6213 9.88144 15.7854C10.0455 15.9495 10.2681 16.0417 10.5002 16.0417H17.5002C17.7322 16.0417 17.9548 15.9495 18.1189 15.7854C18.283 15.6213 18.3752 15.3988 18.3752 15.1667C18.3752 14.9346 18.283 14.7121 18.1189 14.548C17.9548 14.3839 17.7322 14.2917 17.5002 14.2917H10.5002ZM9.62516 10.5C9.62516 10.268 9.71735 10.0454 9.88144 9.88132C10.0455 9.71723 10.2681 9.62504 10.5002 9.62504H17.5002C17.7322 9.62504 17.9548 9.71723 18.1189 9.88132C18.283 10.0454 18.3752 10.268 18.3752 10.5C18.3752 10.7321 18.283 10.9547 18.1189 11.1188C17.9548 11.2829 17.7322 11.375 17.5002 11.375H10.5002C10.2681 11.375 10.0455 11.2829 9.88144 11.1188C9.71735 10.9547 9.62516 10.7321 9.62516 10.5Z" fill="#98A2B3"/>
<path opacity="0.5" d="M6.10766 4.73438C5.8335 5.76454 5.8335 7.20654 5.8335 9.33337V18.6667C5.8335 20.7935 5.8335 22.2344 6.10766 23.2657L5.8335 23.2447C4.696 23.1327 3.93066 22.8795 3.359 22.3079C2.3335 21.2835 2.3335 19.6327 2.3335 16.3334V11.6667C2.3335 8.36621 2.3335 6.71654 3.359 5.69221C3.93066 5.12054 4.696 4.86738 5.8335 4.75538L6.10766 4.73438ZM21.8927 23.2657C22.1668 22.2344 22.1668 20.7924 22.1668 18.6667V9.33337C22.1668 7.20654 22.1668 5.76454 21.8927 4.73438L22.1668 4.75538C23.3043 4.86738 24.0697 5.12054 24.6413 5.69221C25.6668 6.71654 25.6668 8.36504 25.6668 11.6655V16.3322C25.6668 19.6339 25.6668 21.2824 24.6413 22.3079C24.0697 22.8795 23.3043 23.1327 22.1668 23.2447L21.8927 23.2657Z" fill="#98A2B3"/>
</svg>
