<svg width="52" height="52" viewBox="0 0 52 52" fill="none" xmlns="http://www.w3.org/2000/svg">
<path fill-rule="evenodd" clip-rule="evenodd" d="M7.41016 25.9999C7.41016 15.7329 15.7332 7.40991 26.0002 7.40991C36.2671 7.40991 44.5902 15.7329 44.5902 25.9999C44.5902 36.2669 36.2671 44.5899 26.0002 44.5899C15.7332 44.5899 7.41016 36.2669 7.41016 25.9999ZM35.4384 20.1592C34.5461 19.2244 33.0649 19.1899 32.1301 20.0823L23.418 28.3983L19.8698 25.0114C18.935 24.1191 17.4538 24.1535 16.5615 25.0884C15.6691 26.0232 15.7036 27.5044 16.6384 28.3967L21.8022 33.3259C22.7065 34.189 24.1294 34.189 25.0337 33.3259L35.3615 23.4676C36.2963 22.5752 36.3308 21.094 35.4384 20.1592Z" fill="#5288F9"/>
</svg>
