<svg width="64" height="64" viewBox="0 0 64 64" fill="none" xmlns="http://www.w3.org/2000/svg">
<rect width="64" height="64" rx="12" fill="#0C111D"/>
<g clip-path="url(#clip0_3078_25915)">
<path d="M15.6959 42.012C15.8071 41.9771 15.8323 41.8375 15.7448 41.7633C14.1783 40.4469 12.9675 39.0882 12.0501 37.8824C11.933 37.7282 11.6988 37.7282 11.5788 37.8795C11.0512 38.3857 10.4762 38.9995 9.9026 39.7312C9.32312 40.4687 8.86221 41.1756 8.49614 41.8098C8.46205 41.8535 8.45612 41.9146 8.48132 41.964C8.50503 42.0106 8.55394 42.0455 8.61619 42.044C8.61619 42.044 9.44465 42.207 10.5547 42.3291C11.8055 42.4659 12.8771 42.5662 14.1916 42.3641C14.8082 42.2695 15.321 42.1313 15.6959 42.012Z" fill="white"/>
<path fill-rule="evenodd" clip-rule="evenodd" d="M28.5043 35.1225H29.8811H29.8826C30.4828 35.8905 31.1127 36.6673 31.747 37.4063H26.8725C23.0652 37.4063 19.489 35.6127 17.26 32.5827L14.8546 29.3127H18.167L18.8917 30.299C21.1207 33.3275 24.6969 35.1225 28.5043 35.1225ZM27.8642 32.4374C25.6545 32.4374 23.5797 31.3959 22.2873 29.6387L22.0487 29.3128H18.7363L19.1661 29.8976C21.3951 32.9276 24.9713 34.7211 28.7787 34.7211H29.5716C28.9565 33.924 28.38 33.1458 27.8672 32.4374H27.8642ZM26.3213 30.2511C25.9686 29.7376 25.4158 29.4016 24.8022 29.3128H22.6162L22.8889 29.6838C23.9752 31.1602 25.7196 32.0359 27.5751 32.0359C27.0727 31.3348 26.6429 30.7195 26.3213 30.2511ZM32.0933 37.8064H26.5979C22.7905 37.8064 19.2143 36.0114 16.9853 32.9829L14.285 29.3128H10.9727L15.3536 35.2666C17.5826 38.2966 21.1588 40.0901 24.9661 40.0901H34.3015C33.5916 39.4443 32.8417 38.6573 32.0933 37.8064ZM34.7626 40.4916C34.8989 40.6065 35.0338 40.7171 35.1657 40.8189C36.1216 41.5535 37.0123 42.2081 37.9134 42.7754H23.0618C19.2544 42.7754 15.6783 40.9818 13.4493 37.9519L7.09277 29.3128H10.4051L15.081 35.6681C17.31 38.6966 20.8862 40.4916 24.6935 40.4916H34.7626Z" fill="url(#paint0_linear_3078_25915)"/>
<path fill-rule="evenodd" clip-rule="evenodd" d="M47.8345 22.1958C48.4658 20.9449 50.0827 20.0459 51.8464 20.0459L58.5719 20.0008C58.5719 24.2549 54.379 25.3518 52.5387 25.8333C52.439 25.8594 52.3462 25.8837 52.2613 25.9066C51.0979 26.2193 50.4977 26.8288 50.2369 27.1765C50.1301 27.319 50.0694 27.4877 50.0635 27.6638C50.0472 28.1191 49.9997 29.3308 49.8841 31.9316C49.7552 34.8481 47.8611 37.3995 47.2135 38.1909C47.1038 38.3261 46.9008 38.3392 46.7689 38.2229C45.2409 36.8832 42.5613 36.8512 40.7414 37.0199C40.5324 37.0388 40.5384 37.337 40.7458 37.353C47.3187 37.8708 48.8556 41.9583 49.1994 43.397C49.2646 43.6748 49.0497 43.9395 48.7607 43.9439C42.5954 44.0472 39.8907 42.6667 36.1589 39.7968C33.1103 37.4505 28.8554 31.2625 27.2592 28.938C26.8457 28.3358 26.1551 27.975 25.4156 27.975H7.58804C7.29904 27.975 7.08563 27.7161 7.14046 27.4383C7.39685 26.1408 8.56026 25.1604 9.95783 25.1604H30.253C30.8517 25.1604 31.4297 25.3684 31.8877 25.748C33.6646 27.2245 38.5124 31.0108 42.096 31.5301C43.0267 31.6654 43.83 31.7062 44.5206 31.6872C44.9163 31.6756 44.9148 31.0967 44.5191 31.0836C44.4124 31.0807 44.0182 31.0836 44.0182 31.0836C44.0182 31.0836 44.9593 29.3089 45.0408 27.7059C45.0512 27.511 44.986 27.319 44.8659 27.1619C44.5992 26.8114 43.9989 26.215 42.8518 25.9051C41.2023 25.46 36.5413 23.7872 36.5413 20.0459C36.5413 19.9772 38.5165 19.9999 40.5053 20.0228C41.5048 20.0343 42.5079 20.0459 43.2653 20.0459C45.0289 20.0459 46.6473 20.9449 47.2772 22.1958C47.3928 22.4257 47.7189 22.4257 47.8345 22.1958ZM35.9585 33.9827C35.9585 34.7282 35.5537 35.3326 35.0544 35.3326C34.5551 35.3326 34.1504 34.7282 34.1504 33.9827C34.1504 33.2372 34.5551 32.6328 35.0544 32.6328C35.5537 32.6328 35.9585 33.2372 35.9585 33.9827Z" fill="white"/>
</g>
<defs>
<linearGradient id="paint0_linear_3078_25915" x1="34.3766" y1="27.5622" x2="37.8534" y2="43.2518" gradientUnits="userSpaceOnUse">
<stop offset="0.300143" stop-color="white"/>
<stop offset="1" stop-color="#0C111D"/>
</linearGradient>
<clipPath id="clip0_3078_25915">
<rect width="54.8571" height="24" fill="white" transform="translate(4.57129 20)"/>
</clipPath>
</defs>
</svg>
