<svg width="24" height="24" viewBox="0 0 24 24" fill="none" xmlns="http://www.w3.org/2000/svg">
<path fill-rule="evenodd" clip-rule="evenodd" d="M12.7799 3.59995C12.7799 3.16916 12.4307 2.81995 11.9999 2.81995C11.5691 2.81995 11.2199 3.16916 11.2199 3.59995V16.0963L6.55566 11.3603C6.25338 11.0534 5.75953 11.0496 5.4526 11.3519C5.14568 11.6542 5.14191 12.148 5.44418 12.455L11.4442 18.5473L11.9999 19.1116L12.5557 18.5473L18.5557 12.455C18.8579 12.148 18.8542 11.6542 18.5472 11.3519C18.2403 11.0496 17.7465 11.0534 17.4442 11.3603L12.7799 16.0963V3.59995ZM4.19992 19.6199C3.76914 19.6199 3.41992 19.9692 3.41992 20.3999C3.41992 20.8307 3.76914 21.1799 4.19992 21.1799H19.7999C20.2307 21.1799 20.5799 20.8307 20.5799 20.3999C20.5799 19.9692 20.2307 19.6199 19.7999 19.6199H4.19992Z" fill="white"/>
</svg>
