<svg viewBox="0 0 28 28" fill="none" xmlns="http://www.w3.org/2000/svg">
<path fill-rule="evenodd" clip-rule="evenodd" d="M14.0002 25.6667C8.5005 25.6667 5.75066 25.6667 4.0415 23.9575C2.3335 22.2507 2.3335 19.4997 2.3335 14C2.3335 8.50037 2.3335 5.75054 4.0415 4.04137C5.75183 2.33337 8.5005 2.33337 14.0002 2.33337C19.4998 2.33337 22.2497 2.33337 23.9577 4.04137C25.6668 5.75171 25.6668 8.50037 25.6668 14C25.6668 19.4997 25.6668 22.2495 23.9577 23.9575C22.2508 25.6667 19.4998 25.6667 14.0002 25.6667ZM18.7018 10.465C18.8657 10.6291 18.9577 10.8515 18.9577 11.0834C18.9577 11.3152 18.8657 11.5376 18.7018 11.7017L12.8685 17.535C12.7044 17.6989 12.482 17.7909 12.2502 17.7909C12.0183 17.7909 11.7959 17.6989 11.6318 17.535L9.2985 15.2017C9.21253 15.1216 9.14358 15.025 9.09575 14.9177C9.04793 14.8103 9.02221 14.6945 9.02014 14.577C9.01807 14.4595 9.03968 14.3428 9.08369 14.2338C9.12769 14.1249 9.1932 14.0259 9.27628 13.9428C9.35937 13.8597 9.45835 13.7942 9.5673 13.7502C9.67625 13.7062 9.79295 13.6846 9.91044 13.6867C10.0279 13.6888 10.1438 13.7145 10.2511 13.7623C10.3585 13.8101 10.4551 13.8791 10.5352 13.965L12.2502 15.68L17.4652 10.465C17.6292 10.3012 17.8516 10.2091 18.0835 10.2091C18.3154 10.2091 18.5378 10.3012 18.7018 10.465Z" fill="#5288F9"/>
</svg>
