<svg width="86" height="86" viewBox="0 0 87 86" fill="none" xmlns="http://www.w3.org/2000/svg">
<g clip-path="url(#clip0_2509_5677)">
<path d="M74.4807 29.1247L73.5992 31.1529C73.4614 31.4832 73.229 31.7653 72.9313 31.9637C72.6335 32.1621 72.2836 32.268 71.9258 32.268C71.5679 32.268 71.2181 32.1621 70.9203 31.9637C70.6225 31.7653 70.3901 31.4832 70.2524 31.1529L69.3709 29.1247C67.821 25.5368 64.9826 22.6601 61.4159 21.0622L58.6961 19.8475C58.3662 19.6957 58.0866 19.4525 57.8907 19.1467C57.6948 18.8409 57.5906 18.4853 57.5906 18.1221C57.5906 17.7589 57.6948 17.4033 57.8907 17.0975C58.0866 16.7917 58.3662 16.5485 58.6961 16.3967L61.2654 15.2536C64.9218 13.6103 67.8087 10.6271 69.3314 6.91881L70.238 4.7294C70.3712 4.39025 70.6034 4.09908 70.9045 3.89385C71.2055 3.68863 71.5614 3.57886 71.9258 3.57886C72.2901 3.57886 72.646 3.68863 72.9471 3.89385C73.2481 4.09908 73.4804 4.39025 73.6135 4.7294L74.5201 6.91523C76.0412 10.6243 78.9269 13.6087 82.5826 15.2536L85.1554 16.4003C85.4844 16.5525 85.7629 16.7957 85.9581 17.1011C86.1533 17.4065 86.2571 17.7614 86.2571 18.1239C86.2571 18.4864 86.1533 18.8413 85.9581 19.1467C85.7629 19.4521 85.4844 19.6953 85.1554 19.8475L82.4321 21.0586C78.866 22.6581 76.029 25.5361 74.4807 29.1247ZM43.2591 7.16606C23.4684 7.16606 7.42578 23.2087 7.42578 42.9994C7.42578 49.1018 8.9487 54.8459 11.6398 59.8733L7.42578 78.8327L26.3852 74.6187C31.5763 77.3933 37.373 78.841 43.2591 78.8327C63.0499 78.8327 79.0924 62.7901 79.0924 42.9994C79.0924 41.5565 79.0088 40.1351 78.8416 38.7352L71.7251 39.5773C71.8589 40.7001 71.9258 41.8408 71.9258 42.9994C71.9258 50.6023 68.9056 57.8938 63.5295 63.2698C58.1535 68.6458 50.862 71.6661 43.2591 71.6661C38.5518 71.674 33.9157 70.5169 29.7643 68.2977L27.4244 67.0471L16.8643 69.3942L19.2114 58.8342L17.9572 56.4942C15.7393 52.3425 14.5834 47.7064 14.5924 42.9994C14.5913 38.6237 15.5919 34.3059 17.5175 30.3767C19.4431 26.4475 22.2426 23.0113 25.7016 20.3314C29.1605 17.6514 33.187 15.7988 37.4726 14.9155C41.7582 14.0323 46.1891 14.1418 50.4258 15.2357L52.2103 8.29482C49.3436 7.55665 46.3444 7.16606 43.2591 7.16606ZM32.5091 42.9994H25.3424C25.3424 47.7512 27.2301 52.3084 30.5901 55.6684C33.9501 59.0284 38.5073 60.9161 43.2591 60.9161C48.0109 60.9161 52.5681 59.0284 55.9281 55.6684C59.2881 52.3084 61.1758 47.7512 61.1758 42.9994H54.0091C54.0091 45.8505 52.8765 48.5848 50.8605 50.6008C48.8445 52.6168 46.1102 53.7494 43.2591 53.7494C40.408 53.7494 37.6737 52.6168 35.6577 50.6008C33.6417 48.5848 32.5091 45.8505 32.5091 42.9994Z" fill="#E6EEFE"/>
</g>
<defs>
<clipPath id="clip0_2509_5677">
<rect width="86" height="86" fill="white" transform="translate(0.259766)"/>
</clipPath>
</defs>
</svg>
