<svg width="87" height="87" viewBox="0 0 87 87" fill="none" xmlns="http://www.w3.org/2000/svg">
<path d="M9.69824 25.4983C9.69824 27.6159 10.1153 29.7127 10.9257 31.6691C11.736 33.6254 12.9238 35.403 14.4211 36.9004C15.9185 38.3977 17.6961 39.5855 19.6525 40.3959C21.6088 41.2062 23.7057 41.6233 25.8232 41.6233C27.9408 41.6233 30.0376 41.2062 31.994 40.3959C33.9504 39.5855 35.728 38.3977 37.2253 36.9004C38.7227 35.403 39.9104 33.6254 40.7208 31.6691C41.5312 29.7127 41.9482 27.6159 41.9482 25.4983C41.9482 21.2217 40.2494 17.1202 37.2253 14.0962C34.2013 11.0722 30.0999 9.37329 25.8232 9.37329C21.5466 9.37329 17.4452 11.0722 14.4211 14.0962C11.3971 17.1202 9.69824 21.2217 9.69824 25.4983ZM9.69824 61.3316C9.69824 63.4492 10.1153 65.546 10.9257 67.5024C11.736 69.4588 12.9238 71.2364 14.4211 72.7337C15.9185 74.2311 17.6961 75.4188 19.6525 76.2292C21.6088 77.0395 23.7057 77.4566 25.8232 77.4566C27.9408 77.4566 30.0376 77.0395 31.994 76.2292C33.9504 75.4188 35.728 74.2311 37.2253 72.7337C38.7227 71.2364 39.9104 69.4588 40.7208 67.5024C41.5312 65.546 41.9482 63.4492 41.9482 61.3316C41.9482 57.055 40.2494 52.9536 37.2253 49.9295C34.2013 46.9055 30.0999 45.2066 25.8232 45.2066C21.5466 45.2066 17.4452 46.9055 14.4211 49.9295C11.3971 52.9536 9.69824 57.055 9.69824 61.3316ZM45.5316 61.3316C45.5316 65.6082 47.2305 69.7097 50.2545 72.7337C53.2785 75.7577 57.38 77.4566 61.6566 77.4566C65.9332 77.4566 70.0346 75.7577 73.0587 72.7337C76.0827 69.7097 77.7816 65.6082 77.7816 61.3316C77.7816 57.055 76.0827 52.9536 73.0587 49.9295C70.0346 46.9055 65.9332 45.2066 61.6566 45.2066C57.38 45.2066 53.2785 46.9055 50.2545 49.9295C47.2305 52.9536 45.5316 57.055 45.5316 61.3316ZM34.7816 25.4983C34.7816 27.8742 33.8378 30.1528 32.1577 31.8328C30.4777 33.5128 28.1991 34.4566 25.8232 34.4566C23.4473 34.4566 21.1688 33.5128 19.4887 31.8328C17.8087 30.1528 16.8649 27.8742 16.8649 25.4983C16.8649 23.1224 17.8087 20.8438 19.4887 19.1638C21.1688 17.4838 23.4473 16.54 25.8232 16.54C28.1991 16.54 30.4777 17.4838 32.1577 19.1638C33.8378 20.8438 34.7816 23.1224 34.7816 25.4983ZM34.7816 61.3316C34.7816 63.7075 33.8378 65.9861 32.1577 67.6661C30.4777 69.3461 28.1991 70.29 25.8232 70.29C23.4473 70.29 21.1688 69.3461 19.4887 67.6661C17.8087 65.9861 16.8649 63.7075 16.8649 61.3316C16.8649 58.9557 17.8087 56.6771 19.4887 54.9971C21.1688 53.3171 23.4473 52.3733 25.8232 52.3733C28.1991 52.3733 30.4777 53.3171 32.1577 54.9971C33.8378 56.6771 34.7816 58.9557 34.7816 61.3316ZM70.6149 61.3316C70.6149 63.7075 69.6711 65.9861 67.9911 67.6661C66.3111 69.3461 64.0325 70.29 61.6566 70.29C59.2807 70.29 57.0021 69.3461 55.3221 67.6661C53.6421 65.9861 52.6982 63.7075 52.6982 61.3316C52.6982 58.9557 53.6421 56.6771 55.3221 54.9971C57.0021 53.3171 59.2807 52.3733 61.6566 52.3733C64.0325 52.3733 66.3111 53.3171 67.9911 54.9971C69.6711 56.6771 70.6149 58.9557 70.6149 61.3316ZM63.5378 40.387L64.534 38.108C66.2735 34.0693 69.4652 30.8302 73.478 29.0315L76.5382 27.6698C78.1972 26.9352 78.1972 24.5236 76.5382 23.789L73.65 22.5026C69.532 20.659 66.2817 17.301 64.5734 13.125L63.5522 10.6597C63.4003 10.2812 63.1386 9.95685 62.8007 9.72839C62.4629 9.49994 62.0644 9.37785 61.6566 9.37785C61.2487 9.37785 60.8503 9.49994 60.5124 9.72839C60.1746 9.95685 59.9129 10.2812 59.761 10.6597L58.7397 13.125C57.0314 17.301 53.7812 20.659 49.6632 22.5026L46.775 23.789C45.1159 24.5236 45.1159 26.9352 46.775 27.6698L49.8352 29.0315C53.8479 30.8302 57.0396 34.0693 58.7792 38.108L59.7753 40.387C59.9317 40.7568 60.1935 41.0722 60.528 41.294C60.8626 41.5158 61.2552 41.6341 61.6566 41.6341C62.058 41.6341 62.4505 41.5158 62.7851 41.294C63.1197 41.0722 63.3815 40.7568 63.5378 40.387Z" fill="#2167F7"/>
</svg>
