<svg width="86" height="86" viewBox="0 0 86 86" fill="none" xmlns="http://www.w3.org/2000/svg">
<path d="M10.75 32.2814C10.75 26.5698 13.0189 21.0921 17.0577 17.0533C21.0965 13.0146 26.5742 10.7456 32.2858 10.7456H43C48.6943 10.7455 54.1569 13.0007 58.1928 17.0178C62.2287 21.0349 64.5093 26.4869 64.5358 32.1811H67.9149C72.0358 32.1811 75.25 35.3918 75.25 39.5162V53.7134C75.25 59.425 72.9811 64.9027 68.9423 68.9415C64.9036 72.9802 59.4258 75.2492 53.7142 75.2492H32.2858C29.4577 75.2492 26.6573 74.6922 24.0444 73.6099C21.4316 72.5276 19.0575 70.9413 17.0577 68.9415C13.0189 64.9027 10.75 59.425 10.75 53.7134V32.2814ZM32.2858 17.9123C30.3985 17.9123 28.5297 18.2841 26.7862 19.0064C25.0426 19.7287 23.4584 20.7875 22.124 22.1222C20.7897 23.4569 19.7313 25.0413 19.0094 26.7851C18.2875 28.5288 17.9162 30.3977 17.9167 32.285V53.7169C17.9176 57.5273 19.4319 61.1812 22.1266 63.8752C24.8212 66.5691 28.4755 68.0825 32.2858 68.0825H53.7142C57.5251 68.0825 61.18 66.5686 63.8747 63.8739C66.5695 61.1792 68.0833 57.5243 68.0833 53.7134V39.4159H64.5C60.6443 39.4159 57.3333 36.1049 57.3333 32.2492C57.3333 24.3157 50.9335 17.9159 43 17.9159L32.2858 17.9123ZM28.6667 32.2492C28.6667 31.2988 29.0442 30.3874 29.7162 29.7154C30.3882 29.0434 31.2996 28.6659 32.25 28.6659H44.7917C45.742 28.6659 46.6535 29.0434 47.3255 29.7154C47.9975 30.3874 48.375 31.2988 48.375 32.2492C48.375 33.1995 47.9975 34.111 47.3255 34.783C46.6535 35.455 45.742 35.8325 44.7917 35.8325H32.25C31.2996 35.8325 30.3882 35.455 29.7162 34.783C29.0442 34.111 28.6667 33.1995 28.6667 32.2492ZM32.25 50.1659C31.2996 50.1659 30.3882 50.5434 29.7162 51.2154C29.0442 51.8874 28.6667 52.7988 28.6667 53.7492C28.6667 54.6996 29.0442 55.611 29.7162 56.283C30.3882 56.955 31.2996 57.3325 32.25 57.3325H53.75C54.7004 57.3325 55.6118 56.955 56.2838 56.283C56.9558 55.611 57.3333 54.6996 57.3333 53.7492C57.3333 52.7988 56.9558 51.8874 56.2838 51.2154C55.6118 50.5434 54.7004 50.1659 53.75 50.1659H32.25Z" fill="#042B7B"/>
</svg>
