<svg width="24" height="24" viewBox="0 0 24 24" fill="none" xmlns="http://www.w3.org/2000/svg">
<path fill-rule="evenodd" clip-rule="evenodd" d="M5.40003 4.92017C4.3065 4.92017 3.42003 5.80664 3.42003 6.90013V7.18642C3.41989 7.19515 3.41989 7.20388 3.42003 7.2126V17.1C3.42003 18.1935 4.30652 19.0799 5.40003 19.0799H18.6C19.6936 19.0799 20.58 18.1935 20.58 17.1V7.21351C20.5802 7.20418 20.5802 7.19485 20.58 7.1855V6.90013C20.58 5.80664 19.6936 4.92017 18.6 4.92017H5.40003ZM18.9999 6.77127C18.9455 6.60235 18.787 6.48014 18.6 6.48014H5.40003C5.21303 6.48014 5.05457 6.60235 5.00017 6.77126L11.6296 10.7582C11.7115 10.8055 11.8426 10.8452 12 10.8452C12.1575 10.8452 12.2885 10.8055 12.3705 10.7582L18.9999 6.77127ZM4.98003 8.57952V17.1C4.98003 17.3319 5.16806 17.52 5.40003 17.52H18.6C18.832 17.52 19.02 17.3319 19.02 17.1V8.57952L13.163 12.1019C12.8135 12.3071 12.4021 12.4052 12 12.4052C11.5979 12.4052 11.1866 12.3071 10.8371 12.1019L10.83 12.0977L4.98003 8.57952Z" fill="white"/>
</svg>
