<svg width="86" height="86" viewBox="0 0 86 86" fill="none" xmlns="http://www.w3.org/2000/svg">
<path d="M43.0169 78.8442C23.2262 78.8442 7.18359 62.8016 7.18359 43.0108C7.18359 23.2201 23.2262 7.17749 43.0169 7.17749C62.8077 7.17749 78.8503 23.2201 78.8503 43.0108C78.8503 62.8016 62.8077 78.8442 43.0169 78.8442ZM43.0169 71.6775C50.6198 71.6775 57.9113 68.6573 63.2873 63.2812C68.6634 57.9052 71.6836 50.6137 71.6836 43.0108C71.6836 35.4079 68.6634 28.1165 63.2873 22.7404C57.9113 17.3644 50.6198 14.3442 43.0169 14.3442C35.4141 14.3442 28.1226 17.3644 22.7465 22.7404C17.3705 28.1165 14.3503 35.4079 14.3503 43.0108C14.3503 50.6137 17.3705 57.9052 22.7465 63.2812C28.1226 68.6573 35.4141 71.6775 43.0169 71.6775ZM43.0169 25.2733L60.7544 43.0108L43.0169 60.7483L25.2794 43.0108L43.0169 25.2733ZM43.0169 35.407L35.4167 43.0108L43.0133 50.6111L50.6172 43.0108L43.0169 35.407Z" fill="#FF8A00"/>
</svg>
