<svg width="60" height="23" viewBox="0 0 60 23" fill="none" xmlns="http://www.w3.org/2000/svg">
<path d="M0.344453 1.5H4.63445V22.5H0.344453V1.5ZM2.95445 5.13V1.5H7.12445C8.78445 1.5 10.1945 1.77 11.3545 2.31C12.5345 2.85 13.4345 3.62 14.0545 4.62C14.6745 5.62 14.9845 6.81 14.9845 8.19C14.9845 9.55 14.6745 10.74 14.0545 11.76C13.4345 12.76 12.5345 13.53 11.3545 14.07C10.1945 14.61 8.78445 14.88 7.12445 14.88H2.95445V11.25H7.12445C8.26445 11.25 9.16445 10.99 9.82445 10.47C10.4845 9.95 10.8145 9.19 10.8145 8.19C10.8145 7.17 10.4845 6.41 9.82445 5.91C9.16445 5.39 8.26445 5.13 7.12445 5.13H2.95445ZM22.3234 10.71L20.9734 22.5H16.5034L19.6234 0.45L28.4134 14.01L37.2034 0.45L40.3234 22.5H35.8534L34.5034 10.71L28.4134 20.55L22.3234 10.71ZM46.5398 12C46.5398 13.38 46.8498 14.59 47.4698 15.63C48.1098 16.65 48.9398 17.44 49.9598 18C50.9798 18.54 52.0898 18.81 53.2898 18.81C54.2898 18.81 55.1798 18.68 55.9598 18.42C56.7398 18.16 57.4398 17.81 58.0598 17.37C58.6998 16.93 59.2498 16.45 59.7098 15.93V20.76C58.8498 21.44 57.9098 21.97 56.8898 22.35C55.8898 22.73 54.6198 22.92 53.0798 22.92C51.4798 22.92 49.9898 22.66 48.6098 22.14C47.2498 21.62 46.0598 20.87 45.0398 19.89C44.0398 18.91 43.2598 17.76 42.6998 16.44C42.1598 15.1 41.8898 13.62 41.8898 12C41.8898 10.38 42.1598 8.91 42.6998 7.59C43.2598 6.25 44.0398 5.09 45.0398 4.11C46.0598 3.13 47.2498 2.38 48.6098 1.86C49.9898 1.34 51.4798 1.08 53.0798 1.08C54.6198 1.08 55.8898 1.27 56.8898 1.65C57.9098 2.03 58.8498 2.56 59.7098 3.24V8.07C59.2498 7.55 58.6998 7.07 58.0598 6.63C57.4398 6.19 56.7398 5.84 55.9598 5.58C55.1798 5.32 54.2898 5.19 53.2898 5.19C52.0898 5.19 50.9798 5.47 49.9598 6.03C48.9398 6.57 48.1098 7.35 47.4698 8.37C46.8498 9.39 46.5398 10.6 46.5398 12Z" fill="white"/>
</svg>
