<svg width="113" height="24" viewBox="0 0 113 24" fill="none" xmlns="http://www.w3.org/2000/svg">
<path d="M0.28 1.5H4.69V22.5H0.28V1.5ZM12.16 1.5H17.26L8.56 11.34L17.71 22.5H12.49L3.43 11.46L12.16 1.5ZM19.4261 1.5H23.7761V22.5H19.4261V1.5ZM30.613 17.73L31.123 14.34H41.203L41.713 17.73H30.613ZM36.103 8.31L32.953 15.54L33.043 16.5L30.283 22.5H25.453L36.103 0.269998L46.753 22.5H41.893L39.193 16.68L39.253 15.6L36.103 8.31ZM44.2218 5.37V1.5H59.8218V5.37H54.1518V22.5H49.8618V5.37H44.2218ZM61.6593 1.5H65.9493V18.75H74.3193V22.5H61.6593V1.5ZM76.0265 1.5H80.3165V15.33C80.3165 16.53 80.6265 17.5 81.2465 18.24C81.8865 18.96 82.8265 19.32 84.0665 19.32C85.3065 19.32 86.2365 18.96 86.8565 18.24C87.4965 17.5 87.8165 16.53 87.8165 15.33V1.5H92.1065V15.6C92.1065 16.84 91.9065 17.93 91.5065 18.87C91.1065 19.81 90.5365 20.6 89.7965 21.24C89.0765 21.88 88.2265 22.36 87.2465 22.68C86.2665 23.02 85.2065 23.19 84.0665 23.19C82.9065 23.19 81.8365 23.02 80.8565 22.68C79.8765 22.36 79.0265 21.88 78.3065 21.24C77.5865 20.6 77.0265 19.81 76.6265 18.87C76.2265 17.93 76.0265 16.84 76.0265 15.6V1.5ZM107.069 1.5H112.319L105.869 11.67L112.769 22.5H107.519L103.349 14.97L99.0292 22.5H93.7792L100.859 11.67L94.5292 1.5H99.7792L103.379 8.1L107.069 1.5Z" fill="white"/>
</svg>
