<svg width="96" height="56" viewBox="0 0 96 56" fill="none" xmlns="http://www.w3.org/2000/svg">
<path d="M57.4762 17.3367C56.7496 16.8326 55.9278 16.4821 55.0611 16.3065C54.1944 16.131 53.301 16.1341 52.4355 16.3157C51.57 16.4974 50.7507 16.8537 50.0277 17.3629C49.3047 17.8721 48.6932 18.5235 48.2306 19.2772C47.5529 20.339 46.5815 21.1812 45.4343 21.7015C44.2872 22.2219 43.0136 22.398 41.7683 22.2085C40.523 22.019 39.3595 21.472 38.419 20.634C37.4786 19.796 36.8017 18.7029 36.4705 17.4876L36.4526 17.4201C36.4464 17.396 36.4377 17.3659 36.4306 17.3367C36.1848 16.4983 36.0725 15.6264 36.0977 14.7531C36.0977 8.92411 42.0801 2.43044 50.6931 2.43044C59.5148 2.43044 64.5625 9.14653 65.8622 12.8786C65.8392 12.8131 65.8188 12.7477 65.7963 12.6802C64.3694 8.52103 61.5136 5.00278 57.7367 2.75122C53.9598 0.499655 49.5067 -0.339243 45.1694 0.383736C40.8322 1.10671 36.892 3.3447 34.0496 6.69963C31.2073 10.0546 29.647 14.3089 29.6465 18.706C29.6465 27.8759 36.2608 35.7256 45.4343 35.7256C52.7511 35.7256 57.6679 31.6233 59.9238 25.9697C60.5611 24.4673 60.6658 22.7922 60.2206 21.2221C59.7754 19.652 58.8071 18.2811 57.4762 17.3367Z" fill="#002B51"/>
<path d="M65.9744 13.2433C64.8899 9.60273 59.8049 2.43311 50.6897 2.43311C42.0751 2.43311 36.0943 8.92421 36.0943 14.7557C36.0691 15.6291 36.1814 16.501 36.4272 17.3394C36.3156 16.9064 36.2581 16.4612 36.2559 16.0141C36.2559 9.94326 42.3349 5.73669 48.5836 5.73669C52.6453 5.73629 56.5408 7.34925 59.4133 10.2208C62.2858 13.0923 63.9 16.9873 63.901 21.049C63.9034 24.1917 63.0286 27.2728 61.3749 29.9454C59.7213 32.6179 57.3545 34.7758 54.5409 36.1761V36.1802C58.1304 34.8794 61.2321 32.5044 63.424 29.3783C65.6158 26.2521 66.7915 22.5267 66.7909 18.7087C66.796 16.8561 66.5207 15.0134 65.9744 13.2433Z" fill="#DA0021"/>
<path d="M6.88942 53.1736V54.3435H0V53.1736H2.16541V49.711H3.47692V53.1736H6.88942ZM4.92598 51.9464V46.5914H0.392687V45.4333H6.22165V51.9449L4.92598 51.9464ZM9.01648 55.3973H7.69832V44.854H9.01904V49.2978H10.3755V50.5388H9.01904L9.01648 55.3973Z" fill="white"/>
<path d="M16.9105 45.5155V46.6501H10.7236V45.5155H13.1508V44.6411H14.5431V45.5155H16.9105ZM11.1634 51.8046H19.5146V55.3025H18.2057V52.9586H11.1639L11.1634 51.8046ZM16.3036 49.0987C16.3046 49.4012 16.2375 49.7001 16.1072 49.9731C15.9806 50.2431 15.8052 50.4873 15.5898 50.6935C15.3549 50.8936 15.0898 51.0553 14.8044 51.1726C14.5024 51.2963 14.1787 51.3586 13.8524 51.3557C13.5242 51.3582 13.1988 51.296 12.8947 51.1726C12.6095 51.0583 12.3458 50.8963 12.1149 50.6935C11.8933 50.49 11.7134 50.2453 11.5852 49.9731C11.4549 49.7001 11.3878 49.4012 11.3889 49.0987C11.3873 48.7978 11.4544 48.5005 11.5852 48.2295C11.7147 47.9594 11.8945 47.7165 12.1149 47.5137C12.346 47.3115 12.6097 47.1499 12.8947 47.0356C13.1988 46.9122 13.5242 46.85 13.8524 46.8525C14.1787 46.8497 14.5024 46.9119 14.8044 47.0356C15.0896 47.1528 15.3547 47.3142 15.5898 47.5137C15.804 47.7191 15.9793 47.9616 16.1072 48.2295C16.2376 48.4998 16.3048 48.7961 16.3036 49.0962V49.0987ZM15.0427 49.087C15.0444 48.9349 15.0139 48.7841 14.9534 48.6446C14.8929 48.505 14.8036 48.3798 14.6914 48.2771C14.581 48.1681 14.45 48.0822 14.306 48.0243C14.162 47.9665 14.008 47.9378 13.8529 47.9401C13.6985 47.9374 13.5452 47.9659 13.4021 48.0238C13.259 48.0817 13.129 48.1678 13.0199 48.2771C12.9093 48.3807 12.8214 48.5062 12.762 48.6456C12.7026 48.7851 12.6729 48.9354 12.6748 49.087C12.6733 49.2392 12.7032 49.3902 12.7625 49.5304C12.8219 49.6706 12.9095 49.7971 13.0199 49.902C13.1281 50.0128 13.2578 50.1004 13.401 50.1593C13.5443 50.2182 13.698 50.2472 13.8529 50.2446C14.0085 50.2468 14.163 50.2176 14.3071 50.1588C14.4511 50.0999 14.5819 50.0126 14.6914 49.902C14.8036 49.7978 14.8928 49.6713 14.9533 49.5306C15.0138 49.3899 15.0443 49.2381 15.0427 49.0849V49.087ZM19.5167 51.214H18.2077V44.8538H19.5146V47.324H21.0373V48.6125H19.5146L19.5167 51.214Z" fill="white"/>
<path d="M26.9923 54.0126H25.6726V46.6855H21.6025V45.5044H26.9923V54.0126ZM29.6455 44.854H30.9662V55.3957H29.6455V44.854Z" fill="white"/>
<path d="M36.6214 50.8336V50.018H32.4092V48.9443H42.166V50.018H37.9441V50.8336H41.3827V53.5047H34.4912V54.1428H41.5233V55.2165H33.194V52.4754H40.0712V51.8726H33.194V50.8326L36.6214 50.8336ZM37.2861 46.0947L33.5739 48.7065L32.7886 47.7969L37.2881 44.6528L41.7877 47.7969L41.0023 48.7065L37.2861 46.0947Z" fill="white"/>
<path d="M43.1207 46.2841V45.1593H49.2124V46.2841H46.6186L49.3198 49.5565L48.4035 50.3128L46.2141 47.6069L44.0605 50.4902L43.1084 49.734L45.8097 46.2831L43.1207 46.2841ZM51.5573 53.15C51.5594 53.4952 51.4841 53.8364 51.3369 54.1486C51.0427 54.7783 50.5193 55.2721 49.8736 55.5292C49.1843 55.8049 48.4153 55.8049 47.7261 55.5292C47.0769 55.2751 46.5506 54.7807 46.2566 54.1486C46.1114 53.8357 46.0363 53.495 46.0363 53.15C46.0363 52.8051 46.1114 52.4644 46.2566 52.1515C46.4005 51.8437 46.6 51.5651 46.8451 51.3298C47.0997 51.0874 47.3986 50.8965 47.7255 50.7673C48.4148 50.4916 49.1838 50.4916 49.8731 50.7673C50.519 51.0241 51.0425 51.518 51.3364 52.1479C51.4841 52.4612 51.5599 52.8037 51.5573 53.15ZM50.2601 53.1383C50.2621 52.948 50.2246 52.7594 50.1498 52.5844C50.0751 52.4095 49.9648 52.2519 49.826 52.1218C49.6901 51.9845 49.5278 51.876 49.3489 51.8029C49.17 51.7298 48.9782 51.6936 48.785 51.6964C48.5946 51.6941 48.4057 51.7307 48.2299 51.8038C48.0541 51.877 47.895 51.9852 47.7624 52.1218C47.6267 52.2546 47.5189 52.4132 47.4453 52.5882C47.3718 52.7633 47.3339 52.9512 47.3339 53.1411C47.3339 53.331 47.3718 53.5189 47.4453 53.6939C47.5189 53.869 47.6267 54.0276 47.7624 54.1604C47.8958 54.2956 48.0551 54.4025 48.2309 54.4746C48.4066 54.5467 48.5951 54.5826 48.785 54.5802C48.9777 54.5832 49.1691 54.5476 49.3479 54.4755C49.5267 54.4034 49.6893 54.2963 49.826 54.1604C49.9656 54.0298 50.0763 53.8713 50.1508 53.6953C50.2253 53.5192 50.2621 53.3294 50.2586 53.1383H50.2601ZM51.1406 50.4437V48.1632H49.1654V47.0286H51.1406V44.854H52.4613V50.4442L51.1406 50.4437Z" fill="white"/>
<path d="M61.5668 46.9215V45.3027H62.8758V51.3296H59.4372V53.4561H63.6601V54.6142H53.9043V53.4561H58.1165V51.3285H54.6907V45.3027H55.9874V46.9215H61.5668ZM61.5668 50.1837V48.0561H55.9864V50.1837H61.5668Z" fill="white"/>
<path d="M65.4372 49.2386V44.9604H73.6116V46.024H66.7467V46.5793H73.5645V47.6075H66.7467V48.1986H73.6494V49.2386H70.1868V49.9146H74.4107V50.9883H64.6523V49.9146H68.864V49.2406L65.4372 49.2386ZM72.1241 53.5403C72.1256 53.8486 72.0586 54.1533 71.9278 54.4325C71.7972 54.7117 71.6133 54.9627 71.3863 55.1714C71.1369 55.3863 70.8533 55.5581 70.5473 55.6796C69.8945 55.9321 69.1711 55.9321 68.5184 55.6796C68.2129 55.5608 67.9308 55.3887 67.6854 55.1714C67.4525 54.9655 67.2642 54.714 67.1322 54.4325C67.0027 54.152 66.9357 53.8467 66.9357 53.5377C66.9357 53.2287 67.0027 52.9234 67.1322 52.6429C67.2671 52.3616 67.455 52.1088 67.6854 51.8984C67.9301 51.6816 68.2124 51.5115 68.5184 51.3963C69.1726 51.1521 69.893 51.1521 70.5473 51.3963C70.8538 51.5142 71.1376 51.684 71.3863 51.8984C71.6107 52.1115 71.7943 52.3638 71.9278 52.6429C72.0599 52.9233 72.1271 53.2298 72.1247 53.5398L72.1241 53.5403ZM70.8152 53.5285C70.8175 53.3624 70.7848 53.1976 70.7193 53.045C70.6537 52.8923 70.5568 52.7552 70.4348 52.6424C70.316 52.5243 70.1749 52.431 70.0197 52.3681C69.8645 52.3051 69.6983 52.2738 69.5308 52.2758C69.3623 52.2739 69.1951 52.3053 69.0388 52.3682C68.8826 52.4311 68.7403 52.5243 68.6201 52.6424C68.4966 52.7543 68.3982 52.8911 68.3316 53.0439C68.2649 53.1967 68.2315 53.3619 68.2336 53.5285C68.2319 53.696 68.2654 53.862 68.332 54.0157C68.3986 54.1694 68.4968 54.3074 68.6201 54.4207C68.7395 54.5404 68.8815 54.635 69.0379 54.699C69.1942 54.763 69.3618 54.7951 69.5308 54.7935C69.6988 54.7953 69.8654 54.7633 70.0207 54.6992C70.1761 54.6352 70.3169 54.5405 70.4348 54.4207C70.5566 54.3066 70.6533 54.1683 70.7188 54.0146C70.7843 53.861 70.8171 53.6955 70.8152 53.5285Z" fill="white"/>
<path d="M78.5882 44.7949L81.9316 50.1719L80.8604 50.8335L78.5877 47.0498L76.3271 50.9143L75.2324 50.2496L78.5882 44.7949ZM76.1017 55.1827V51.6608H77.4106V54.0241H84.7996V55.1827H76.1017ZM83.3833 51.6036V44.8542H84.704V51.6036H83.3833Z" fill="white"/>
<path d="M86.1475 51.5198H95.9038V52.6779H91.6799V55.3965H90.3591V52.6779H86.1475V51.5198ZM88.2295 46.3673H93.81V45.0322H95.1189V50.1019H86.9328V45.0322H88.23L88.2295 46.3673ZM93.81 47.5019H88.2295V48.9555H93.81V47.5019Z" fill="white"/>
</svg>
