<svg width="121" height="52" viewBox="0 0 121 52" fill="none" xmlns="http://www.w3.org/2000/svg">
<path d="M20.9961 39.75V18.25H37.4961V22.25H26.4961V26.75H36.4961V30.25H26.4961V35.75H37.4961V39.75H20.9961Z" fill="white"/>
<path d="M39.9961 39.75V18.25H44.9961V35.25H55.4961V39.75H39.9961Z" fill="white"/>
<path d="M18.9961 28.7563C18.9961 34.339 16.9961 39.6562 9.49609 39.6562C6.57483 39.6956 0.000331893 39.6848 0.000331893 39.6848L0 18.2785C0 18.2785 6.527 18.2142 9.49609 18.2787C16.4961 18.2787 18.9961 22.5112 18.9961 28.7563ZM13.9961 28.7563C13.9204 24.6332 12.4961 22.5112 8.49609 22.5112H5.0408L5.06288 35.4237H8.49609C12.4961 35.4237 14.0742 33.01 13.9961 28.7563Z" fill="white"/>
<path fill-rule="evenodd" clip-rule="evenodd" d="M60.9961 18.25H54.9961V22.25H60.9961L60.9961 39.75H65.9961L65.9961 22.25H71.9961V18.25H65.9961H60.9961Z" fill="white"/>
<path d="M75.4961 39.75H70.4961L78.9961 18.25H83.9961L91.9961 39.75H86.9961L81.4961 23.75L75.4961 39.75Z" fill="white"/>
<path d="M93.9961 18.25L99.4961 25.75L101.996 21.25L99.4961 18.25H93.9961Z" fill="white"/>
<path d="M114.996 39.75L107.496 29.75L104.996 34.25L109.496 39.75L114.996 39.75Z" fill="white"/>
<path d="M97.9961 39.75H91.9961L114.496 8.25H120.496L97.9961 39.75Z" fill="#0C2C84"/>
</svg>
