<svg width="192" height="38" viewBox="0 0 192 38" fill="none" xmlns="http://www.w3.org/2000/svg">
<g clip-path="url(#clip0_2494_8333)">
<path d="M40.9384 14.1663C42.23 14.1663 43.2771 13.1257 43.2771 11.842C43.2771 10.5582 42.23 9.51758 40.9384 9.51758H33.9209V14.1677H40.9384V14.1663Z" fill="#F39800"/>
<path d="M11.1123 14.1663C9.4977 14.1663 8.18819 15.4678 8.18819 17.0725C8.18819 18.6772 9.4977 19.9787 11.1123 19.9787H18.1297C22.9748 19.9787 26.9019 23.8818 26.9019 28.6972C26.9019 33.5125 22.9748 37.4157 18.1297 37.4157H2.3387C1.04706 37.4157 0 36.375 0 35.0913C0 33.8075 1.04706 32.7669 2.3387 32.7669H18.1297C20.3901 32.7669 22.2231 30.9451 22.2231 28.6985C22.2231 26.452 20.3901 24.6302 18.1297 24.6302H11.1123C6.91304 24.6302 3.50942 21.2474 3.50942 17.0739C3.50942 12.9004 6.91304 9.51758 11.1123 9.51758H22.2245C20.9329 9.51758 19.8858 10.5582 19.8858 11.842C19.8858 13.1257 20.9329 14.1663 22.2245 14.1663H11.1123Z" fill="#E60013"/>
<path d="M33.9206 2.54313C33.9206 1.2594 32.8735 0.21875 31.5819 0.21875C30.2902 0.21875 29.2432 1.2594 29.2432 2.54313V9.51765H33.9219V2.54313H33.9206Z" fill="#F39800"/>
<path d="M45.6172 22.3053C45.6172 21.0215 46.6642 19.9809 47.9559 19.9809C49.2475 19.9809 50.2946 21.0215 50.2946 22.3053V4.86693H58.4828C59.7744 4.86693 60.8215 5.90758 60.8215 7.19132C60.8215 8.47505 59.7744 9.5157 58.4828 9.5157H54.9734C53.6817 9.5157 52.6347 10.5563 52.6347 11.8401C52.6347 13.1238 53.6817 14.1645 54.9734 14.1645H58.4828C62.3591 14.1645 65.5002 11.0412 65.5002 7.18995C65.5002 3.33874 62.3605 0.216797 58.4841 0.216797H47.9573C46.6656 0.216797 45.6186 1.25744 45.6186 2.54118V22.3039L45.6172 22.3053Z" fill="#0054A6"/>
<path d="M50.2952 22.3047C50.2952 23.5884 49.2481 24.6291 47.9565 24.6291C46.6648 24.6291 45.6178 23.5884 45.6178 22.3047L45.637 27.5366C45.637 30.7473 43.018 33.3489 39.7889 33.3489C36.5598 33.3489 33.9408 30.7459 33.9408 27.5366L33.9188 22.3074C33.9188 23.5912 32.8717 24.6318 31.5815 24.6318C30.2912 24.6318 29.2441 23.5912 29.2441 22.3074V27.5366C29.2441 33.3148 33.9573 37.9991 39.771 37.9991C45.5848 37.9991 50.2979 33.3148 50.2979 27.5366V22.3047H50.2952Z" fill="#1CB8CE"/>
<path d="M29.2449 14.168H33.9196V22.306C33.9196 21.0223 32.8725 19.9817 31.5809 19.9817C30.2892 19.9817 29.2422 21.0223 29.2422 22.306L29.2463 14.168H29.2449Z" fill="#F39800"/>
<path d="M33.921 9.51758H29.2422V14.1677H33.921V9.51758Z" fill="#980030"/>
<path d="M29.2442 14.1663H22.2227C23.5143 14.1663 24.5614 13.1257 24.5614 11.842C24.5614 10.5582 23.5143 9.51758 22.2227 9.51758H29.2401V14.1677" fill="#F39800"/>
<path d="M31.5809 24.6312C32.8725 24.6312 33.9196 23.5905 33.9196 22.3068C33.9196 21.0231 32.8725 19.9824 31.5809 19.9824C30.2893 19.9824 29.2422 21.0231 29.2422 22.3068C29.2422 23.5905 30.2893 24.6312 31.5809 24.6312Z" fill="#002163"/>
<path d="M47.9569 24.6292C49.2485 24.6292 50.2956 23.5886 50.2956 22.3049C50.2956 21.0211 49.2485 19.9805 47.9569 19.9805C46.6652 19.9805 45.6182 21.0211 45.6182 22.3049C45.6182 23.5886 46.6652 24.6292 47.9569 24.6292Z" fill="#002163"/>
<path d="M22.2235 14.1663C23.5151 14.1663 24.5622 13.1257 24.5622 11.842C24.5622 10.5582 23.5151 9.51758 22.2235 9.51758C20.9318 9.51758 19.8848 10.5582 19.8848 11.842C19.8848 13.1257 20.9318 14.1663 22.2235 14.1663Z" fill="#980030"/>
<path d="M136.547 13.3987C136.379 13.3987 136.212 13.3727 136.05 13.3208C134.133 12.7158 132.364 11.3856 130.791 9.36854L130.682 9.22924L130.574 9.36854C128.998 11.3897 127.246 12.7185 125.366 13.3181C125.203 13.37 125.034 13.3973 124.865 13.3973C124.441 13.3973 124.019 13.2252 123.71 12.9248C123.392 12.6148 123.216 12.2037 123.216 11.7653V11.7134C123.216 11.0046 123.681 10.386 124.373 10.1716C126.879 9.39722 128.654 7.43201 129.007 5.0448L129.031 4.88775H124.91C123.974 4.88775 123.213 4.14619 123.213 3.23391C123.213 2.32164 123.974 1.58008 124.91 1.58008H136.503C137.439 1.58008 138.2 2.32164 138.2 3.23391C138.2 4.14619 137.439 4.88775 136.503 4.88775H132.384L132.407 5.0448C132.76 7.43201 134.535 9.39722 137.04 10.1716C137.733 10.386 138.197 11.006 138.199 11.7148V11.7667C138.199 12.2051 138.023 12.6175 137.704 12.9275C137.395 13.2279 136.973 13.4 136.548 13.4L136.547 13.3987Z" fill="white"/>
<path d="M80.369 23.4667C78.0001 23.4667 76.0723 21.5507 76.0723 19.1963C76.0723 16.8418 78.0001 14.9258 80.369 14.9258H91.7726C94.1415 14.9258 96.0694 16.8418 96.0694 19.1963C96.0694 21.5507 94.1415 23.4667 91.7726 23.4667H80.369ZM81.2443 18.1542C80.7084 18.1542 80.255 18.6309 80.255 19.1963C80.255 19.7616 80.7084 20.2383 81.2443 20.2383H90.9083C91.4442 20.2383 91.8976 19.7616 91.8976 19.1963C91.8976 18.6309 91.4442 18.1542 90.9083 18.1542H81.2443Z" fill="white"/>
<path d="M151.183 23.4874C149.241 23.4874 147.662 21.9182 147.662 19.9885C147.662 18.0588 149.242 16.4883 151.183 16.4883H164.419C166.361 16.4883 167.94 18.0588 167.94 19.9885C167.94 21.9182 166.359 23.4874 164.419 23.4874H151.183ZM151.58 19.4218C151.42 19.4218 151.268 19.4887 151.159 19.6061C151.052 19.7222 150.998 19.8806 151.012 20.039C151.038 20.3272 151.301 20.5539 151.61 20.5539H164.045C164.355 20.5539 164.617 20.3272 164.643 20.039C164.657 19.8806 164.603 19.7222 164.496 19.6061C164.389 19.4887 164.235 19.4218 164.076 19.4218H151.578H151.58Z" fill="white"/>
<path d="M151.136 11.6221C149.337 11.6221 147.875 10.1677 147.875 8.38138C147.875 6.59507 149.338 5.14062 151.136 5.14062H164.464C166.263 5.14062 167.725 6.59507 167.725 8.38138C167.725 10.1677 166.262 11.6221 164.464 11.6221H151.136ZM151.533 7.87335C151.251 7.87335 151.022 8.10142 151.022 8.38138C151.022 8.66134 151.251 8.88941 151.533 8.88941H164.122C164.404 8.88941 164.633 8.66134 164.633 8.38138C164.633 8.10142 164.404 7.87335 164.122 7.87335H151.533Z" fill="white"/>
<path d="M93.5745 13.4364C92.5783 13.4364 91.7676 12.6307 91.7676 11.6406V2.43454C91.7676 1.44442 92.5783 0.638672 93.5745 0.638672C94.5707 0.638672 95.3814 1.44442 95.3814 2.43454V5.902H96.3955C97.323 5.902 98.0788 6.65175 98.0788 7.57495C98.0788 8.49815 97.3244 9.24791 96.3955 9.24791H95.3814V11.6419C95.3814 12.6321 94.5707 13.4378 93.5745 13.4378V13.4364Z" fill="white"/>
<path d="M102.7 23.487C101.81 23.487 101.086 22.7672 101.086 21.8823V15.7559C101.086 14.7767 101.887 13.9805 102.872 13.9805C103.857 13.9805 104.659 14.7767 104.659 15.7559V16.1219H116.378V15.7559C116.378 14.7767 117.179 13.9805 118.164 13.9805C119.15 13.9805 119.951 14.7767 119.951 15.7559V21.8823C119.951 22.7672 119.227 23.487 118.336 23.487H102.7ZM104.659 20.2599H116.378V18.9993H104.659V20.2599Z" fill="white"/>
<path d="M179.451 17.859C178.451 17.859 177.637 17.0505 177.637 16.0563V13.4082H172.354C171.359 13.4082 170.55 12.6967 170.55 11.8213C170.55 10.9459 171.359 10.2344 172.354 10.2344H185.422C186.416 10.2344 187.226 10.9459 187.226 11.8213C187.226 12.6967 186.416 13.4082 185.422 13.4082H181.265V16.0563C181.265 17.0505 180.451 17.859 179.451 17.859Z" fill="white"/>
<path d="M190.164 19.042C189.316 19.042 188.59 18.4329 188.398 17.5602L188.375 17.4523H185.407C184.688 17.4523 184.103 16.7408 184.103 15.8654C184.103 14.99 184.688 14.2785 185.407 14.2785H188.35V2.55413C188.35 1.4971 189.163 0.636719 190.164 0.636719C191.164 0.636719 191.977 1.4971 191.977 2.55413V17.1232C191.977 18.1802 191.164 19.0406 190.164 19.0406V19.042Z" fill="white"/>
<path d="M87.3336 13.186C87.1783 13.186 87.023 13.1641 86.8719 13.1231C85.0952 12.6329 83.5397 11.6359 82.1189 10.0736L82.0172 9.96159L81.9156 10.0736C80.492 11.6373 78.9571 12.6342 77.2217 13.119C77.0678 13.1614 76.9111 13.1832 76.7545 13.1832C76.3038 13.1832 75.8764 13.0084 75.5508 12.6888C75.2182 12.3652 75.0355 11.9309 75.0355 11.4666V11.3122C75.0355 10.5584 75.5384 9.89603 76.2873 9.66523C78.1341 9.09438 79.6002 7.64403 80.2076 5.78534L80.2667 5.60644H76.6253C75.6896 5.60644 74.9297 4.84985 74.9297 3.92119C74.9297 2.99253 75.6909 2.23594 76.6253 2.23594H80.3766V1.77844C80.3766 0.863435 81.1254 0.119141 82.0461 0.119141C82.9667 0.119141 83.7156 0.863435 83.7156 1.77844V2.23594H87.4119C88.3477 2.23594 89.1075 2.99253 89.1075 3.92119C89.1075 4.84985 88.3463 5.60644 87.4119 5.60644H83.8255L83.8846 5.78534C84.492 7.64403 85.9567 9.09438 87.8049 9.66523C88.5538 9.89603 89.0567 10.5584 89.0567 11.3122V11.4707C89.0567 12.4171 88.2844 13.186 87.3363 13.186H87.3336Z" fill="white"/>
<path d="M148.835 4.24121C148.1 4.24121 147.502 3.64714 147.502 2.9165C147.502 2.18586 148.1 1.59179 148.835 1.59179H156.197V1.45523C156.203 0.652207 156.865 -0.00195312 157.673 -0.00195312H157.926C158.734 -0.00195312 159.396 0.652207 159.402 1.45523V1.59179H166.765C167.5 1.59179 168.098 2.18586 168.098 2.9165C168.098 3.64714 167.5 4.24121 166.765 4.24121H148.835Z" fill="white"/>
<path d="M148.565 15.4995C147.741 15.4995 147.072 14.8344 147.072 14.0163C147.072 13.1983 147.741 12.5332 148.565 12.5332H167.036C167.859 12.5332 168.529 13.1983 168.529 14.0163C168.529 14.8344 167.859 15.4995 167.036 15.4995H148.565Z" fill="white"/>
<path d="M118.181 13.4361C117.186 13.4361 116.376 12.6317 116.376 11.6429V8.7477H112.962L112.93 8.84057C112.169 11.0461 110.083 12.5279 107.74 12.5279H104.908C101.92 12.5279 99.3981 10.1762 99.2882 7.28643C99.2318 5.79101 99.7746 4.3748 100.819 3.29728C101.865 2.2184 103.268 1.62433 104.769 1.62433H107.612C110.01 1.62433 112.146 3.10609 112.925 5.31166L112.958 5.40316H116.378V2.45329C116.378 1.46454 117.187 0.660156 118.182 0.660156C119.177 0.660156 119.986 1.46454 119.986 2.45329V11.6443C119.986 12.6331 119.177 13.4374 118.182 13.4374L118.181 13.4361ZM105.169 5.05764C104.611 5.05764 104.073 5.28981 103.691 5.69541C103.303 6.10512 103.11 6.64183 103.144 7.20449C103.211 8.26289 104.133 9.09185 105.243 9.09185H107.215C108.326 9.09185 109.248 8.26289 109.315 7.20449C109.351 6.64183 109.157 6.10512 108.768 5.69541C108.386 5.29117 107.846 5.05764 107.289 5.05764H105.169Z" fill="white"/>
<path d="M142.068 16.5931C141.067 16.5931 140.254 15.7846 140.254 14.7904V2.45699C140.254 1.46278 141.067 0.654297 142.068 0.654297C143.068 0.654297 143.881 1.46278 143.881 2.45699V14.7904C143.881 15.7846 143.068 16.5931 142.068 16.5931Z" fill="white"/>
<path d="M126.586 23.4879C125.508 23.4879 124.631 22.6153 124.631 21.5446V16.7142C124.631 15.7978 125.381 15.0508 126.303 15.0508H126.585C127.507 15.0508 128.258 15.7964 128.258 16.7142V20.3442H142.637C143.509 20.3442 144.218 21.0502 144.218 21.9174C144.218 22.7846 143.508 23.4893 142.637 23.4893H126.586V23.4879Z" fill="white"/>
<path d="M174.367 23.4879C173.289 23.4879 172.412 22.6153 172.412 21.5446V16.7142C172.412 15.7978 173.162 15.0508 174.084 15.0508H174.366C175.288 15.0508 176.038 15.7964 176.038 16.7142V20.3442H190.417C191.289 20.3442 191.998 21.0502 191.998 21.9174C191.998 22.7846 191.288 23.4893 190.417 23.4893H174.366L174.367 23.4879Z" fill="white"/>
<path d="M175.688 9.11458C173.563 9.11458 171.834 7.39656 171.834 5.28385C171.834 3.17115 173.563 1.45312 175.688 1.45312H182.835C184.961 1.45312 186.689 3.17115 186.689 5.28385C186.689 7.39656 184.961 9.11458 182.835 9.11458H175.688ZM176.206 4.60784C175.822 4.60784 175.51 4.91922 175.51 5.30024C175.51 5.68126 175.823 5.99264 176.206 5.99264H182.287C182.671 5.99264 182.983 5.68126 182.983 5.30024C182.983 4.91922 182.67 4.60784 182.287 4.60784H176.206Z" fill="white"/>
<path d="M113.174 33.1273H114.24L113.71 31.5391L113.174 33.1273Z" fill="white"/>
<path d="M90.0185 31.5159C89.8756 31.4189 89.7066 31.3711 89.5115 31.3711C89.3164 31.3711 89.1474 31.4189 89.0031 31.5159C88.8588 31.6128 88.7461 31.7644 88.6664 31.972C88.5867 32.1796 88.5469 32.4486 88.5469 32.7791C88.5469 33.1096 88.5867 33.3677 88.6664 33.5685C88.7461 33.7692 88.8588 33.9167 89.0031 34.0082C89.1474 34.1011 89.3164 34.1475 89.5115 34.1475C89.7066 34.1475 89.877 34.1011 90.0213 34.0082C90.1642 33.9154 90.2755 33.7679 90.3538 33.5671C90.4321 33.365 90.4706 33.1028 90.4706 32.7791C90.4706 32.4554 90.4308 32.1755 90.3524 31.9693C90.2741 31.763 90.1628 31.6115 90.0185 31.5145V31.5159Z" fill="white"/>
<path d="M97.8993 31.3789H97.0996V32.5971H97.8416C98.0587 32.5971 98.2305 32.5397 98.3569 32.4236C98.4833 32.3076 98.5465 32.1587 98.5465 31.9757C98.5465 31.7927 98.4861 31.6466 98.3638 31.5401C98.2415 31.4335 98.0862 31.3803 97.8993 31.3803V31.3789Z" fill="white"/>
<path d="M75.0381 28.1172V37.4175H191.999V28.1172H75.0381ZM82.024 34.5618L81.0717 32.8984L80.4767 33.6113V34.3392C80.4767 34.57 80.2885 34.7571 80.0563 34.7571C79.824 34.7571 79.6358 34.57 79.6358 34.3392V31.1831C79.6358 30.9523 79.824 30.7652 80.0563 30.7652C80.2885 30.7652 80.4767 30.9523 80.4767 31.1831V32.5925L81.8302 30.9018C81.9003 30.8144 82.0061 30.7639 82.1174 30.7639C82.4238 30.7639 82.5942 31.1135 82.4059 31.3538L81.6516 32.3098L82.6986 34.1849C82.8415 34.4416 82.6547 34.7571 82.3606 34.7571C82.2218 34.7571 82.0927 34.6834 82.024 34.5632V34.5618ZM91.1273 33.8599C90.9789 34.1658 90.7659 34.4007 90.4897 34.5659C90.2135 34.7312 89.8879 34.8131 89.5114 34.8131C89.1349 34.8131 88.8037 34.7312 88.5261 34.5659C88.2486 34.402 88.0356 34.1671 87.8844 33.8612C87.7333 33.5567 87.6577 33.1934 87.6577 32.7701C87.6577 32.3467 87.7347 31.978 87.8872 31.6707C88.0397 31.3634 88.2554 31.1258 88.533 30.9592C88.8106 30.7926 89.1362 30.7092 89.5114 30.7092C89.8865 30.7092 90.208 30.7912 90.4842 30.9578C90.7604 31.123 90.9734 31.3593 91.1245 31.668C91.2757 31.9752 91.3513 32.3426 91.3513 32.7701C91.3513 33.1975 91.2771 33.5553 91.1273 33.8612V33.8599ZM98.4663 34.525L97.9098 33.2194H97.0991V34.3556C97.0991 34.5768 96.9177 34.7571 96.6951 34.7571C96.4725 34.7571 96.2911 34.5768 96.2911 34.3556V31.0944C96.2911 30.9127 96.4395 30.7652 96.6223 30.7652H97.9854C98.3055 30.7652 98.568 30.8158 98.7713 30.9168C98.9747 31.0179 99.1245 31.1586 99.222 31.3375C99.3182 31.5164 99.3663 31.7239 99.3663 31.9575C99.3663 32.1678 99.3333 32.344 99.2674 32.4887C99.2014 32.6335 99.1162 32.7537 99.0091 32.8493C98.9019 32.9449 98.7865 33.0227 98.66 33.0842L99.1685 34.2231C99.2811 34.4744 99.0956 34.7571 98.8194 34.7571C98.6655 34.7571 98.5268 34.6656 98.4677 34.525H98.4663ZM106.83 34.7571H104.712C104.529 34.7571 104.38 34.6096 104.38 34.428V31.093C104.38 30.9114 104.529 30.7639 104.712 30.7639H106.802C106.987 30.7639 107.138 30.9141 107.138 31.0998V31.1108C107.138 31.2951 106.987 31.444 106.802 31.444H105.194V32.4136H106.545C106.73 32.4136 106.881 32.5638 106.881 32.7482C106.881 32.9326 106.73 33.0828 106.545 33.0828H105.188V34.0715L106.83 34.0743C107.016 34.0743 107.166 34.2245 107.166 34.4089V34.4266C107.166 34.611 107.015 34.7612 106.829 34.7612L106.83 34.7571ZM114.675 34.5045L114.437 33.8312H112.99L112.747 34.5058C112.694 34.6561 112.549 34.7557 112.39 34.7557H112.383C112.121 34.7557 111.936 34.4963 112.026 34.2504L113.194 31.0042C113.246 30.8595 113.383 30.7625 113.539 30.7625H113.881C114.036 30.7625 114.173 30.8595 114.226 31.0042L115.394 34.2504C115.482 34.4963 115.299 34.7557 115.036 34.7557C114.876 34.7557 114.731 34.6547 114.678 34.5031L114.675 34.5045ZM191.731 37.1498H120.114V28.3835H191.731V37.1498Z" fill="white"/>
<path d="M129.593 34.8125C129.402 34.8125 129.217 34.7893 129.035 34.7401C128.854 34.6923 128.689 34.6213 128.541 34.5257C128.392 34.4314 128.27 34.3126 128.172 34.1706C128.075 34.0286 128.01 33.8674 128.145 33.7022C128.236 33.5888 128.383 33.5929 128.383 33.5929C128.563 33.5929 128.618 33.7131 128.637 33.7691C128.673 33.8715 128.726 33.9603 128.798 34.0354C128.891 34.1337 129.007 34.2061 129.144 34.2566C129.281 34.3072 129.43 34.3317 129.591 34.3317C129.768 34.3317 129.929 34.3072 130.07 34.2594C130.212 34.2102 130.324 34.1406 130.407 34.0491C130.489 33.9576 130.53 33.8483 130.53 33.7186C130.53 33.6025 130.503 33.5041 130.447 33.4236C130.392 33.343 130.312 33.2747 130.209 33.2215C130.106 33.1668 129.982 33.1245 129.838 33.0931L129.077 32.9224C128.778 32.8595 128.543 32.7435 128.372 32.5728C128.2 32.402 128.113 32.1767 128.112 31.8954C128.111 31.6605 128.172 31.4543 128.299 31.2767C128.425 31.1006 128.6 30.9626 128.82 30.8643C129.04 30.766 129.291 30.7168 129.573 30.7168C129.901 30.7168 130.176 30.7714 130.398 30.8793C130.621 30.9886 130.79 31.1306 130.906 31.3081C130.943 31.3655 130.973 31.4242 130.999 31.4843C131.08 31.6769 130.926 31.8899 130.716 31.8899C130.581 31.8899 130.471 31.7984 130.427 31.6728C130.403 31.6004 130.367 31.5389 130.322 31.4857C130.236 31.3846 130.129 31.3136 130 31.2699C129.871 31.2262 129.731 31.2043 129.577 31.2043C129.465 31.2043 129.36 31.218 129.258 31.2453C129.156 31.2726 129.066 31.3136 128.989 31.3669C128.91 31.4201 128.85 31.4857 128.805 31.5649C128.759 31.6427 128.736 31.7329 128.736 31.8339C128.736 31.9705 128.783 32.0811 128.875 32.1658C128.967 32.2505 129.137 32.3228 129.386 32.3843L130.131 32.5523C130.344 32.596 130.515 32.6615 130.647 32.7476C130.779 32.8336 130.879 32.9306 130.949 33.0385C131.02 33.1463 131.068 33.2597 131.094 33.3771C131.12 33.4946 131.132 33.6052 131.132 33.7131C131.132 33.9193 131.07 34.105 130.945 34.273C130.822 34.4396 130.644 34.5721 130.415 34.6691C130.185 34.7674 129.911 34.8152 129.591 34.8152L129.593 34.8125Z" fill="white"/>
<path d="M135.863 31.0327C135.863 30.8839 135.984 30.7637 136.134 30.7637H138.679C138.829 30.7637 138.949 30.8839 138.949 31.0327C138.949 31.1816 138.829 31.3017 138.679 31.3017H137.736V34.4578C137.736 34.6231 137.602 34.7555 137.437 34.7555C137.27 34.7555 137.137 34.6217 137.137 34.4578V31.3017H136.135C135.986 31.3017 135.865 31.1816 135.865 31.0327H135.863Z" fill="white"/>
<path d="M143.284 34.38L144.527 30.9549C144.568 30.8401 144.678 30.7637 144.802 30.7637H145.048C145.17 30.7637 145.28 30.8401 145.323 30.9549L146.565 34.38C146.631 34.563 146.495 34.7555 146.3 34.7555C146.18 34.7555 146.074 34.6818 146.035 34.5698L145.724 33.7094H144.133L143.82 34.5712C143.78 34.6818 143.672 34.7569 143.554 34.7569H143.552C143.356 34.7569 143.22 34.5644 143.286 34.3814L143.284 34.38ZM144.278 33.1741H145.567L144.923 31.3386L144.278 33.1741Z" fill="white"/>
<path d="M154.276 34.7569C154.162 34.7569 154.058 34.6886 154.014 34.5835L153.373 33.0853H152.367V34.4715C152.367 34.6285 152.24 34.7556 152.082 34.7556H152.058C151.9 34.7556 151.772 34.6285 151.772 34.4715V31.045C151.772 30.8893 151.899 30.7637 152.056 30.7637H153.366C153.665 30.7637 153.912 30.8087 154.108 30.9002C154.305 30.9917 154.451 31.1215 154.547 31.2881C154.643 31.4561 154.691 31.6541 154.691 31.8822C154.691 32.0979 154.654 32.2768 154.581 32.4202C154.508 32.5636 154.413 32.6811 154.298 32.7712C154.183 32.8614 154.06 32.9324 153.933 32.9843L154.536 34.3595C154.618 34.5466 154.479 34.7569 154.275 34.7569H154.276ZM153.207 32.6087C153.487 32.6087 153.703 32.5486 153.857 32.4284C154.011 32.3083 154.088 32.1348 154.088 31.9108C154.088 31.6869 154.018 31.523 153.878 31.4083C153.737 31.2936 153.548 31.2376 153.31 31.2376H152.369V32.6101H153.208L153.207 32.6087Z" fill="white"/>
<path d="M159.475 31.0327C159.475 30.8839 159.596 30.7637 159.745 30.7637H162.29C162.44 30.7637 162.561 30.8839 162.561 31.0327C162.561 31.1816 162.44 31.3017 162.29 31.3017H161.347V34.4578C161.347 34.6231 161.213 34.7555 161.048 34.7555C160.882 34.7555 160.748 34.6217 160.748 34.4578V31.3017H159.747C159.597 31.3017 159.476 31.1816 159.476 31.0327H159.475Z" fill="white"/>
<path d="M175.525 33.338C175.525 33.6494 175.472 33.9143 175.369 34.1342C175.266 34.354 175.103 34.522 174.881 34.6381C174.66 34.7542 174.372 34.8115 174.016 34.8115C173.66 34.8115 173.363 34.7528 173.143 34.6354C172.923 34.5179 172.763 34.3458 172.661 34.1191C172.559 33.8924 172.51 33.6166 172.51 33.2902V31.0628C172.51 30.8975 172.644 30.7637 172.811 30.7637H172.822C172.988 30.7637 173.123 30.8975 173.123 31.0628V33.3639C173.123 33.6808 173.201 33.9157 173.358 34.07C173.514 34.2243 173.733 34.3008 174.014 34.3008C174.201 34.3008 174.363 34.2666 174.499 34.1997C174.635 34.1328 174.74 34.029 174.811 33.8897C174.884 33.7504 174.92 33.5756 174.92 33.3639V31.0628C174.92 30.8975 175.055 30.7637 175.221 30.7637C175.387 30.7637 175.522 30.8975 175.522 31.0628V33.3366L175.525 33.338Z" fill="white"/>
<path d="M180.795 34.4551V31.0382C180.795 30.8866 180.919 30.7637 181.071 30.7637H182.187C182.474 30.7637 182.731 30.8128 182.958 30.9098C183.184 31.0068 183.363 31.1502 183.494 31.34C183.624 31.5298 183.689 31.762 183.689 32.0392C183.689 32.3164 183.63 32.5309 183.51 32.7166C183.391 32.9037 183.224 33.0471 183.01 33.1454C182.796 33.2451 182.548 33.2943 182.267 33.2943H181.4V34.4537C181.4 34.6203 181.263 34.7542 181.097 34.7542C180.93 34.7542 180.795 34.619 180.795 34.4537V34.4551ZM181.398 32.8095H182.251C182.507 32.8095 182.716 32.7371 182.877 32.5896C183.037 32.4435 183.119 32.2482 183.119 32.0051C183.119 31.762 183.036 31.5694 182.868 31.4383C182.702 31.3072 182.489 31.2403 182.229 31.2403H181.398V32.8081V32.8095Z" fill="white"/>
</g>
<defs>
<clipPath id="clip0_2494_8333">
<rect width="192" height="38" fill="white"/>
</clipPath>
</defs>
</svg>
