<svg width="241" height="28" viewBox="0 0 241 28" fill="none" xmlns="http://www.w3.org/2000/svg">
<g clip-path="url(#clip0_2494_8378)">
<path d="M135.52 18.5549H136.492V20.6753L138.241 18.5549H139.434L137.443 20.8805L139.518 23.4883H138.248L136.506 21.198H136.492V23.4883H135.52V18.5549Z" fill="white"/>
<path d="M141.312 22.8429C142.028 22.8429 142.215 22.1923 142.215 21.585C142.215 21.0251 141.923 20.5032 141.312 20.5032C140.709 20.5032 140.417 21.04 140.417 21.585C140.417 22.1848 140.605 22.8429 141.312 22.8429ZM141.312 19.7679C142.375 19.7679 143.187 20.4957 143.187 21.6974C143.187 22.7441 142.499 23.5781 141.312 23.5781C140.133 23.5781 139.445 22.7441 139.445 21.6974C139.445 20.4957 140.257 19.7679 141.312 19.7679Z" fill="white"/>
<path d="M143.808 19.8519H144.633V20.6792H144.647C144.689 20.34 145.07 19.7673 145.625 19.7673C145.717 19.7673 145.953 19.8039 146.072 19.8689V20.7699C145.988 20.7212 145.792 20.6718 145.625 20.6718C144.869 20.6718 144.737 21.6331 144.737 22.1565V23.4922H143.808V19.8519Z" fill="white"/>
<path d="M148.843 21.3156C148.815 20.8559 148.607 20.4605 148.086 20.4605C147.566 20.4605 147.302 20.8281 147.26 21.3156H148.843ZM149.468 23.2877C149.127 23.4779 148.739 23.5781 148.239 23.5781C147.058 23.5781 146.372 22.8849 146.372 21.6906C146.372 20.6372 146.92 19.7679 148.03 19.7679C149.356 19.7679 149.732 20.6941 149.732 21.9662H147.26C147.302 22.5525 147.705 22.8849 148.28 22.8849C148.732 22.8849 149.121 22.7149 149.468 22.5173V23.2877Z" fill="white"/>
<path d="M151.656 22.8862C151.941 22.8862 152.163 22.7589 152.309 22.5613C152.461 22.3561 152.503 22.0941 152.503 21.8111H152.101C151.684 21.8111 151.066 21.8822 151.066 22.4408C151.066 22.7522 151.323 22.8862 151.656 22.8862ZM150.566 20.0448C150.958 19.8691 151.381 19.7754 151.809 19.7693C152.899 19.7693 153.35 20.2283 153.35 21.3027V21.7692C153.35 22.1368 153.357 22.4123 153.363 22.6811C153.371 22.9566 153.385 23.2105 153.406 23.4928H152.586C152.552 23.3033 152.552 23.0629 152.545 22.9499H152.531C152.315 23.3513 151.851 23.5781 151.426 23.5781C150.795 23.5781 150.178 23.1895 150.178 22.4969C150.178 21.9526 150.434 21.6338 150.788 21.4584C151.143 21.2817 151.601 21.2465 151.99 21.2465H152.503C152.503 20.6596 152.247 20.4619 151.698 20.4619C151.302 20.4619 150.906 20.6162 150.594 20.8572L150.566 20.0448Z" fill="white"/>
<path d="M158.735 19.4646C158.424 19.3267 158.089 19.2546 157.749 19.2527C157.416 19.2527 156.985 19.4003 156.985 19.9379C156.985 20.7929 159.11 20.4328 159.11 22.086C159.11 23.1679 158.27 23.5781 157.29 23.5781C156.763 23.5781 156.286 23.4888 155.883 23.2782L156.008 22.4299C156.318 22.698 156.854 22.8002 157.235 22.8002C157.603 22.8002 158.096 22.61 158.096 22.1639C158.096 21.2242 155.972 21.6128 155.972 19.9805C155.972 18.8777 156.812 18.4742 157.666 18.4742C158.083 18.4742 158.472 18.531 158.826 18.6516L158.735 19.4646Z" fill="white"/>
<path d="M159.889 18.5588H161.444L162.596 22.2966H162.61L163.762 18.5588H165.317V23.4922H164.387V19.42H164.373L163.068 23.4922H162.138L160.833 19.42L160.818 19.4356V23.4922H159.889V18.5588Z" fill="white"/>
<path d="M166.338 18.5588H169.198V19.3354H167.31V20.5519H169.037V21.3298H167.31V22.715H169.212V23.4922H166.338V18.5588Z" fill="white"/>
<path d="M172.135 20.6162C171.85 20.5174 171.642 20.4612 171.302 20.4612C171.052 20.4612 170.754 20.5526 170.754 20.8633C170.754 21.4435 172.371 21.0759 172.371 22.39C172.371 23.2383 171.629 23.5781 170.871 23.5781C170.515 23.5721 170.16 23.52 169.817 23.4231L169.873 22.6445C170.164 22.7928 170.469 22.8855 170.789 22.8855C171.024 22.8855 171.401 22.7928 171.401 22.4394C171.401 21.7265 169.782 22.2133 169.782 20.8992C169.782 20.1146 170.455 19.7679 171.184 19.7679C171.622 19.7679 171.906 19.839 172.198 19.902L172.135 20.6162Z" fill="white"/>
<path d="M214.747 20.6162C214.462 20.5174 214.254 20.4612 213.914 20.4612C213.664 20.4612 213.365 20.5526 213.365 20.8633C213.365 21.4435 214.983 21.0759 214.983 22.39C214.983 23.2383 214.24 23.5781 213.483 23.5781C213.127 23.5721 212.772 23.52 212.429 23.4231L212.485 22.6445C212.775 22.7928 213.081 22.8855 213.4 22.8855C213.636 22.8855 214.012 22.7928 214.012 22.4394C214.012 21.7265 212.394 22.2133 212.394 20.8992C212.394 20.1146 213.067 19.7679 213.795 19.7679C214.233 19.7679 214.517 19.839 214.81 19.902L214.747 20.6162Z" fill="white"/>
<path d="M191.024 19.4646C190.713 19.3268 190.378 19.2547 190.039 19.2527C189.706 19.2527 189.276 19.4003 189.276 19.9379C189.276 20.7929 191.399 20.4328 191.399 22.086C191.399 23.1679 190.56 23.5781 189.58 23.5781C189.053 23.5781 188.817 23.507 188.338 23.3872L188.429 22.4963C188.762 22.6804 189.143 22.8002 189.524 22.8002C189.893 22.8002 190.386 22.61 190.386 22.1639C190.386 21.2242 188.262 21.6128 188.262 19.9805C188.262 18.8777 189.101 18.4742 189.956 18.4742C190.372 18.4742 190.761 18.531 191.115 18.6516L191.024 19.4646Z" fill="white"/>
<path d="M192.322 20.5453H191.635V19.8527H192.322V19.1242L193.252 18.8209V19.8527H194.079V20.5453H193.252V22.2419C193.252 22.5526 193.334 22.843 193.689 22.843C193.856 22.843 194.016 22.8072 194.112 22.7435L194.141 23.493C193.917 23.554 193.685 23.5825 193.453 23.5776C192.724 23.5776 192.322 23.1186 192.322 22.3969V20.5453Z" fill="white"/>
<path d="M196.002 22.8862C196.287 22.8862 196.51 22.7589 196.654 22.5613C196.807 22.3561 196.848 22.0941 196.848 21.8111H196.446C196.031 21.8111 195.412 21.8822 195.412 22.4408C195.412 22.7522 195.669 22.8862 196.002 22.8862ZM194.912 20.0448C195.304 19.8691 195.726 19.7754 196.154 19.7693C197.245 19.7693 197.696 20.2283 197.696 21.3027V21.7692C197.696 22.1368 197.704 22.4123 197.71 22.6811C197.716 22.9566 197.731 23.2105 197.752 23.4928H196.932C196.898 23.3033 196.898 23.0629 196.891 22.9499H196.877C196.661 23.3513 196.196 23.5781 195.773 23.5781C195.141 23.5781 194.523 23.1895 194.523 22.4969C194.523 21.9526 194.781 21.6338 195.134 21.4584C195.49 21.2817 195.947 21.2465 196.335 21.2465H196.848C196.848 20.6596 196.593 20.4619 196.043 20.4619C195.648 20.4619 195.252 20.6162 194.94 20.8572L194.912 20.0448Z" fill="white"/>
<path d="M176.231 22.8862C176.517 22.8862 176.739 22.7589 176.884 22.5613C177.037 22.3561 177.078 22.0941 177.078 21.8111H176.676C176.259 21.8111 175.642 21.8822 175.642 22.4408C175.642 22.7522 175.898 22.8862 176.231 22.8862ZM175.141 20.0448C175.533 19.8692 175.955 19.7755 176.383 19.7693C177.473 19.7693 177.925 20.2283 177.925 21.3027V21.7692C177.925 22.1368 177.932 22.4123 177.938 22.6811C177.945 22.9566 177.959 23.2105 177.981 23.4928H177.161C177.126 23.3033 177.126 23.0629 177.12 22.9499H177.106C176.89 23.3513 176.426 23.5781 176.001 23.5781C175.37 23.5781 174.752 23.1895 174.752 22.4969C174.752 21.9526 175.01 21.6338 175.363 21.4584C175.718 21.2817 176.176 21.2465 176.564 21.2465H177.078C177.078 20.6596 176.821 20.4619 176.272 20.4619C175.878 20.4619 175.481 20.6162 175.169 20.8572L175.141 20.0448Z" fill="white"/>
<path d="M198.379 19.8519H199.204V20.6792H199.219C199.259 20.34 199.642 19.7673 200.197 19.7673C200.287 19.7673 200.385 19.7673 200.482 19.7957V20.6941C200.396 20.6718 200.232 20.6616 200.065 20.6718C199.279 20.7192 199.308 21.6331 199.308 22.1565V23.4922H198.379V19.8519Z" fill="white"/>
<path d="M201.627 20.5453H200.94V19.8527H201.627V19.1242L202.557 18.8209V19.8527H203.383V20.5453H202.557V22.2419C202.557 22.5526 202.639 22.843 202.995 22.843C203.161 22.843 203.321 22.8072 203.418 22.7435L203.445 23.493C203.221 23.554 202.99 23.5825 202.758 23.5776C202.029 23.5776 201.627 23.1186 201.627 22.3969V20.5453Z" fill="white"/>
<path d="M207.462 23.4928H206.58V22.9986H206.566C206.281 23.3513 205.878 23.5781 205.393 23.5781C204.546 23.5781 204.179 22.9702 204.179 22.1503V19.8526H205.108V21.7962C205.108 22.2417 205.115 22.8429 205.712 22.8429C206.386 22.8429 206.532 22.1002 206.532 21.6338V19.8526H207.462V23.4928Z" fill="white"/>
<path d="M209.254 21.66C209.254 22.1765 209.454 22.8407 210.071 22.8407C210.682 22.8407 210.857 22.1616 210.857 21.66C210.857 21.1719 210.69 20.501 210.086 20.501C209.489 20.501 209.254 21.1516 209.254 21.66ZM208.315 19.8503H209.205V20.3669H209.218C209.426 20.0128 209.78 19.7657 210.329 19.7657C211.426 19.7657 211.828 20.6567 211.828 21.66C211.828 22.6565 211.426 23.5759 210.308 23.5759C209.913 23.5759 209.587 23.4764 209.26 23.0736H209.246V24.9746H208.315V19.8503Z" fill="white"/>
<path d="M184.797 21.673C184.797 21.168 184.6 20.5181 183.996 20.5181C183.398 20.5181 183.228 21.1808 183.228 21.673C183.228 22.1503 183.391 22.807 183.982 22.807C184.565 22.807 184.797 22.17 184.797 21.673ZM185.77 23.4935H184.88V22.9783H184.866C184.658 23.331 184.305 23.5781 183.756 23.5781C182.659 23.5781 182.257 22.6885 182.257 21.6852C182.257 20.6887 182.659 19.7686 183.777 19.7686C184.172 19.7686 184.498 19.8688 184.825 20.2716H184.838V18.3699H185.77V23.4935Z" fill="white"/>
<path d="M218.926 19.5486H218.912L218.211 21.5844H219.627L218.926 19.5486ZM218.391 18.5588H219.488L221.39 23.4922H220.314L219.898 22.3616H217.932L217.509 23.4922H216.502L218.391 18.5588Z" fill="white"/>
<path d="M224.18 21.6335C224.18 21.0121 223.945 20.5029 223.403 20.5029C222.771 20.5029 222.57 21.0967 222.57 21.6545C222.57 22.1501 222.827 22.7574 223.362 22.7574C223.945 22.7574 224.18 22.2408 224.18 21.6335ZM225.111 19.8523V23.1392C225.111 24.129 224.722 25.0605 223.223 25.0605C222.855 25.0605 222.431 25.0044 221.987 24.8141L222.063 24.0085C222.348 24.1642 222.812 24.3273 223.105 24.3273C224.132 24.3273 224.18 23.542 224.18 22.9138H224.166C223.993 23.2245 223.576 23.4926 223.056 23.4926C222.001 23.4926 221.598 22.6308 221.598 21.6545C221.598 20.7785 222.042 19.7677 223.112 19.7677C223.584 19.7677 223.951 19.9302 224.209 20.3479H224.221V19.8523H225.111Z" fill="white"/>
<path d="M228.208 21.3156C228.18 20.8559 227.972 20.4605 227.451 20.4605C226.931 20.4605 226.667 20.8281 226.625 21.3156H228.208ZM228.832 23.2877C228.492 23.4779 228.104 23.5781 227.604 23.5781C226.423 23.5781 225.736 22.8849 225.736 21.6906C225.736 20.6372 226.286 19.7679 227.395 19.7679C228.721 19.7679 229.097 20.6941 229.097 21.9662H226.625C226.667 22.5525 227.069 22.8849 227.645 22.8849C228.097 22.8849 228.486 22.7149 228.832 22.5173V23.2877Z" fill="white"/>
<path d="M229.722 19.8519H230.603V20.3461H230.617C230.909 19.9298 231.304 19.7673 231.79 19.7673C232.637 19.7673 233.004 20.3739 233.004 21.1938V23.4922H232.075V21.5485C232.075 21.103 232.067 20.5025 231.47 20.5025C230.797 20.5025 230.651 21.2452 230.651 21.711V23.4922H229.722V19.8519Z" fill="white"/>
<path d="M178.516 19.8519H179.397V20.3461H179.411C179.702 19.9298 180.098 19.7673 180.583 19.7673C181.431 19.7673 181.798 20.3739 181.798 21.1938V23.4922H180.869V21.5485C180.869 21.103 180.861 20.5025 180.264 20.5025C179.591 20.5025 179.445 21.2452 179.445 21.711V23.4922H178.516V19.8519Z" fill="white"/>
<path d="M235.988 20.6372C235.821 20.5594 235.641 20.5032 235.356 20.5032C234.78 20.5032 234.412 20.9696 234.412 21.6548C234.412 22.3263 234.725 22.8429 235.377 22.8429C235.641 22.8429 235.932 22.7434 236.092 22.673L236.134 23.4576C235.863 23.5422 235.585 23.5781 235.203 23.5781C234.031 23.5781 233.44 22.765 233.44 21.6548C233.44 20.602 234.051 19.7679 235.169 19.7679C235.544 19.7679 235.813 19.8099 236.071 19.8884L235.988 20.6372Z" fill="white"/>
<path d="M238.323 22.5089H238.337L239.197 19.851H240.141L238.802 23.4628C238.503 24.2691 238.289 25.0605 237.317 25.0605C237.093 25.0594 236.871 25.0262 236.657 24.9617L236.719 24.2617C236.838 24.303 236.969 24.326 237.2 24.326C237.573 24.326 237.803 24.064 237.803 23.6754L236.436 19.851H237.462L238.323 22.5089Z" fill="white"/>
<path d="M98.7511 23.9043V12.7716L92.2922 23.6152H87.8619L81.3871 12.7716V23.9043H76.3896V4.73622H81.671L90.2031 18.8755L98.7511 4.73622H103.883V23.9043H98.7511Z" fill="white"/>
<path d="M67.6769 11.815H57.6328C57.2153 11.815 56.8429 11.6634 56.5284 11.3729C56.2604 11.0703 56.1108 10.7372 56.0949 10.3716C56.1108 9.93021 56.2604 9.57952 56.5284 9.3094C56.8136 9.01964 57.1554 8.86732 57.5597 8.86732H72.8864V4.7369H57.0071C55.1414 4.7369 53.6806 5.28392 52.5902 6.39286C51.4558 7.53158 50.8887 8.88356 50.8887 10.4779C50.8887 12.0865 51.4558 13.4845 52.5902 14.655C53.7245 15.8242 55.2013 16.4017 57.0071 16.4017H67.5552C68.0193 16.4017 68.3917 16.5676 68.7068 16.9034C68.8595 17.0551 68.9804 17.2369 69.062 17.4376C69.1436 17.6384 69.1843 17.854 69.1816 18.0712C69.1816 18.5275 69.0187 18.9229 68.6895 19.2573C68.3611 19.5911 67.9595 19.7563 67.4821 19.7563H51.9459V23.9043H67.6769C69.5253 23.9043 71.032 23.2977 72.2095 22.0818C73.3751 20.8821 73.9569 19.4388 73.9569 17.7679C73.9569 16.1593 73.3751 14.7613 72.2095 13.5603C71.0772 12.3932 69.5699 11.815 67.6769 11.815Z" fill="white"/>
<path d="M127.817 8.86664V4.73487H107.033V23.9043H127.817V19.7563H112.154V16.3943H127.817V12.2463H112.163V8.86664H127.817Z" fill="white"/>
<path d="M24.0945 21.2885C25.5733 23.8076 29.6119 27.4919 35.0529 27.7993C38.1181 27.9712 41.0091 27.1764 43.3263 25.4907C46.9254 23.0426 49.0604 18.9217 48.8151 14.488C48.5757 10.1606 44.8423 6.38016 41.0836 6.53045C38.8588 6.62117 36.9724 7.75583 35.9312 9.56953C37.4877 9.79227 39.668 10.7482 40.3096 13.157C40.9592 15.6057 39.1686 18.1553 37.138 18.8838C37.1008 18.9569 37.144 19.0584 37.2484 19.0456C40.2019 18.6692 43.5603 16.5989 42.8715 11.1625C43.6674 14.0249 43.1208 17.76 40.9652 20.2229C39.535 21.8552 37.2936 22.9912 34.2643 22.805C34.0867 22.7962 34.0096 23.0508 34.231 23.0988C37.3587 23.7853 40.154 22.8287 42.1341 21.4104C44.422 19.7727 45.7046 17.0606 45.8895 14.2856C46.2452 18.5013 44.5258 22.3352 39.9825 24.6471C34.86 27.255 27.5793 25.0723 24.4031 21.0881C24.1531 20.7753 23.8951 20.9486 24.0945 21.2885Z" fill="white"/>
<path d="M47.4505 7.35721C45.9737 4.83875 41.9344 1.15583 36.4935 0.847116C33.4283 0.673803 30.5359 1.46996 28.2194 3.15435C24.6209 5.60173 22.4852 9.72334 22.7299 14.1571C22.9759 18.6091 26.6728 22.2662 30.4615 22.1146C32.6876 22.0252 34.5726 20.8912 35.6138 19.0769C34.0579 18.8521 31.877 17.8982 31.2367 15.4894C30.5851 13.0414 32.3784 10.4904 34.407 9.76058C34.4442 9.69017 34.4023 9.58727 34.2966 9.60013C31.3451 9.97519 27.9847 12.0462 28.6749 17.4832C27.877 14.6201 28.4248 10.8851 30.5798 8.42282C32.01 6.78988 34.2514 5.65454 37.2807 5.84004C37.4596 5.84884 37.538 5.59496 37.3153 5.54757C34.1869 4.85906 31.393 5.81566 29.4129 7.23467C27.1236 8.8737 25.8404 11.5858 25.6555 14.3602C25.3005 10.1444 27.0219 6.31056 31.5639 3.99723C36.687 1.3894 43.9657 3.5741 47.1439 7.55828C47.392 7.87106 47.6506 7.69639 47.4505 7.35721Z" fill="#E60021"/>
<path d="M11.5421 13.7289L23.8635 23.9043H16.5781L5.06525 14.7647V23.9043H-0.09375V4.73622H5.06525V12.8894L15.6559 4.73622H22.7271L11.5421 13.7289Z" fill="white"/>
<path d="M224.449 7.3263H222.884V9.81227H219.662V10.752H229.615V9.81227H224.449V7.3263Z" fill="white"/>
<path d="M239.31 7.34862V4.80781H237.744V12.3652H239.31V8.28898H240.9V7.34862H239.31Z" fill="white"/>
<path d="M177.66 5.9333H180.964V6.59067C180.964 8.0679 180.527 10.3196 177.575 11.4191V12.4766C181.696 11.3378 182.704 8.44567 182.704 6.89059V4.99294H177.66V5.9333Z" fill="white"/>
<path d="M236.147 10.5293V9.58894H233.371C232.802 9.58894 232.341 9.12045 232.341 8.54025V5.93107H236.147V4.99071H230.775V8.50979C230.775 9.04528 230.984 9.55884 231.356 9.93756C231.728 10.3163 232.232 10.5291 232.758 10.5293H236.147Z" fill="white"/>
<path d="M226.815 7.90266C226.815 8.32849 226.685 8.72387 226.463 9.04883H228.028C228.25 8.72387 228.38 8.32849 228.38 7.90266L228.379 4.99289H220.609V5.93325H226.815V7.90266Z" fill="white"/>
<path d="M233.371 13.7142V12.0338H231.805V13.6817C231.805 14.2172 232.014 14.7307 232.385 15.1094C232.757 15.4881 233.262 15.701 233.787 15.7012H239.52V14.7615H234.4C233.831 14.7615 233.371 14.2923 233.371 13.7142Z" fill="white"/>
<path d="M224.638 15.3155C223.658 15.3155 222.863 14.5755 222.863 13.6622C222.863 12.7476 223.658 12.007 224.638 12.007C225.617 12.007 226.412 12.7476 226.412 13.6622C226.412 14.5755 225.617 15.3155 224.638 15.3155ZM224.638 11.0673C222.793 11.0673 221.298 12.2277 221.298 13.6622C221.298 15.0948 222.793 16.2559 224.638 16.2559C226.483 16.2559 227.978 15.0948 227.978 13.6622C227.978 12.2277 226.483 11.0673 224.638 11.0673Z" fill="white"/>
<path d="M151.194 10.8433H149.628V13.6502H144.883V14.5898H155.94V13.6502H151.194V10.8433Z" fill="white"/>
<path d="M141.256 13.6622C141.256 14.5762 140.461 15.3148 139.481 15.3148C138.501 15.3148 137.707 14.5762 137.707 13.6622C137.707 12.7469 138.501 12.0076 139.481 12.0076C140.461 12.0076 141.256 12.7469 141.256 13.6622ZM134.21 10.4736H138.698V11.1418C137.231 11.4159 136.142 12.4375 136.142 13.6622C136.142 15.0948 137.637 16.2559 139.481 16.2559C141.325 16.2559 142.821 15.0948 142.821 13.6622C142.821 12.4389 141.731 11.4166 140.265 11.1418V10.4736H144.751V9.53387H134.21V10.4736Z" fill="white"/>
<path d="M209.118 10.752H219.071V9.81227H209.118V10.752Z" fill="white"/>
<path d="M214.095 15.3155C213.114 15.3155 212.32 14.5755 212.32 13.6622C212.32 12.7476 213.114 12.007 214.095 12.007C215.075 12.007 215.869 12.7476 215.869 13.6622C215.869 14.5755 215.075 15.3155 214.095 15.3155ZM214.095 11.0673C212.251 11.0673 210.755 12.2277 210.755 13.6622C210.755 15.0948 212.251 16.2559 214.095 16.2559C215.939 16.2559 217.435 15.0948 217.435 13.6622C217.435 12.2277 215.939 11.0673 214.095 11.0673Z" fill="white"/>
<path d="M214.095 8.55964C213.28 8.55964 212.621 7.95913 212.621 7.21849C212.621 6.47717 213.28 5.87666 214.095 5.87666C214.911 5.87666 215.571 6.47717 215.571 7.21849C215.571 7.95913 214.911 8.55964 214.095 8.55964ZM211.054 7.27603C211.054 8.5048 212.417 9.5 214.095 9.5C215.774 9.5 217.137 8.5048 217.137 7.27603C217.137 6.79604 216.925 6.35124 216.57 5.98837H217.879V5.04801H214.879V4.40214H213.312V5.04801H210.109V5.98837H211.621C211.266 6.35124 211.054 6.79604 211.054 7.27603Z" fill="white"/>
<path d="M207.53 4.80782H205.965V12.3652H207.53V4.80782Z" fill="white"/>
<path d="M190.676 9.59938C189.874 9.59938 189.222 8.71115 189.222 7.61304C189.222 6.51832 189.874 5.63077 190.676 5.63077C191.477 5.63077 192.13 6.51832 192.13 7.61304C192.13 8.71115 191.477 9.59938 190.676 9.59938ZM195.349 6.7458H193.557C193.172 5.55833 192.027 4.6965 190.676 4.6965C189.009 4.6965 187.658 6.00651 187.658 7.62252C187.658 9.23989 189.009 10.5506 190.676 10.5506C192.322 10.5506 193.657 9.27374 193.691 7.68548H195.349V10.7598H196.916V4.8055H195.349V6.7458Z" fill="white"/>
<path d="M201.591 13.7142V12.0338H200.025V13.6817C200.025 13.9467 200.076 14.2093 200.176 14.4542C200.275 14.6992 200.421 14.9218 200.605 15.1093C200.789 15.2969 201.008 15.4457 201.248 15.5472C201.489 15.6488 201.746 15.7011 202.007 15.7012H207.739V14.7615H202.621C202.051 14.7615 201.591 14.2923 201.591 13.7142Z" fill="white"/>
<path d="M159.348 13.7142V12.0338H157.782V13.6817C157.782 13.9467 157.833 14.2093 157.933 14.4542C158.032 14.6992 158.178 14.9218 158.362 15.1093C158.546 15.2969 158.765 15.4457 159.005 15.5472C159.246 15.6488 159.503 15.7011 159.764 15.7012H165.496V14.7615H160.376C159.808 14.7615 159.348 14.2923 159.348 13.7142Z" fill="white"/>
<path d="M192.236 14.7615C191.669 14.7615 191.208 14.2923 191.208 13.7142V13.5415H195.35V14.7615H192.236ZM195.35 12.6025H191.208V11.3825H189.643V13.6817C189.642 14.217 189.851 14.7304 190.223 15.1092C190.594 15.4879 191.098 15.7008 191.624 15.7012H196.916V11.3825H195.35V12.6025Z" fill="white"/>
<path d="M201.625 8.35652C202.159 9.36797 203.124 10.3936 204.867 10.9434V9.90077C202.685 8.84261 202.469 7.03433 202.47 6.18536V5.9281H204.583V4.98706H198.669V5.9281H200.779V6.18536C200.781 7.03433 200.564 8.84261 198.383 9.90077V10.9434C200.126 10.3936 201.09 9.36797 201.625 8.35652Z" fill="white"/>
<path d="M139.48 7.05C140.153 7.83871 141.367 8.72221 143.54 9.10742V8.05129C141.278 7.59973 140.508 6.3818 140.254 5.74879H143.367V4.80843H135.597V5.74879H138.708C138.454 6.3818 137.684 7.59973 135.422 8.05129V9.10742C137.595 8.72221 138.809 7.83871 139.48 7.05Z" fill="white"/>
<path d="M184.663 15.7012H186.229V4.80882H184.663V15.7012Z" fill="white"/>
<path d="M158.266 9.8312C157.892 9.8312 157.588 9.52316 157.588 9.14133V7.93626H159.235V9.8312H158.266ZM160.632 10.7722V7.93626H161.747V12.3652H163.144V4.80781H161.747V6.99658H160.632V4.99061H159.235V6.99658H157.588V4.99061H156.191V9.4426C156.191 10.1758 156.775 10.7716 157.497 10.7716L160.632 10.7722Z" fill="white"/>
<path d="M165.287 4.80782H163.89V12.3652H165.287V4.80782Z" fill="white"/>
<path d="M174.551 7.42613H172.549V8.36649H174.551V15.7012H176.116V4.8095H174.551V7.42613Z" fill="white"/>
<path d="M170.856 7.50801V6.57578H172.969V5.63474H170.856V4.68219H169.229L169.228 5.63474H167.053V6.57578H169.228V7.50801C169.228 8.20127 168.982 10.4137 166.77 11.4536V12.4766C168.371 11.9911 169.423 11.0616 170.042 10.0184C170.661 11.0616 171.712 11.9911 173.314 12.4766V11.4536C171.102 10.4137 170.856 8.20127 170.856 7.50801Z" fill="white"/>
<path d="M150.412 8.11044C151.25 9.58631 152.779 10.7081 154.706 11.2402V10.0771C152.474 9.20922 151.244 7.61351 151.248 5.43017V4.99079H149.574V5.43017C149.579 7.61351 148.349 9.20922 146.117 10.0771V11.2402C148.043 10.7081 149.573 9.58631 150.412 8.11044Z" fill="white"/>
</g>
<defs>
<clipPath id="clip0_2494_8378">
<rect width="241" height="27" fill="white" transform="translate(0 0.5)"/>
</clipPath>
</defs>
</svg>
