<svg width="53" height="29" viewBox="0 0 53 29" fill="none" xmlns="http://www.w3.org/2000/svg">
<path d="M0.294453 13.44H25.4345V16.62H0.294453V13.44ZM10.8845 9.27H14.8445V14.67H10.8845V9.27ZM3.32445 8.01H22.5845V11.16H3.32445V8.01ZM3.32445 1.59H22.4345V4.71H7.28445V10.02H3.32445V1.59ZM12.7745 18C18.7745 18 22.4045 19.83 22.4045 23.1C22.4045 26.37 18.7745 28.2 12.7745 28.2C6.77445 28.2 3.11445 26.37 3.11445 23.1C3.11445 19.83 6.77445 18 12.7745 18ZM12.7745 21C9.05445 21 7.16445 21.69 7.16445 23.1C7.16445 24.54 9.05445 25.17 12.7745 25.17C16.4945 25.17 18.3845 24.54 18.3845 23.1C18.3845 21.69 16.4945 21 12.7745 21ZM33.2621 17.43H37.2221V24.42H33.2621V17.43ZM42.3821 17.43H46.3121V24.42H42.3821V17.43ZM28.3421 3.87H51.2621V7.05H28.3421V3.87ZM27.2921 22.23H52.4321V25.44H27.2921V22.23ZM39.7721 8.19C45.5921 8.19 49.1921 10.17 49.1921 13.56C49.1921 16.92 45.5921 18.87 39.7721 18.87C33.9521 18.87 30.3521 16.92 30.3521 13.56C30.3521 10.17 33.9521 8.19 39.7721 8.19ZM39.7721 11.25C36.2621 11.25 34.4321 12 34.4321 13.56C34.4321 15.09 36.2621 15.81 39.7721 15.81C43.2521 15.81 45.1121 15.09 45.1121 13.56C45.1121 12 43.2521 11.25 39.7721 11.25ZM37.8221 0.689999H41.7821V5.85H37.8221V0.689999Z" fill="white"/>
</svg>
