<svg width="152" height="40" viewBox="0 0 152 40" fill="none" xmlns="http://www.w3.org/2000/svg">
<g clip-path="url(#clip0_2494_8507)">
<path d="M39.8016 19.1097C39.8156 19.4023 39.824 19.6931 39.8259 19.983V19.9989C39.8259 29.2516 33.5714 37.0375 25.0754 39.3216C23.6812 39.6937 22.2513 39.914 20.8102 39.9789C20.3762 39.9987 19.9441 40.0043 19.5148 39.9968C9.43756 39.7985 1.19577 32.081 0.119206 22.1989C0.0733354 21.7709 0.0416801 21.3415 0.0242925 20.9114C0.0101333 20.6214 0.00203406 20.3312 0 20.0409L0 19.9989C0 8.95544 8.91414 0 19.9124 0C29.2922 0 37.1549 6.51238 39.2681 15.2779C39.5684 16.5349 39.7471 17.8181 39.8016 19.1097ZM30.4228 9.9625C29.2577 9.63904 28.3963 9.3613 28.1421 8.8237C28.022 8.56931 28.0955 8.31317 28.2613 8.19344C28.441 8.06157 28.6832 8.10557 28.9654 8.24397C29.3826 8.44691 29.8929 8.74797 30.285 8.7965C31.4266 8.9349 31.2181 7.18091 29.1665 6.16265C27.9596 5.56052 26.7787 5.31372 25.1788 5.37345C24.5865 5.39785 24.0278 5.37625 23.5322 5.29772C22.7845 5.18185 21.8681 4.86292 21.2507 4.73398C20.7786 4.63385 20.5094 4.64705 20.3967 4.80505C20.2924 4.95465 20.3259 5.17532 20.6137 5.54092C21.1911 6.27198 22.101 7.08544 21.6353 8.98824C20.4833 13.7053 22.0609 15.8642 23.6683 16.2186C24.5689 16.4197 25.3985 16.2074 25.9052 15.6791C26.3867 15.1733 26.5943 14.3177 26.1306 13.5932C25.4209 12.4833 25.1705 11.5184 25.8046 11.1172C26.3839 10.7498 27.207 11.0882 27.8329 12.4945C28.834 14.7478 30.1369 15.3453 31.4398 13.7428C32.5069 12.43 32.4651 10.5292 30.4228 9.9625ZM26.7974 22.2746C21.3969 19.0246 18.7186 17.7389 16.5328 16.1718C12.9111 13.5782 12.3385 11.6456 12.2276 10.301C12.0302 7.89424 13.8434 5.72785 15.6891 4.70678C15.8317 4.61985 16.0756 4.41985 15.9694 4.14585C15.8623 3.86905 15.5318 3.92239 15.4079 3.94945C11.2795 4.82932 7.2677 8.48051 7.89067 13.3548C8.13931 15.2854 9.36203 18.5458 15.6937 22.2906C17.8534 23.5669 19.7178 24.5346 22.6448 26.2175C26.6084 28.4934 28.4327 31.4255 25.9778 34.6242C25.7916 34.8476 25.6313 35.0795 25.6984 35.2815C25.7739 35.5152 26.0803 35.5555 26.3662 35.4264C28.2502 34.555 29.8063 33.247 30.5476 32.0343C31.8523 29.8987 32.5023 25.7108 26.7974 22.2746ZM20.4805 35.2525C20.0019 35.1142 19.2755 34.8879 18.6702 34.6223C17.9065 34.2876 17.2165 33.9202 16.9119 33.6172C16.7126 33.4162 16.6819 33.189 16.8412 32.9552C17.7538 31.6378 18.0108 31.116 18.2659 30.4962C18.8079 29.1834 18.2725 29.0563 17.4315 29.2994C16.517 29.562 15.7934 29.8304 15.2328 30.0418C14.4469 30.3363 13.9607 30.5167 13.6748 30.3764C13.3768 30.2315 13.3218 29.7116 13.2147 28.8496C13.1393 28.2363 13.0108 27.5368 12.8469 26.8543C12.5089 25.4865 11.9259 25.7491 11.4444 26.3083C10.8447 27.0394 10.5141 27.9446 10.2654 28.4195C10.1322 28.6738 9.97956 28.758 9.79332 28.7178C9.37796 28.629 8.82945 27.9828 8.23063 27.2152C7.35611 26.0923 6.96597 25.2293 6.51052 25.1759C5.54293 25.0629 5.97316 27.3611 6.88114 29.2554C7.76682 31.1095 9.14048 32.9347 11.4416 34.3951C14.0668 36.0641 17.9466 36.67 20.3296 36.3333C21.0822 36.2268 21.2311 35.4695 20.4805 35.2525Z" fill="white"/>
<path d="M47.1383 21.6624C47.4197 21.6337 47.7574 21.5446 48.1575 21.3898C48.5561 21.2341 48.977 21.0336 49.4211 20.7896C49.8598 20.5451 50.2901 20.2856 50.711 20.0113C52.1782 19.0286 53.4094 17.8284 54.4041 16.4081C54.822 16.992 55.3338 17.541 55.9429 18.0598C56.5449 18.5755 57.184 19.0458 57.855 19.4669C59.0353 20.1933 59.9529 20.6301 60.6135 20.7749C61.2766 20.9205 61.6953 20.8292 61.8765 20.5008L63.0469 18.2922C62.2504 18.0188 61.4555 17.6842 60.666 17.2808C59.8796 16.8828 59.175 16.4081 58.5474 15.8637C57.9252 15.3169 57.4132 14.685 57.0153 13.9664C56.6144 13.2469 56.4156 12.4432 56.4156 11.5519V7.92213H51.7164C51.5167 7.92213 51.3803 8.00587 51.3085 8.16773C51.2353 8.33187 51.2815 8.51387 51.4427 8.71213C51.6986 9.0056 51.8559 9.29133 51.9191 9.5732C51.9839 9.85426 52.014 10.2245 52.014 10.6791V11.8228C52.014 12.6964 51.8389 13.4978 51.4858 14.2273C51.1319 14.9545 50.6478 15.6181 50.0317 16.2184C49.4142 16.82 48.7049 17.3605 47.8985 17.84C47.0935 18.324 46.2362 18.7374 45.3311 19.0836L46.5801 21.4572C46.6718 21.6213 46.8552 21.6894 47.1383 21.6624ZM54.5147 29.3035C54.2416 29.0945 54.1052 28.6717 54.1052 28.0335V23.0673H49.4877C49.2858 23.0673 49.1516 23.1486 49.0814 23.3128C49.0074 23.4769 49.0522 23.6566 49.2178 23.8556C49.4715 24.1707 49.6296 24.4542 49.692 24.7175C49.7545 24.9839 49.7884 25.3502 49.7884 25.8241V28.4447C49.7884 29.2787 49.8963 29.9734 50.1131 30.5162C50.3312 31.063 50.6642 31.499 51.1192 31.8273C51.5725 32.1557 52.1331 32.3818 52.8038 32.5095C53.473 32.6366 54.2602 32.7015 55.1646 32.7015H69.8372V29.6179H55.8461C55.2278 29.6179 54.786 29.5118 54.5147 29.3035ZM69.4304 24.4605V7.48254H64.7851C64.5854 7.48254 64.4451 7.56387 64.3633 7.7156C64.2817 7.87213 64.3225 8.05013 64.4852 8.2508C64.7389 8.542 64.9146 8.83 65.0157 9.1212C65.1143 9.4132 65.1659 9.79573 65.1659 10.2673V24.4605H69.4304ZM76.6851 30.5166C76.9009 31.0655 77.238 31.5009 77.6881 31.8283C78.143 32.1551 78.7051 32.3798 79.3736 32.5106C80.0443 32.6391 80.833 32.7042 81.7382 32.7042H96.195V29.6182H82.4721C81.8376 29.6182 81.3796 29.5051 81.1006 29.2914C80.8192 29.073 80.6797 28.6347 80.6797 27.9789V24.1571H76.0614C75.8594 24.1571 75.7244 24.2423 75.6519 24.4065C75.5802 24.5675 75.625 24.7487 75.7877 24.9502C75.9874 25.1879 76.1331 25.4147 76.2225 25.6339C76.3135 25.8507 76.3597 26.097 76.3597 26.3697V28.4171C76.3597 29.2705 76.4662 29.9698 76.6851 30.5166ZM78.6694 13.83C79.1737 13.2018 79.9099 12.886 80.8705 12.886C81.812 12.886 82.539 13.2018 83.0563 13.83C83.5736 14.4588 83.8334 15.2354 83.8334 16.164C83.8334 17.036 83.5736 17.7872 83.0563 18.4128C82.539 19.044 81.812 19.3553 80.8705 19.3553C79.9099 19.3553 79.1737 19.044 78.6694 18.4128C78.1597 17.7872 77.9092 17.036 77.9092 16.164C77.9092 15.2354 78.1597 14.4588 78.6694 13.83ZM74.1722 14.3612C73.9471 14.9442 73.8314 15.5901 73.8314 16.2988C73.8314 17.1552 73.9895 17.9521 74.3095 18.6869C74.6247 19.4242 75.082 20.0677 75.6757 20.6129C76.2748 21.1573 77.0095 21.5856 77.8799 21.8953C78.7495 22.205 79.7434 22.36 80.8705 22.36C81.9924 22.36 82.9954 22.205 83.8705 21.8953C84.7502 21.5856 85.4857 21.1573 86.084 20.6129C86.6815 20.0677 87.1356 19.4242 87.4433 18.6869C87.7509 17.9521 87.9043 17.1552 87.9043 16.2988C87.9043 15.608 87.7825 14.9668 87.5397 14.375C87.2988 13.791 86.9624 13.2516 86.5442 12.7791H89.4008V9.77746H83.2329V6.72094H78.5869C78.3849 6.72094 78.2462 6.7984 78.1636 6.95254C78.0834 7.10814 78.1328 7.28627 78.3132 7.4852C78.5683 7.79507 78.7272 8.0908 78.7912 8.37267C78.8544 8.65387 78.886 9.03013 78.886 9.50413V9.77746H72.2856V12.7791H75.1359C74.7211 13.2531 74.3973 13.7796 74.1722 14.3612ZM95.8664 7.48534H91.2205C91.0208 7.48534 90.8805 7.562 90.7987 7.7176C90.7163 7.87173 90.7655 8.0484 90.9514 8.2504C91.2035 8.55867 91.3731 8.85453 91.4664 9.1356C91.5527 9.41666 91.6037 9.79533 91.6037 10.2677V24.8397H95.8664V16.8741H98.9613V13.7897H95.8664V7.48534ZM117.086 14.881C116.215 15.355 114.748 15.592 112.686 15.592C110.617 15.592 109.153 15.355 108.282 14.881C107.412 14.408 106.977 13.7434 106.977 12.8885C106.977 12.0523 107.412 11.3839 108.282 10.8836C109.153 10.3827 110.617 10.1317 112.686 10.1317C114.748 10.1317 116.215 10.3827 117.086 10.8836C117.954 11.3839 118.388 12.0523 118.388 12.8885C118.388 13.7434 117.954 14.408 117.086 14.881ZM120.223 8.7812C119.397 8.28093 118.361 7.896 117.115 7.62107C115.865 7.34934 114.388 7.21374 112.686 7.21374C110.979 7.21374 109.506 7.34934 108.253 7.62107C107.007 7.896 105.974 8.28093 105.156 8.7812C104.343 9.28293 103.734 9.88306 103.336 10.5816C102.938 11.284 102.742 12.0523 102.742 12.8885C102.742 13.707 102.938 14.4621 103.336 15.1552C103.734 15.8452 104.343 16.44 105.156 16.941C105.974 17.4413 107.007 17.8338 108.253 18.115C109.506 18.3977 110.979 18.537 112.686 18.537C114.388 18.537 115.865 18.3977 117.115 18.115C118.361 17.8338 119.397 17.4413 120.223 16.941C121.046 16.44 121.663 15.8452 122.057 15.1552C122.454 14.4621 122.655 13.707 122.655 12.8885C122.655 12.0523 122.454 11.284 122.057 10.5816C121.663 9.88306 121.046 9.28293 120.223 8.7812ZM123.009 29.6182H108.555C108.104 29.6182 107.781 29.5523 107.591 29.4269C107.4 29.2999 107.305 28.9886 107.305 28.4999V24.4591H102.687C102.488 24.4591 102.352 24.5403 102.28 24.7061C102.206 24.8679 102.25 25.0507 102.414 25.2505C102.615 25.4875 102.759 25.7167 102.85 25.9327C102.941 26.1511 102.984 26.3974 102.984 26.6677V29.2349C102.984 29.9263 103.076 30.4963 103.269 30.9401C103.461 31.3846 103.75 31.7415 104.14 32.0049C104.528 32.2689 105.029 32.4502 105.635 32.5523C106.241 32.653 106.951 32.701 107.766 32.701H123.009V29.6182ZM125.617 19.8474H99.7246V22.8204H125.617V19.8474ZM131.865 14.5128C131.958 14.1565 132.104 13.8382 132.315 13.5564C132.522 13.2759 132.792 13.0473 133.102 12.8881C133.42 12.724 133.793 12.6435 134.23 12.6435C134.664 12.6435 135.039 12.724 135.357 12.8881C135.671 13.0523 135.936 13.2753 136.146 13.5564C136.356 13.8423 136.508 14.1674 136.592 14.5128C136.684 14.8742 136.729 15.2457 136.728 15.6186C136.728 15.981 136.682 16.3373 136.592 16.6818C136.507 17.018 136.355 17.3334 136.146 17.6089C135.936 17.883 135.671 18.1021 135.357 18.2648C135.039 18.4274 134.664 18.511 134.23 18.511C133.793 18.511 133.42 18.4274 133.102 18.2648C132.786 18.1021 132.524 17.883 132.315 17.6089C132.104 17.3362 131.958 17.0265 131.865 16.6818C131.774 16.3349 131.728 15.9775 131.729 15.6186C131.729 15.2337 131.774 14.8674 131.865 14.5128ZM128.157 13.9537C127.986 14.464 127.898 15.0069 127.898 15.5908C127.898 16.4628 128.039 17.2626 128.32 17.9898C128.601 18.7193 129.009 19.3373 129.544 19.8476C130.076 20.3572 130.737 20.7521 131.526 21.034C132.315 21.3158 133.217 21.4576 134.23 21.4576C135.243 21.4576 136.146 21.3158 136.931 21.034C137.72 20.7521 138.383 20.3572 138.917 19.8476C139.448 19.3373 139.859 18.7193 140.14 17.9898C140.417 17.2626 140.56 16.4628 140.56 15.5908C140.56 15.0069 140.47 14.464 140.289 13.9537C140.104 13.4433 139.862 12.9795 139.555 12.5621H141.376V9.55893H136.54V6.63867H132.055C131.857 6.63867 131.711 6.72081 131.623 6.88347C131.529 7.04987 131.573 7.2396 131.758 7.4588C132.011 7.75067 132.164 8.03573 132.222 8.3176C132.276 8.59867 132.299 8.98586 132.299 9.4784V9.55893H126.732V12.5621H128.878C128.569 12.9795 128.329 13.4433 128.157 13.9537ZM142.108 7.64947C141.928 7.64947 141.802 7.716 141.729 7.85387C141.657 7.99093 141.699 8.1776 141.865 8.41453C142.026 8.65 142.156 8.88 142.26 9.1092C142.358 9.33613 142.406 9.69693 142.406 10.1864V20.9653H146.293V15.8914H148.114V21.7048H152V7.4852H148.114V12.6691H146.293V7.64947H142.108ZM136.988 26.7655C137.178 26.4295 137.489 26.1499 137.924 25.9331C138.358 25.7147 138.924 25.549 139.623 25.4266C140.321 25.3074 141.174 25.2531 142.193 25.2531C143.204 25.2531 144.059 25.3074 144.759 25.4266C145.453 25.549 146.015 25.7147 146.443 25.9331C146.869 26.1499 147.175 26.4295 147.364 26.7655C147.558 27.1025 147.654 27.4873 147.654 27.9249C147.654 28.343 147.558 28.7217 147.364 29.0578C147.175 29.3946 146.869 29.675 146.443 29.9019C146.015 30.1295 145.453 30.3038 144.759 30.4238C144.059 30.5407 143.204 30.5997 142.193 30.5997C141.174 30.5997 140.321 30.5407 139.623 30.4238C138.924 30.3038 138.358 30.1295 137.924 29.9019C137.489 29.675 137.178 29.3946 136.988 29.0578C136.797 28.7217 136.702 28.343 136.702 27.9249C136.702 27.4873 136.797 27.1025 136.988 26.7655ZM132.382 27.9249C132.382 28.7814 132.589 29.5627 133.007 30.2713C133.424 30.9783 134.048 31.5878 134.88 32.0857C135.717 32.5859 136.735 32.9731 137.949 33.2466C139.165 33.5191 140.58 33.6584 142.193 33.6584C143.766 33.6584 145.163 33.5191 146.387 33.2466C147.612 32.9731 148.632 32.5859 149.459 32.0857C150.281 31.5878 150.913 30.9783 151.344 30.2713C151.782 29.5627 151.998 28.7814 151.998 27.9249C151.998 26.1623 151.155 24.7645 149.469 23.7338C147.787 22.7093 145.359 22.195 142.193 22.195C138.949 22.195 136.501 22.7093 134.851 23.7338C133.208 24.7645 132.382 26.1623 132.382 27.9249Z" fill="white"/>
</g>
<defs>
<clipPath id="clip0_2494_8507">
<rect width="152" height="40" fill="white"/>
</clipPath>
</defs>
</svg>
