<svg width="245" height="30" viewBox="0 0 245 30" fill="none" xmlns="http://www.w3.org/2000/svg">
<g clip-path="url(#clip0_2494_8456)">
<path d="M30.6827 0.11377H0.90332V29.8865H30.6827V0.11377Z" fill="#B2D235"/>
<path d="M57.1649 6.22314H52.3789V24.3832H57.1649V6.22314Z" fill="white"/>
<path d="M71.3165 14.8961H83.8065V20.4399H71.3165V14.8961ZM88.6124 21.098V14.258C88.6124 11.6723 86.4654 10.981 85.3354 10.981H71.3231V6.23486H66.5371V20.7722C66.5371 20.8254 66.5172 22.1283 67.5276 23.1586C68.3053 23.9629 69.4752 24.3684 70.9908 24.3684H85.3287C86.4654 24.3684 88.6124 23.6771 88.6124 21.1046" fill="white"/>
<path d="M113.507 20.4407H101.016V10.1575H113.507V20.4407ZM113.839 6.229H100.677C99.1619 6.229 97.9986 6.63448 97.2143 7.43879C96.2106 8.4691 96.2305 9.7653 96.2305 9.82513V20.7531C96.2305 20.7863 96.2903 24.3692 100.671 24.3692H113.846C118.219 24.3692 118.286 20.793 118.286 20.7597V9.81183C118.286 9.7653 118.306 8.4691 117.302 7.43879C116.524 6.63448 115.354 6.229 113.839 6.229Z" fill="white"/>
<path d="M19.2969 7.35874V9.12025H23.1788V24.3822H27.9648V4.53369L19.2969 7.35874Z" fill="#00377B"/>
<path d="M36.5188 15.0439L45.8781 6.28955H39.7294L30.6826 15.0439L39.8158 24.2901H45.9379L36.5188 15.0439Z" fill="white"/>
<path d="M127.805 7.28564H129.174V10.2104L131.647 7.28564H133.328L130.517 10.4962L133.448 14.099H131.653L129.194 10.9349H129.174V14.099H127.805V7.28564Z" fill="white"/>
<path d="M136.439 13.2012C137.449 13.2012 137.715 12.3038 137.715 11.4662C137.715 10.6952 137.303 9.97063 136.439 9.97063C135.575 9.97063 135.176 10.7151 135.176 11.4662C135.176 12.2971 135.442 13.2012 136.439 13.2012ZM136.439 8.95361C137.941 8.95361 139.085 9.95734 139.085 11.6191C139.085 13.0616 138.114 14.2115 136.439 14.2115C134.764 14.2115 133.807 13.0616 133.807 11.6191C133.807 9.95734 134.95 8.95361 136.439 8.95361Z" fill="white"/>
<path d="M140.042 9.07326H141.205V10.2166H141.225C141.285 9.74463 141.823 8.95361 142.608 8.95361C142.734 8.95361 142.874 8.95361 143.006 8.9935V10.3096C142.887 10.2432 142.654 10.2033 142.421 10.2033C141.351 10.2033 141.351 11.5327 141.351 12.2506V14.0919H140.035V9.06662L140.042 9.07326Z" fill="white"/>
<path d="M146.722 11.094C146.682 10.4559 146.39 9.91081 145.652 9.91081C144.914 9.91081 144.542 10.416 144.489 11.094H146.722ZM147.6 13.8127C147.121 14.0786 146.569 14.2115 145.865 14.2115C144.203 14.2115 143.232 13.2543 143.232 11.6058C143.232 10.1501 144.003 8.95361 145.572 8.95361C147.44 8.95361 147.972 10.2299 147.972 11.9914H144.482C144.542 12.8023 145.107 13.261 145.925 13.261C146.563 13.261 147.108 13.0283 147.6 12.7492V13.8127Z" fill="white"/>
<path d="M150.67 13.2543C151.069 13.2543 151.388 13.0815 151.588 12.809C151.807 12.5231 151.86 12.1642 151.86 11.772H151.289C150.704 11.772 149.826 11.8717 149.826 12.6428C149.826 13.0749 150.185 13.2543 150.657 13.2543M149.135 9.3325C149.647 9.09985 150.331 8.95361 150.89 8.95361C152.425 8.95361 153.063 9.5851 153.063 11.0741V11.7188C153.063 12.224 153.077 12.6096 153.083 12.9752C153.09 13.354 153.11 13.7063 153.143 14.0985H151.987C151.94 13.8326 151.94 13.5003 151.927 13.3474H151.907C151.601 13.9058 150.95 14.2115 150.351 14.2115C149.461 14.2115 148.59 13.6731 148.59 12.7159C148.59 11.9648 148.949 11.5261 149.454 11.2801C149.953 11.0342 150.597 10.9877 151.149 10.9877H151.874C151.874 10.1767 151.508 9.90416 150.737 9.90416C150.179 9.90416 149.62 10.1169 149.181 10.4492L149.142 9.32586L149.135 9.3325Z" fill="white"/>
<path d="M158.249 8.36249H156.295V7.28564H161.579V8.36249H159.619V14.099H158.249V8.36249Z" fill="white"/>
<path d="M164.317 11.094C164.277 10.4559 163.985 9.91081 163.254 9.91081C162.522 9.91081 162.143 10.416 162.09 11.094H164.324H164.317ZM165.201 13.8127C164.723 14.0786 164.171 14.2115 163.466 14.2115C161.804 14.2115 160.834 13.2543 160.834 11.6058C160.834 10.1501 161.605 8.95361 163.174 8.95361C165.042 8.95361 165.573 10.2299 165.573 11.9914H162.084C162.143 12.8023 162.708 13.261 163.526 13.261C164.164 13.261 164.709 13.0283 165.201 12.7492V13.8127Z" fill="white"/>
<path d="M169.781 10.1579C169.548 10.0516 169.289 9.9718 168.89 9.9718C168.079 9.9718 167.554 10.6166 167.554 11.5605C167.554 12.5044 167.993 13.2023 168.917 13.2023C169.289 13.2023 169.701 13.0627 169.927 12.9697L169.987 14.0532C169.608 14.1728 169.216 14.2193 168.677 14.2193C167.022 14.2193 166.191 13.096 166.191 11.5671C166.191 10.0383 167.056 8.96143 168.631 8.96143C169.156 8.96143 169.542 9.02125 169.907 9.12761L169.788 10.1646L169.781 10.1579Z" fill="white"/>
<path d="M170.759 6.78174H172.068V9.75968H172.088C172.421 9.27443 172.992 8.96201 173.677 8.96201C174.873 8.96201 175.392 9.79956 175.392 10.9296V14.1003H174.082V11.4148C174.082 10.8033 174.076 9.97239 173.232 9.97239C172.281 9.97239 172.075 10.9961 172.075 11.6408V14.1003H170.765V6.78174H170.759Z" fill="white"/>
<path d="M176.654 9.07443H177.897V9.75909H177.917C178.329 9.18078 178.888 8.96143 179.572 8.96143C180.769 8.96143 181.287 9.79897 181.287 10.9356V14.1063H179.978V11.4209C179.978 10.8027 179.971 9.97844 179.127 9.97844C178.177 9.97844 177.97 11.0021 177.97 11.6469V14.1063H176.661V9.08107L176.654 9.07443Z" fill="white"/>
<path d="M184.857 13.2012C185.867 13.2012 186.133 12.3038 186.133 11.4662C186.133 10.6952 185.721 9.97063 184.857 9.97063C183.993 9.97063 183.594 10.7151 183.594 11.4662C183.594 12.2971 183.86 13.2012 184.857 13.2012ZM184.857 8.95361C186.353 8.95361 187.502 9.95734 187.502 11.6191C187.502 13.0616 186.532 14.2115 184.857 14.2115C183.182 14.2115 182.225 13.0616 182.225 11.6191C182.225 9.95734 183.368 8.95361 184.857 8.95361Z" fill="white"/>
<path d="M189.776 6.78174H188.467V14.1003H189.776V6.78174Z" fill="white"/>
<path d="M193.373 13.2012C194.383 13.2012 194.649 12.3038 194.649 11.4662C194.649 10.6952 194.237 9.97063 193.373 9.97063C192.508 9.97063 192.11 10.7151 192.11 11.4662C192.11 12.2971 192.375 13.2012 193.373 13.2012ZM193.373 8.95361C194.875 8.95361 196.018 9.95734 196.018 11.6191C196.018 13.0616 195.048 14.2115 193.373 14.2115C191.697 14.2115 190.74 13.0616 190.74 11.6191C190.74 9.95734 191.884 8.95361 193.373 8.95361Z" fill="white"/>
<path d="M200.279 11.5327C200.279 10.6752 199.947 9.97063 199.182 9.97063C198.291 9.97063 198.006 10.7882 198.006 11.5593C198.006 12.244 198.365 13.0815 199.122 13.0815C199.947 13.0815 200.279 12.3703 200.279 11.5327ZM201.588 9.07326V13.6133C201.588 14.976 201.037 16.2655 198.923 16.2655C198.404 16.2655 197.806 16.1857 197.181 15.9265L197.288 14.8164C197.687 15.0291 198.345 15.2551 198.757 15.2551C200.206 15.2551 200.272 14.1717 200.272 13.3009H200.252C200.006 13.7329 199.422 14.0985 198.684 14.0985C197.195 14.0985 196.623 12.9087 196.623 11.5593C196.623 10.3495 197.248 8.95361 198.757 8.95361C199.422 8.95361 199.94 9.17962 200.306 9.75127H200.326V9.06662H201.582L201.588 9.07326Z" fill="white"/>
<path d="M204.945 12.744H204.965L206.181 9.07471H207.511L205.616 14.0601C205.197 15.1702 204.892 16.267 203.522 16.267C203.21 16.267 202.897 16.2204 202.592 16.1274L202.678 15.1635C202.844 15.2233 203.03 15.2499 203.356 15.2499C203.888 15.2499 204.207 14.891 204.207 14.3526L202.279 9.07471H203.728L204.945 12.744Z" fill="white"/>
<path d="M210.941 7.28564H214.744V8.36249H212.317V10.0376H214.624V11.1144H212.317V14.099H210.941V7.28564Z" fill="white"/>
<path d="M215.66 9.07372H216.97V14.099H215.66V9.07372ZM215.66 6.90674H216.97V8.15641H215.66V6.90674Z" fill="white"/>
<path d="M218.26 9.07443H219.503V9.75909H219.523C219.935 9.18078 220.493 8.96143 221.178 8.96143C222.374 8.96143 222.893 9.79897 222.893 10.9356V14.1063H221.583V11.4209C221.583 10.8027 221.577 9.97844 220.733 9.97844C219.782 9.97844 219.576 11.0021 219.576 11.6469V14.1063H218.266V9.08107L218.26 9.07443Z" fill="white"/>
<path d="M225.911 13.2543C226.309 13.2543 226.629 13.0815 226.835 12.809C227.047 12.5231 227.107 12.1642 227.107 11.772H226.535C225.951 11.772 225.08 11.8717 225.08 12.6428C225.08 13.0749 225.439 13.2543 225.911 13.2543ZM224.375 9.3325C224.887 9.09985 225.572 8.95361 226.13 8.95361C227.665 8.95361 228.304 9.5851 228.304 11.0741V11.7188C228.304 12.224 228.317 12.6096 228.324 12.9752C228.33 13.354 228.35 13.7063 228.383 14.0985H227.227C227.174 13.8326 227.174 13.5003 227.167 13.3474H227.147C226.841 13.9058 226.183 14.2115 225.592 14.2115C224.701 14.2115 223.83 13.6731 223.83 12.7159C223.83 11.9648 224.189 11.5261 224.694 11.2801C225.193 11.0342 225.838 10.9877 226.389 10.9877H227.114C227.114 10.1767 226.755 9.90416 225.977 9.90416C225.419 9.90416 224.86 10.1169 224.422 10.4492L224.382 9.32586L224.375 9.3325Z" fill="white"/>
<path d="M229.5 9.07443H230.743V9.75909H230.763C231.175 9.18078 231.733 8.96143 232.418 8.96143C233.615 8.96143 234.133 9.79897 234.133 10.9356V14.1063H232.824V11.4209C232.824 10.8027 232.817 9.97844 231.973 9.97844C231.022 9.97844 230.816 11.0021 230.816 11.6469V14.1063H229.507V9.08107L229.5 9.07443Z" fill="white"/>
<path d="M238.666 10.1579C238.434 10.0516 238.175 9.9718 237.776 9.9718C236.965 9.9718 236.44 10.6166 236.44 11.5605C236.44 12.5044 236.878 13.2023 237.802 13.2023C238.175 13.2023 238.587 13.0627 238.813 12.9697L238.873 14.0532C238.494 14.1728 238.101 14.2193 237.556 14.2193C235.901 14.2193 235.07 13.096 235.07 11.5671C235.07 10.0383 235.934 8.96143 237.51 8.96143C238.035 8.96143 238.42 9.02125 238.786 9.12761L238.666 10.1646V10.1579Z" fill="white"/>
<path d="M242.807 11.094C242.767 10.4559 242.475 9.91081 241.737 9.91081C240.999 9.91081 240.627 10.416 240.574 11.094H242.807ZM243.691 13.8127C243.213 14.0786 242.661 14.2115 241.957 14.2115C240.288 14.2115 239.324 13.2543 239.324 11.6058C239.324 10.1501 240.095 8.95361 241.664 8.95361C243.539 8.95361 244.064 10.2299 244.064 11.9914H240.574C240.634 12.8023 241.199 13.261 242.016 13.261C242.654 13.261 243.2 13.0283 243.691 12.7492V13.8127Z" fill="white"/>
<path d="M132.776 24.3557C132.277 24.4753 131.739 24.575 131.221 24.575C129.007 24.575 127.465 23.4716 127.465 21.1717C127.465 18.8717 128.894 17.5356 131.221 17.5356C131.673 17.5356 132.271 17.6221 132.769 17.8148L132.67 18.9648C132.151 18.6723 131.679 18.6058 131.187 18.6058C129.778 18.6058 128.894 19.6827 128.894 21.0786C128.894 22.4745 129.758 23.5048 131.214 23.5048C131.752 23.5048 132.39 23.3918 132.716 23.2256L132.776 24.3689V24.3557Z" fill="white"/>
<path d="M135.887 23.5586C136.898 23.5586 137.163 22.6612 137.163 21.8237C137.163 21.0526 136.751 20.3281 135.887 20.3281C135.023 20.3281 134.624 21.0725 134.624 21.8237C134.624 22.6546 134.89 23.5586 135.887 23.5586ZM135.887 19.311C137.389 19.311 138.533 20.3148 138.533 21.9766C138.533 23.419 137.562 24.569 135.887 24.569C134.212 24.569 133.255 23.419 133.255 21.9766C133.255 20.3148 134.398 19.311 135.887 19.311Z" fill="white"/>
<path d="M139.497 19.4307H140.66V20.574H140.68C140.74 20.1087 141.278 19.311 142.063 19.311C142.189 19.311 142.329 19.311 142.462 19.3509V20.6671C142.342 20.6006 142.109 20.5607 141.877 20.5607C140.806 20.5607 140.806 21.8901 140.806 22.608V24.456H139.49V19.4307H139.497Z" fill="white"/>
<path d="M144.502 21.93C144.502 22.6413 144.788 23.5586 145.659 23.5586C146.53 23.5586 146.769 22.6213 146.769 21.93C146.769 21.2387 146.536 20.3281 145.685 20.3281C144.835 20.3281 144.509 21.2254 144.509 21.93M143.179 19.4307H144.436V20.1419H144.456C144.748 19.6567 145.247 19.311 146.024 19.311C147.573 19.311 148.138 20.5408 148.138 21.93C148.138 23.3193 147.573 24.5756 145.991 24.5756C145.433 24.5756 144.974 24.436 144.509 23.8843H144.489V26.5099H143.173V19.4373L143.179 19.4307Z" fill="white"/>
<path d="M150.724 23.8118C151.482 23.8118 151.675 23.1405 151.675 22.5156C151.675 21.9373 151.369 21.3989 150.724 21.3989C150.079 21.3989 149.78 21.9506 149.78 22.5156C149.78 23.1338 149.98 23.8118 150.724 23.8118ZM150.724 20.6411C151.848 20.6411 152.705 21.3922 152.705 22.6286C152.705 23.7055 151.981 24.5696 150.724 24.5696C149.468 24.5696 148.75 23.7055 148.75 22.6286C148.75 21.3856 149.607 20.6411 150.724 20.6411Z" fill="white"/>
<path d="M154.992 19.4307H156.155V20.574H156.175C156.235 20.1087 156.773 19.311 157.558 19.311C157.684 19.311 157.824 19.311 157.957 19.3509V20.6671C157.837 20.6006 157.604 20.5607 157.372 20.5607C156.301 20.5607 156.301 21.8901 156.301 22.608V24.456H154.985V19.4307H154.992Z" fill="white"/>
<path d="M160.442 23.6118C160.841 23.6118 161.16 23.4323 161.366 23.1598C161.579 22.8739 161.638 22.515 161.638 22.1228H161.067C160.482 22.1228 159.611 22.2225 159.611 22.9936C159.611 23.4256 159.977 23.6051 160.442 23.6051M158.906 19.6899C159.418 19.4573 160.103 19.311 160.661 19.311C162.197 19.311 162.835 19.9425 162.835 21.4248V22.0696C162.835 22.5748 162.842 22.9537 162.855 23.3259C162.861 23.7048 162.881 24.0571 162.915 24.4493H161.758C161.705 24.1834 161.705 23.8511 161.698 23.6982H161.678C161.372 24.2565 160.721 24.569 160.123 24.569C159.232 24.569 158.361 24.0305 158.361 23.0733C158.361 22.3222 158.72 21.8835 159.225 21.6375C159.724 21.3916 160.369 21.3451 160.92 21.3451H161.645C161.645 20.5341 161.279 20.2616 160.508 20.2616C159.95 20.2616 159.392 20.4743 158.953 20.8067L158.913 19.6833L158.906 19.6899Z" fill="white"/>
<path d="M164.465 20.388H163.494V19.4308H164.465V18.4271L165.781 18.0083V19.4374H166.944V20.3946H165.781V22.7344C165.781 23.1665 165.9 23.5653 166.399 23.5653C166.632 23.5653 166.858 23.5188 166.997 23.4258L167.037 24.4627C166.765 24.5425 166.459 24.5824 166.067 24.5824C165.036 24.5824 164.471 23.9509 164.471 22.9538V20.3946L164.465 20.388Z" fill="white"/>
<path d="M167.773 19.4311H169.09V24.4564H167.773V19.4311ZM167.773 17.2642H169.09V18.5138H167.773V17.2642Z" fill="white"/>
<path d="M172.686 23.5586C173.696 23.5586 173.962 22.6612 173.962 21.8237C173.962 21.0526 173.55 20.3281 172.686 20.3281C171.822 20.3281 171.423 21.0725 171.423 21.8237C171.423 22.6546 171.689 23.5586 172.686 23.5586ZM172.686 19.311C174.188 19.311 175.332 20.3148 175.332 21.9766C175.332 23.419 174.361 24.569 172.686 24.569C171.011 24.569 170.054 23.419 170.054 21.9766C170.054 20.3148 171.197 19.311 172.686 19.311Z" fill="white"/>
<path d="M176.27 19.4307H177.513V20.1153H177.532C177.945 19.537 178.503 19.311 179.188 19.311C180.384 19.311 180.903 20.1486 180.903 21.2852V24.456H179.586V21.7705C179.586 21.1523 179.58 20.3281 178.736 20.3281C177.785 20.3281 177.579 21.3517 177.579 21.9965V24.456H176.27V19.4307Z" fill="white"/>
</g>
<defs>
<clipPath id="clip0_2494_8456">
<rect width="243.161" height="29.7727" fill="white" transform="translate(0.90332 0.11377)"/>
</clipPath>
</defs>
</svg>
