<svg width="17" height="24" viewBox="0 0 17 24" fill="none" xmlns="http://www.w3.org/2000/svg">
<path d="M0.344453 2.5H4.72445V23.5H0.344453V2.5ZM7.48445 23.5H3.10445V19.6H7.33445C8.25445 19.6 9.12445 19.48 9.94445 19.24C10.7645 18.98 11.4845 18.58 12.1045 18.04C12.7245 17.5 13.2045 16.82 13.5445 16C13.9045 15.16 14.0845 14.16 14.0845 13C14.0845 11.84 13.9045 10.85 13.5445 10.03C13.2045 9.19 12.7245 8.5 12.1045 7.96C11.4845 7.42 10.7645 7.03 9.94445 6.79C9.12445 6.53 8.25445 6.4 7.33445 6.4H3.10445V2.5H7.48445C9.68445 2.5 11.6045 2.93 13.2445 3.79C14.9045 4.65 16.1945 5.87 17.1145 7.45C18.0345 9.01 18.4945 10.86 18.4945 13C18.4945 15.14 18.0345 17 17.1145 18.58C16.1945 20.14 14.9045 21.35 13.2445 22.21C11.6045 23.07 9.68445 23.5 7.48445 23.5ZM27.3691 23.8C25.8691 23.8 24.5591 23.5 23.4391 22.9C22.3191 22.3 21.4491 21.47 20.8291 20.41C20.2291 19.33 19.9291 18.06 19.9291 16.6C19.9291 15.12 20.2291 13.85 20.8291 12.79C21.4491 11.71 22.3191 10.88 23.4391 10.3C24.5591 9.7 25.8791 9.4 27.3991 9.4C28.9191 9.4 30.2091 9.68 31.2691 10.24C32.3491 10.78 33.1691 11.58 33.7291 12.64C34.2891 13.68 34.5691 14.94 34.5691 16.42C34.5691 16.6 34.5591 16.79 34.5391 16.99C34.5391 17.19 34.5291 17.35 34.5091 17.47H22.1491V15.07H31.1191L30.0691 16.45C30.1491 16.33 30.2191 16.17 30.2791 15.97C30.3591 15.75 30.3991 15.57 30.3991 15.43C30.3991 14.75 30.2691 14.17 30.0091 13.69C29.7691 13.21 29.4191 12.83 28.9591 12.55C28.4991 12.27 27.9591 12.13 27.3391 12.13C26.5791 12.13 25.9391 12.3 25.4191 12.64C24.9191 12.96 24.5291 13.45 24.2491 14.11C23.9891 14.75 23.8491 15.55 23.8291 16.51C23.8291 17.43 23.9591 18.21 24.2191 18.85C24.4991 19.49 24.9091 19.98 25.4491 20.32C25.9891 20.66 26.6391 20.83 27.3991 20.83C28.2591 20.83 28.9891 20.67 29.5891 20.35C30.2091 20.01 30.7191 19.51 31.1191 18.85L34.5091 19.9C33.7891 21.2 32.8291 22.18 31.6291 22.84C30.4491 23.48 29.0291 23.8 27.3691 23.8ZM32.1714 6.37V2.5H47.7714V6.37H42.1014V23.5H37.8114V6.37H32.1714ZM49.0206 19.21C49.0206 19.61 49.1206 19.96 49.3206 20.26C49.5206 20.54 49.7906 20.76 50.1306 20.92C50.4906 21.06 50.8806 21.13 51.3006 21.13C51.9006 21.13 52.4406 21.01 52.9206 20.77C53.4006 20.51 53.7906 20.15 54.0906 19.69C54.3906 19.21 54.5406 18.64 54.5406 17.98L55.0206 19.78C55.0206 20.66 54.7706 21.4 54.2706 22C53.7906 22.6 53.1606 23.05 52.3806 23.35C51.6206 23.65 50.8206 23.8 49.9806 23.8C49.1206 23.8 48.3206 23.63 47.5806 23.29C46.8406 22.95 46.2406 22.46 45.7806 21.82C45.3406 21.16 45.1206 20.36 45.1206 19.42C45.1206 18.08 45.5906 17.02 46.5306 16.24C47.4706 15.46 48.8006 15.07 50.5206 15.07C51.4006 15.07 52.1706 15.16 52.8306 15.34C53.5106 15.52 54.0806 15.74 54.5406 16C55.0006 16.26 55.3306 16.51 55.5306 16.75V18.55C54.9906 18.15 54.3806 17.85 53.7006 17.65C53.0406 17.45 52.3406 17.35 51.6006 17.35C51.0006 17.35 50.5106 17.43 50.1306 17.59C49.7506 17.73 49.4706 17.94 49.2906 18.22C49.1106 18.48 49.0206 18.81 49.0206 19.21ZM47.5206 13.6L46.0806 10.96C46.8006 10.58 47.6806 10.22 48.7206 9.88C49.7606 9.52 50.9206 9.34 52.2006 9.34C53.3806 9.34 54.4306 9.51 55.3506 9.85C56.2706 10.19 56.9906 10.69 57.5106 11.35C58.0306 11.99 58.2906 12.78 58.2906 13.72V23.5H54.5406V14.53C54.5406 14.15 54.4806 13.83 54.3606 13.57C54.2406 13.29 54.0506 13.06 53.7906 12.88C53.5506 12.7 53.2606 12.57 52.9206 12.49C52.5806 12.41 52.2006 12.37 51.7806 12.37C51.1406 12.37 50.5306 12.44 49.9506 12.58C49.3706 12.72 48.8706 12.89 48.4506 13.09C48.0306 13.29 47.7206 13.46 47.5206 13.6ZM70.0593 2.5H74.3493V19.75H82.7193V23.5H70.0593V2.5ZM86.9765 19.21C86.9765 19.61 87.0765 19.96 87.2765 20.26C87.4765 20.54 87.7465 20.76 88.0865 20.92C88.4465 21.06 88.8365 21.13 89.2565 21.13C89.8565 21.13 90.3965 21.01 90.8765 20.77C91.3565 20.51 91.7465 20.15 92.0465 19.69C92.3465 19.21 92.4965 18.64 92.4965 17.98L92.9765 19.78C92.9765 20.66 92.7265 21.4 92.2265 22C91.7465 22.6 91.1165 23.05 90.3365 23.35C89.5765 23.65 88.7765 23.8 87.9365 23.8C87.0765 23.8 86.2765 23.63 85.5365 23.29C84.7965 22.95 84.1965 22.46 83.7365 21.82C83.2965 21.16 83.0765 20.36 83.0765 19.42C83.0765 18.08 83.5465 17.02 84.4865 16.24C85.4265 15.46 86.7565 15.07 88.4765 15.07C89.3565 15.07 90.1265 15.16 90.7865 15.34C91.4665 15.52 92.0365 15.74 92.4965 16C92.9565 16.26 93.2865 16.51 93.4865 16.75V18.55C92.9465 18.15 92.3365 17.85 91.6565 17.65C90.9965 17.45 90.2965 17.35 89.5565 17.35C88.9565 17.35 88.4665 17.43 88.0865 17.59C87.7065 17.73 87.4265 17.94 87.2465 18.22C87.0665 18.48 86.9765 18.81 86.9765 19.21ZM85.4765 13.6L84.0365 10.96C84.7565 10.58 85.6365 10.22 86.6765 9.88C87.7165 9.52 88.8765 9.34 90.1565 9.34C91.3365 9.34 92.3865 9.51 93.3065 9.85C94.2265 10.19 94.9465 10.69 95.4665 11.35C95.9865 11.99 96.2465 12.78 96.2465 13.72V23.5H92.4965V14.53C92.4965 14.15 92.4365 13.83 92.3165 13.57C92.1965 13.29 92.0065 13.06 91.7465 12.88C91.5065 12.7 91.2165 12.57 90.8765 12.49C90.5365 12.41 90.1565 12.37 89.7365 12.37C89.0965 12.37 88.4865 12.44 87.9065 12.58C87.3265 12.72 86.8265 12.89 86.4065 13.09C85.9865 13.29 85.6765 13.46 85.4765 13.6ZM103.071 0.0999991V23.5H99.171V0.0999991H103.071ZM114.411 16.6C114.411 18.12 114.101 19.42 113.481 20.5C112.861 21.58 112.041 22.4 111.021 22.96C110.021 23.52 108.941 23.8 107.781 23.8C106.641 23.8 105.621 23.51 104.721 22.93C103.841 22.35 103.141 21.52 102.621 20.44C102.101 19.36 101.841 18.08 101.841 16.6C101.841 15.1 102.101 13.82 102.621 12.76C103.141 11.68 103.841 10.85 104.721 10.27C105.621 9.69 106.641 9.4 107.781 9.4C108.941 9.4 110.021 9.68 111.021 10.24C112.041 10.8 112.861 11.62 113.481 12.7C114.101 13.76 114.411 15.06 114.411 16.6ZM110.391 16.6C110.391 15.78 110.221 15.07 109.881 14.47C109.541 13.87 109.081 13.41 108.501 13.09C107.941 12.77 107.321 12.61 106.641 12.61C106.061 12.61 105.491 12.77 104.931 13.09C104.391 13.39 103.941 13.84 103.581 14.44C103.241 15.04 103.071 15.76 103.071 16.6C103.071 17.44 103.241 18.16 103.581 18.76C103.941 19.36 104.391 19.82 104.931 20.14C105.491 20.44 106.061 20.59 106.641 20.59C107.321 20.59 107.941 20.43 108.501 20.11C109.081 19.79 109.541 19.33 109.881 18.73C110.221 18.13 110.391 17.42 110.391 16.6ZM117.398 18.73C117.978 19.27 118.518 19.71 119.018 20.05C119.518 20.37 119.988 20.61 120.428 20.77C120.888 20.93 121.318 21.01 121.718 21.01C122.238 21.01 122.638 20.9 122.918 20.68C123.198 20.44 123.338 20.12 123.338 19.72C123.338 19.36 123.218 19.06 122.978 18.82C122.758 18.56 122.428 18.33 121.988 18.13C121.548 17.93 120.988 17.72 120.308 17.5C119.668 17.26 119.048 16.98 118.448 16.66C117.848 16.32 117.348 15.88 116.948 15.34C116.568 14.78 116.378 14.07 116.378 13.21C116.378 12.39 116.598 11.7 117.038 11.14C117.478 10.56 118.068 10.13 118.808 9.85C119.568 9.55 120.408 9.4 121.328 9.4C122.108 9.4 122.838 9.5 123.518 9.7C124.198 9.9 124.828 10.17 125.408 10.51C125.988 10.83 126.498 11.21 126.938 11.65L125.228 14.05C124.728 13.51 124.128 13.07 123.428 12.73C122.748 12.39 122.078 12.22 121.418 12.22C120.978 12.22 120.628 12.31 120.368 12.49C120.128 12.65 120.008 12.9 120.008 13.24C120.008 13.54 120.128 13.81 120.368 14.05C120.628 14.27 120.988 14.47 121.448 14.65C121.928 14.83 122.468 15.05 123.068 15.31C123.808 15.59 124.488 15.91 125.108 16.27C125.748 16.61 126.258 17.04 126.638 17.56C127.018 18.08 127.208 18.76 127.208 19.6C127.208 20.98 126.758 22.06 125.858 22.84C124.958 23.6 123.718 23.98 122.138 23.98C121.158 23.98 120.258 23.85 119.438 23.59C118.638 23.33 117.908 22.99 117.248 22.57C116.608 22.13 116.028 21.66 115.508 21.16L117.398 18.73Z" fill="white"/>
</svg>
