<svg width="32" height="32" viewBox="0 0 32 32" fill="none" xmlns="http://www.w3.org/2000/svg">
  <rect x="4" y="6" width="24" height="22" rx="2" stroke="#4F46E5" stroke-width="2"/>
  <path d="M4 10C4 8.11438 4 7.17157 4.58579 6.58579C5.17157 6 6.11438 6 8 6H24C25.8856 6 26.8284 6 27.4142 6.58579C28 7.17157 28 8.11438 28 10H4Z" fill="#4F46E5"/>
  <path d="M10 3L10 7" stroke="#4F46E5" stroke-width="2" stroke-linecap="round"/>
  <path d="M22 3L22 7" stroke="#4F46E5" stroke-width="2" stroke-linecap="round"/>
  <rect x="8" y="14" width="4" height="4" rx="1" fill="#4F46E5"/>
  <rect x="14" y="14" width="4" height="4" rx="1" fill="#4F46E5"/>
  <rect x="20" y="14" width="4" height="4" rx="1" fill="#4F46E5"/>
  <rect x="8" y="20" width="4" height="4" rx="1" fill="#4F46E5"/>
  <rect x="14" y="20" width="4" height="4" rx="1" fill="#4F46E5"/>
</svg>
